{
	"asset":{
		"generator":"Khronos glTF Blender I/O v4.1.62",
		"version":"2.0"
	},
	"scene":0,
	"scenes":[
		{
			"name":"Scene",
			"nodes":[
				0
			]
		}
	],
	"nodes":[
		{
			"mesh":0,
			"name":"ICO\u7403"
		}
	],
	"animations":[
		{
			"channels":[
				{
					"sampler":0,
					"target":{
						"node":0,
						"path":"translation"
					}
				},
				{
					"sampler":1,
					"target":{
						"node":0,
						"path":"rotation"
					}
				},
				{
					"sampler":2,
					"target":{
						"node":0,
						"path":"scale"
					}
				}
			],
			"name":"ICO\u7403Action",
			"samplers":[
				{
					"input":4,
					"interpolation":"LINEAR",
					"output":5
				},
				{
					"input":4,
					"interpolation":"LINEAR",
					"output":6
				},
				{
					"input":4,
					"interpolation":"LINEAR",
					"output":7
				}
			]
		}
	],
	"materials":[
		{
			"alphaMode":"BLEND",
			"doubleSided":true,
			"name":"\u30de\u30c6\u30ea\u30a2\u30eb.001",
			"pbrMetallicRoughness":{
				"metallicFactor":0,
				"roughnessFactor":0.5
			}
		}
	],
	"meshes":[
		{
			"name":"ICO\u7403.002",
			"primitives":[
				{
					"attributes":{
						"POSITION":0,
						"NORMAL":1,
						"TEXCOORD_0":2
					},
					"indices":3,
					"material":0
				}
			]
		}
	],
	"accessors":[
		{
			"bufferView":0,
			"componentType":5126,
			"count":4769,
			"max":[
				1.1052007675170898,
				1.0558080673217773,
				1.0131536722183228
			],
			"min":[
				-1.0574610233306885,
				-1.0547243356704712,
				-1.1011189222335815
			],
			"type":"VEC3"
		},
		{
			"bufferView":1,
			"componentType":5126,
			"count":4769,
			"type":"VEC3"
		},
		{
			"bufferView":2,
			"componentType":5126,
			"count":4769,
			"type":"VEC2"
		},
		{
			"bufferView":3,
			"componentType":5123,
			"count":23040,
			"type":"SCALAR"
		},
		{
			"bufferView":4,
			"componentType":5126,
			"count":1,
			"max":[
				0.041666666666666664
			],
			"min":[
				0.041666666666666664
			],
			"type":"SCALAR"
		},
		{
			"bufferView":5,
			"componentType":5126,
			"count":1,
			"type":"VEC3"
		},
		{
			"bufferView":6,
			"componentType":5126,
			"count":1,
			"type":"VEC4"
		},
		{
			"bufferView":7,
			"componentType":5126,
			"count":1,
			"type":"VEC3"
		}
	],
	"bufferViews":[
		{
			"buffer":0,
			"byteLength":57228,
			"byteOffset":0,
			"target":34962
		},
		{
			"buffer":0,
			"byteLength":57228,
			"byteOffset":57228,
			"target":34962
		},
		{
			"buffer":0,
			"byteLength":38152,
			"byteOffset":114456,
			"target":34962
		},
		{
			"buffer":0,
			"byteLength":46080,
			"byteOffset":152608,
			"target":34963
		},
		{
			"buffer":0,
			"byteLength":4,
			"byteOffset":198688
		},
		{
			"buffer":0,
			"byteLength":12,
			"byteOffset":198692
		},
		{
			"buffer":0,
			"byteLength":16,
			"byteOffset":198704
		},
		{
			"buffer":0,
			"byteLength":12,
			"byteOffset":198720
		}
	],
	"buffers":[
		{
			"byteLength":198732,
			"uri":"smoke.bin"
		}
	]
}
