{
	"asset":{
		"generator":"Khronos glTF Blender I/O v4.1.62",
		"version":"2.0"
	},
	"scene":0,
	"scenes":[
		{
			"name":"Scene",
			"nodes":[
				0,
				1,
				2,
				3,
				4,
				5
			]
		}
	],
	"nodes":[
		{
			"mesh":0,
			"name":"Brown Door",
			"scale":[
				0.988543689250946,
				1.7811459302902222,
				0.0982336476445198
			],
			"translation":[
				-2.9199185371398926,
				2.6925363540649414,
				5.86015510559082
			]
		},
		{
			"mesh":1,
			"name":"house3",
			"scale":[
				5.572394847869873,
				5.572394847869873,
				3.8299403190612793
			],
			"translation":[
				-0.42195233702659607,
				8.692689895629883,
				2.7426881790161133
			]
		},
		{
			"mesh":2,
			"name":"house2",
			"scale":[
				5.572394847869873,
				5.572394847869873,
				3.8299403190612793
			],
			"translation":[
				-0.42195233702659607,
				8.692689895629883,
				2.7426881790161133
			]
		},
		{
			"mesh":3,
			"name":"house1",
			"scale":[
				5.572394847869873,
				5.572394847869873,
				3.8299403190612793
			],
			"translation":[
				-0.42195233702659607,
				8.692689895629883,
				2.7426881790161133
			]
		},
		{
			"mesh":4,
			"name":"\u7acb\u65b9\u4f53",
			"scale":[
				1.2999999523162842,
				1,
				0.10000000149011612
			],
			"translation":[
				2.5214099884033203,
				3.570068836212158,
				9.25055980682373
			]
		},
		{
			"mesh":5,
			"name":"\u5e73\u9762.002",
			"rotation":[
				0.7071068286895752,
				0,
				0,
				0.7071068286895752
			],
			"scale":[
				1.2375373840332031,
				1,
				0.8523476123809814
			],
			"translation":[
				1.2836120128631592,
				4.426181316375732,
				9.307073593139648
			]
		}
	],
	"materials":[
		{
			"doubleSided":true,
			"name":"Material",
			"pbrMetallicRoughness":{
				"baseColorFactor":[
					0.31853827834129333,
					0.08519919216632843,
					0.007809871342033148,
					1
				],
				"metallicFactor":0,
				"roughnessFactor":0.5
			}
		},
		{
			"doubleSided":true,
			"name":"Material.001",
			"pbrMetallicRoughness":{
				"baseColorFactor":[
					0.800000011920929,
					0.800000011920929,
					0.800000011920929,
					1
				],
				"metallicFactor":0,
				"roughnessFactor":0.5
			}
		},
		{
			"doubleSided":true,
			"name":"Material.002",
			"pbrMetallicRoughness":{
				"baseColorFactor":[
					0.36484891176223755,
					0.5835878252983093,
					0.7484002113342285,
					1
				],
				"metallicFactor":0,
				"roughnessFactor":0.5
			}
		},
		{
			"doubleSided":true,
			"name":"red",
			"pbrMetallicRoughness":{
				"baseColorFactor":[
					0.19774511456489563,
					0.4846181273460388,
					0.8713645935058594,
					1
				],
				"metallicFactor":0,
				"roughnessFactor":0.5
			}
		},
		{
			"doubleSided":true,
			"name":"white",
			"pbrMetallicRoughness":{
				"metallicFactor":0,
				"roughnessFactor":0.5
			}
		},
		{
			"doubleSided":true,
			"name":"yellow",
			"pbrMetallicRoughness":{
				"baseColorFactor":[
					0.8002121448516846,
					0.5999026894569397,
					0.18852373957633972,
					1
				],
				"metallicFactor":0,
				"roughnessFactor":0.5
			}
		},
		{
			"doubleSided":true,
			"name":"gray",
			"pbrMetallicRoughness":{
				"baseColorFactor":[
					0.5102542638778687,
					0.5102542638778687,
					0.5102542638778687,
					1
				],
				"metallicFactor":0,
				"roughnessFactor":0.5
			}
		},
		{
			"doubleSided":true,
			"name":"skyblue",
			"pbrMetallicRoughness":{
				"baseColorFactor":[
					0.31947144865989685,
					0.6871473789215088,
					0.8002588152885437,
					1
				],
				"metallicFactor":0,
				"roughnessFactor":0.5
			}
		}
	],
	"meshes":[
		{
			"name":"Cube",
			"primitives":[
				{
					"attributes":{
						"POSITION":0,
						"NORMAL":1
					},
					"indices":2,
					"material":0
				},
				{
					"attributes":{
						"POSITION":3,
						"NORMAL":4
					},
					"indices":5,
					"material":1
				},
				{
					"attributes":{
						"POSITION":6,
						"NORMAL":7
					},
					"indices":8,
					"material":2
				}
			]
		},
		{
			"name":"Plane.006",
			"primitives":[
				{
					"attributes":{
						"POSITION":9,
						"NORMAL":10
					},
					"indices":11,
					"material":3
				},
				{
					"attributes":{
						"POSITION":12,
						"NORMAL":13
					},
					"indices":14,
					"material":4
				}
			]
		},
		{
			"name":"Plane.005",
			"primitives":[
				{
					"attributes":{
						"POSITION":15,
						"NORMAL":16
					},
					"indices":17,
					"material":4
				},
				{
					"attributes":{
						"POSITION":18,
						"NORMAL":19
					},
					"indices":20,
					"material":3
				}
			]
		},
		{
			"name":"Plane.003",
			"primitives":[
				{
					"attributes":{
						"POSITION":21,
						"NORMAL":22,
						"TEXCOORD_0":23
					},
					"indices":24,
					"material":3
				},
				{
					"attributes":{
						"POSITION":25,
						"NORMAL":26,
						"TEXCOORD_0":27
					},
					"indices":28,
					"material":4
				},
				{
					"attributes":{
						"POSITION":29,
						"NORMAL":30,
						"TEXCOORD_0":31
					},
					"indices":32,
					"material":5
				}
			]
		},
		{
			"name":"\u7acb\u65b9\u4f53",
			"primitives":[
				{
					"attributes":{
						"POSITION":33,
						"NORMAL":34,
						"TEXCOORD_0":35
					},
					"indices":36,
					"material":6
				}
			]
		},
		{
			"name":"\u5e73\u9762.002",
			"primitives":[
				{
					"attributes":{
						"POSITION":37,
						"NORMAL":38,
						"TEXCOORD_0":39
					},
					"indices":40,
					"material":7
				}
			]
		}
	],
	"accessors":[
		{
			"bufferView":0,
			"componentType":5126,
			"count":116,
			"max":[
				2.0000014305114746,
				1.1670341491699219,
				1.033738136291504
			],
			"min":[
				1.3709068298339844e-06,
				-0.8329657316207886,
				-0.9662621021270752
			],
			"type":"VEC3"
		},
		{
			"bufferView":1,
			"componentType":5126,
			"count":116,
			"type":"VEC3"
		},
		{
			"bufferView":2,
			"componentType":5123,
			"count":222,
			"type":"SCALAR"
		},
		{
			"bufferView":3,
			"componentType":5126,
			"count":216,
			"max":[
				1.8721294403076172,
				0.16084466874599457,
				1.3434715270996094
			],
			"min":[
				1.6670634746551514,
				0.11788725107908249,
				0.4930180013179779
			],
			"type":"VEC3"
		},
		{
			"bufferView":4,
			"componentType":5126,
			"count":216,
			"type":"VEC3"
		},
		{
			"bufferView":5,
			"componentType":5123,
			"count":324,
			"type":"SCALAR"
		},
		{
			"bufferView":6,
			"componentType":5126,
			"count":4,
			"max":[
				1.7715235948562622,
				0.9799854159355164,
				0.4693300724029541
			],
			"min":[
				0.2433638721704483,
				0.26812079548835754,
				0.46932995319366455
			],
			"type":"VEC3"
		},
		{
			"bufferView":7,
			"componentType":5126,
			"count":4,
			"type":"VEC3"
		},
		{
			"bufferView":8,
			"componentType":5123,
			"count":6,
			"type":"SCALAR"
		},
		{
			"bufferView":9,
			"componentType":5126,
			"count":46,
			"max":[
				1.2422208786010742,
				1.103738784790039,
				1.6095805168151855
			],
			"min":[
				-0.19628626108169556,
				-0.2926175594329834,
				-1.4821603298187256
			],
			"type":"VEC3"
		},
		{
			"bufferView":10,
			"componentType":5126,
			"count":46,
			"type":"VEC3"
		},
		{
			"bufferView":11,
			"componentType":5123,
			"count":66,
			"type":"SCALAR"
		},
		{
			"bufferView":12,
			"componentType":5126,
			"count":16,
			"max":[
				0.9133971929550171,
				0.028900116682052612,
				1.5483297109603882
			],
			"min":[
				0.08516725897789001,
				-0.2769842743873596,
				-1.4209095239639282
			],
			"type":"VEC3"
		},
		{
			"bufferView":13,
			"componentType":5126,
			"count":16,
			"type":"VEC3"
		},
		{
			"bufferView":14,
			"componentType":5123,
			"count":24,
			"type":"SCALAR"
		},
		{
			"bufferView":15,
			"componentType":5126,
			"count":32,
			"max":[
				-0.30341023206710815,
				0.267103374004364,
				1.065994381904602
			],
			"min":[
				-0.9259045124053955,
				-0.06648656725883484,
				-0.880603551864624
			],
			"type":"VEC3"
		},
		{
			"bufferView":16,
			"componentType":5126,
			"count":32,
			"type":"VEC3"
		},
		{
			"bufferView":17,
			"componentType":5123,
			"count":48,
			"type":"SCALAR"
		},
		{
			"bufferView":18,
			"componentType":5126,
			"count":22,
			"max":[
				-0.30341023206710815,
				0.6693404912948608,
				1.065994381904602
			],
			"min":[
				-0.9259045124053955,
				0.22043238580226898,
				-0.880603551864624
			],
			"type":"VEC3"
		},
		{
			"bufferView":19,
			"componentType":5126,
			"count":22,
			"type":"VEC3"
		},
		{
			"bufferView":20,
			"componentType":5123,
			"count":42,
			"type":"SCALAR"
		},
		{
			"bufferView":21,
			"componentType":5126,
			"count":102,
			"max":[
				1.3387420177459717,
				0.6234123110771179,
				1.6993507146835327
			],
			"min":[
				-1.2709629535675049,
				-1.0987415313720703,
				-1.3937501907348633
			],
			"type":"VEC3"
		},
		{
			"bufferView":22,
			"componentType":5126,
			"count":102,
			"type":"VEC3"
		},
		{
			"bufferView":23,
			"componentType":5126,
			"count":102,
			"type":"VEC2"
		},
		{
			"bufferView":24,
			"componentType":5123,
			"count":150,
			"type":"SCALAR"
		},
		{
			"bufferView":25,
			"componentType":5126,
			"count":66,
			"max":[
				1.0999104976654053,
				-0.14580518007278442,
				1.6993507146835327
			],
			"min":[
				-1.0689644813537598,
				-1.55995512008667,
				-1.3937501907348633
			],
			"type":"VEC3"
		},
		{
			"bufferView":26,
			"componentType":5126,
			"count":66,
			"type":"VEC3"
		},
		{
			"bufferView":27,
			"componentType":5126,
			"count":66,
			"type":"VEC2"
		},
		{
			"bufferView":28,
			"componentType":5123,
			"count":126,
			"type":"SCALAR"
		},
		{
			"bufferView":29,
			"componentType":5126,
			"count":208,
			"max":[
				-0.5534720420837402,
				-0.5482713580131531,
				1.454378604888916
			],
			"min":[
				-1.0693551301956177,
				-1.3486852645874023,
				0.8085490465164185
			],
			"type":"VEC3"
		},
		{
			"bufferView":30,
			"componentType":5126,
			"count":208,
			"type":"VEC3"
		},
		{
			"bufferView":31,
			"componentType":5126,
			"count":208,
			"type":"VEC2"
		},
		{
			"bufferView":32,
			"componentType":5123,
			"count":312,
			"type":"SCALAR"
		},
		{
			"bufferView":33,
			"componentType":5126,
			"count":120,
			"max":[
				0.9999995231628418,
				1,
				1
			],
			"min":[
				-1.0000004768371582,
				-1,
				-1
			],
			"type":"VEC3"
		},
		{
			"bufferView":34,
			"componentType":5126,
			"count":120,
			"type":"VEC3"
		},
		{
			"bufferView":35,
			"componentType":5126,
			"count":120,
			"type":"VEC2"
		},
		{
			"bufferView":36,
			"componentType":5123,
			"count":276,
			"type":"SCALAR"
		},
		{
			"bufferView":37,
			"componentType":5126,
			"count":4,
			"max":[
				2,
				0,
				2
			],
			"min":[
				0,
				0,
				-5.960464477539063e-08
			],
			"type":"VEC3"
		},
		{
			"bufferView":38,
			"componentType":5126,
			"count":4,
			"type":"VEC3"
		},
		{
			"bufferView":39,
			"componentType":5126,
			"count":4,
			"type":"VEC2"
		},
		{
			"bufferView":40,
			"componentType":5123,
			"count":6,
			"type":"SCALAR"
		}
	],
	"bufferViews":[
		{
			"buffer":0,
			"byteLength":1392,
			"byteOffset":0,
			"target":34962
		},
		{
			"buffer":0,
			"byteLength":1392,
			"byteOffset":1392,
			"target":34962
		},
		{
			"buffer":0,
			"byteLength":444,
			"byteOffset":2784,
			"target":34963
		},
		{
			"buffer":0,
			"byteLength":2592,
			"byteOffset":3228,
			"target":34962
		},
		{
			"buffer":0,
			"byteLength":2592,
			"byteOffset":5820,
			"target":34962
		},
		{
			"buffer":0,
			"byteLength":648,
			"byteOffset":8412,
			"target":34963
		},
		{
			"buffer":0,
			"byteLength":48,
			"byteOffset":9060,
			"target":34962
		},
		{
			"buffer":0,
			"byteLength":48,
			"byteOffset":9108,
			"target":34962
		},
		{
			"buffer":0,
			"byteLength":12,
			"byteOffset":9156,
			"target":34963
		},
		{
			"buffer":0,
			"byteLength":552,
			"byteOffset":9168,
			"target":34962
		},
		{
			"buffer":0,
			"byteLength":552,
			"byteOffset":9720,
			"target":34962
		},
		{
			"buffer":0,
			"byteLength":132,
			"byteOffset":10272,
			"target":34963
		},
		{
			"buffer":0,
			"byteLength":192,
			"byteOffset":10404,
			"target":34962
		},
		{
			"buffer":0,
			"byteLength":192,
			"byteOffset":10596,
			"target":34962
		},
		{
			"buffer":0,
			"byteLength":48,
			"byteOffset":10788,
			"target":34963
		},
		{
			"buffer":0,
			"byteLength":384,
			"byteOffset":10836,
			"target":34962
		},
		{
			"buffer":0,
			"byteLength":384,
			"byteOffset":11220,
			"target":34962
		},
		{
			"buffer":0,
			"byteLength":96,
			"byteOffset":11604,
			"target":34963
		},
		{
			"buffer":0,
			"byteLength":264,
			"byteOffset":11700,
			"target":34962
		},
		{
			"buffer":0,
			"byteLength":264,
			"byteOffset":11964,
			"target":34962
		},
		{
			"buffer":0,
			"byteLength":84,
			"byteOffset":12228,
			"target":34963
		},
		{
			"buffer":0,
			"byteLength":1224,
			"byteOffset":12312,
			"target":34962
		},
		{
			"buffer":0,
			"byteLength":1224,
			"byteOffset":13536,
			"target":34962
		},
		{
			"buffer":0,
			"byteLength":816,
			"byteOffset":14760,
			"target":34962
		},
		{
			"buffer":0,
			"byteLength":300,
			"byteOffset":15576,
			"target":34963
		},
		{
			"buffer":0,
			"byteLength":792,
			"byteOffset":15876,
			"target":34962
		},
		{
			"buffer":0,
			"byteLength":792,
			"byteOffset":16668,
			"target":34962
		},
		{
			"buffer":0,
			"byteLength":528,
			"byteOffset":17460,
			"target":34962
		},
		{
			"buffer":0,
			"byteLength":252,
			"byteOffset":17988,
			"target":34963
		},
		{
			"buffer":0,
			"byteLength":2496,
			"byteOffset":18240,
			"target":34962
		},
		{
			"buffer":0,
			"byteLength":2496,
			"byteOffset":20736,
			"target":34962
		},
		{
			"buffer":0,
			"byteLength":1664,
			"byteOffset":23232,
			"target":34962
		},
		{
			"buffer":0,
			"byteLength":624,
			"byteOffset":24896,
			"target":34963
		},
		{
			"buffer":0,
			"byteLength":1440,
			"byteOffset":25520,
			"target":34962
		},
		{
			"buffer":0,
			"byteLength":1440,
			"byteOffset":26960,
			"target":34962
		},
		{
			"buffer":0,
			"byteLength":960,
			"byteOffset":28400,
			"target":34962
		},
		{
			"buffer":0,
			"byteLength":552,
			"byteOffset":29360,
			"target":34963
		},
		{
			"buffer":0,
			"byteLength":48,
			"byteOffset":29912,
			"target":34962
		},
		{
			"buffer":0,
			"byteLength":48,
			"byteOffset":29960,
			"target":34962
		},
		{
			"buffer":0,
			"byteLength":32,
			"byteOffset":30008,
			"target":34962
		},
		{
			"buffer":0,
			"byteLength":12,
			"byteOffset":30040,
			"target":34963
		}
	],
	"buffers":[
		{
			"byteLength":30052,
			"uri":"blueHouse.bin"
		}
	]
}
