{
	"asset":{
		"generator":"Khronos glTF Blender I/O v4.1.62",
		"version":"2.0"
	},
	"scene":0,
	"scenes":[
		{
			"name":"Scene",
			"nodes":[
				4,
				5,
				6,
				7,
				8,
				9
			]
		}
	],
	"nodes":[
		{
			"name":"Carry",
			"translation":[
				0,
				0,
				0.8999999165534973
			]
		},
		{
			"name":"Center",
			"translation":[
				0,
				0.9999999403953552,
				0
			]
		},
		{
			"name":"LeftFrontDown",
			"translation":[
				-0.9999999403953552,
				0,
				-0.9999999403953552
			]
		},
		{
			"name":"RightBackUp",
			"translation":[
				0.9999999403953552,
				1.9999998807907104,
				0.9999999403953552
			]
		},
		{
			"children":[
				0,
				1,
				2,
				3
			],
			"mesh":0,
			"name":"\u7acb\u65b9\u4f53",
			"scale":[
				0.699999988079071,
				0.699999988079071,
				0.699999988079071
			]
		},
		{
			"mesh":1,
			"name":"\u7403",
			"scale":[
				0.20000000298023224,
				0.20000000298023224,
				0.20000000298023224
			],
			"translation":[
				-1.0769599676132202,
				0.29031655192375183,
				-0.42659446597099304
			]
		},
		{
			"mesh":2,
			"name":"\u5186\u67f1",
			"rotation":[
				0.38544631004333496,
				0,
				0,
				0.9227302670478821
			],
			"scale":[
				0.10000000149011612,
				0.4000000059604645,
				0.10000000149011612
			],
			"translation":[
				1.0748399496078491,
				0.5810983777046204,
				-0.10254678875207901
			]
		},
		{
			"mesh":3,
			"name":"\u5186\u67f1.001",
			"rotation":[
				0,
				-0.9227302670478821,
				-0.38544631004333496,
				7.301840554418959e-08
			],
			"scale":[
				0.10000000149011612,
				0.4000000059604645,
				0.10000000149011612
			],
			"translation":[
				-1.0748399496078491,
				0.5810983777046204,
				-0.10254678875207901
			]
		},
		{
			"mesh":4,
			"name":"\u7403.001",
			"scale":[
				0.20000000298023224,
				0.20000000298023224,
				0.20000000298023224
			],
			"translation":[
				1.0769621133804321,
				0.29031655192375183,
				-0.42659446597099304
			]
		},
		{
			"mesh":5,
			"name":"COL",
			"scale":[
				0.699999988079071,
				0.699999988079071,
				0.699999988079071
			],
			"translation":[
				0,
				0.699999988079071,
				0
			]
		}
	],
	"materials":[
		{
			"doubleSided":true,
			"name":"\u30de\u30c6\u30ea\u30a2\u30eb",
			"pbrMetallicRoughness":{
				"baseColorTexture":{
					"index":0
				},
				"metallicFactor":0,
				"roughnessFactor":0.5
			}
		},
		{
			"doubleSided":true,
			"name":"\u30de\u30c6\u30ea\u30a2\u30eb.001",
			"pbrMetallicRoughness":{
				"baseColorTexture":{
					"index":1
				},
				"metallicFactor":0,
				"roughnessFactor":0.5
			}
		},
		{
			"doubleSided":true,
			"name":"\u30de\u30c6\u30ea\u30a2\u30eb.002",
			"pbrMetallicRoughness":{
				"baseColorFactor":[
					0.9607843160629272,
					0.9725490212440491,
					0.8705882430076599,
					1
				],
				"metallicFactor":0
			}
		}
	],
	"meshes":[
		{
			"name":"\u7acb\u65b9\u4f53",
			"primitives":[
				{
					"attributes":{
						"POSITION":0,
						"NORMAL":1,
						"TEXCOORD_0":2
					},
					"indices":3,
					"material":0
				},
				{
					"attributes":{
						"POSITION":4,
						"NORMAL":5,
						"TEXCOORD_0":6
					},
					"indices":7,
					"material":1
				}
			]
		},
		{
			"name":"\u7403.001",
			"primitives":[
				{
					"attributes":{
						"POSITION":8,
						"NORMAL":9,
						"TEXCOORD_0":10
					},
					"indices":11,
					"material":2
				}
			]
		},
		{
			"name":"\u5186\u67f1.002",
			"primitives":[
				{
					"attributes":{
						"POSITION":12,
						"NORMAL":13,
						"TEXCOORD_0":14
					},
					"indices":15,
					"material":2
				}
			]
		},
		{
			"name":"\u5186\u67f1.004",
			"primitives":[
				{
					"attributes":{
						"POSITION":16,
						"NORMAL":17,
						"TEXCOORD_0":18
					},
					"indices":15,
					"material":2
				}
			]
		},
		{
			"name":"\u7403.003",
			"primitives":[
				{
					"attributes":{
						"POSITION":19,
						"NORMAL":20,
						"TEXCOORD_0":21
					},
					"indices":11,
					"material":2
				}
			]
		},
		{
			"name":"\u7acb\u65b9\u4f53.001",
			"primitives":[
				{
					"attributes":{
						"POSITION":22,
						"NORMAL":23,
						"TEXCOORD_0":24
					},
					"indices":25
				}
			]
		}
	],
	"textures":[
		{
			"sampler":0,
			"source":0
		},
		{
			"sampler":0,
			"source":1
		}
	],
	"images":[
		{
			"mimeType":"image/png",
			"name":"box",
			"uri":"box.png"
		},
		{
			"mimeType":"image/png",
			"name":"eye",
			"uri":"eye.png"
		}
	],
	"accessors":[
		{
			"bufferView":0,
			"componentType":5126,
			"count":20,
			"max":[
				1,
				2,
				1
			],
			"min":[
				-1,
				0,
				-1
			],
			"type":"VEC3"
		},
		{
			"bufferView":1,
			"componentType":5126,
			"count":20,
			"type":"VEC3"
		},
		{
			"bufferView":2,
			"componentType":5126,
			"count":20,
			"type":"VEC2"
		},
		{
			"bufferView":3,
			"componentType":5123,
			"count":30,
			"type":"SCALAR"
		},
		{
			"bufferView":4,
			"componentType":5126,
			"count":4,
			"max":[
				1,
				2,
				-1
			],
			"min":[
				-1,
				0,
				-1
			],
			"type":"VEC3"
		},
		{
			"bufferView":5,
			"componentType":5126,
			"count":4,
			"type":"VEC3"
		},
		{
			"bufferView":6,
			"componentType":5126,
			"count":4,
			"type":"VEC2"
		},
		{
			"bufferView":7,
			"componentType":5123,
			"count":6,
			"type":"SCALAR"
		},
		{
			"bufferView":8,
			"componentType":5126,
			"count":559,
			"max":[
				0.9999997019767761,
				1,
				0.9999993443489075
			],
			"min":[
				-0.9999990463256836,
				-1,
				-1
			],
			"type":"VEC3"
		},
		{
			"bufferView":9,
			"componentType":5126,
			"count":559,
			"type":"VEC3"
		},
		{
			"bufferView":10,
			"componentType":5126,
			"count":559,
			"type":"VEC2"
		},
		{
			"bufferView":11,
			"componentType":5123,
			"count":2880,
			"type":"SCALAR"
		},
		{
			"bufferView":12,
			"componentType":5126,
			"count":361,
			"max":[
				1.0017286539077759,
				0.7170443534851074,
				1.0000001192092896
			],
			"min":[
				-4.0265679359436035,
				-1,
				-1.0000003576278687
			],
			"type":"VEC3"
		},
		{
			"bufferView":13,
			"componentType":5126,
			"count":361,
			"type":"VEC3"
		},
		{
			"bufferView":14,
			"componentType":5126,
			"count":361,
			"type":"VEC2"
		},
		{
			"bufferView":15,
			"componentType":5123,
			"count":1716,
			"type":"SCALAR"
		},
		{
			"bufferView":16,
			"componentType":5126,
			"count":361,
			"max":[
				1.0017286539077759,
				0.7170443534851074,
				1.0000001192092896
			],
			"min":[
				-4.0265679359436035,
				-1,
				-1.0000003576278687
			],
			"type":"VEC3"
		},
		{
			"bufferView":17,
			"componentType":5126,
			"count":361,
			"type":"VEC3"
		},
		{
			"bufferView":18,
			"componentType":5126,
			"count":361,
			"type":"VEC2"
		},
		{
			"bufferView":19,
			"componentType":5126,
			"count":559,
			"max":[
				0.9999997019767761,
				1,
				0.9999993443489075
			],
			"min":[
				-0.9999990463256836,
				-1,
				-1
			],
			"type":"VEC3"
		},
		{
			"bufferView":20,
			"componentType":5126,
			"count":559,
			"type":"VEC3"
		},
		{
			"bufferView":21,
			"componentType":5126,
			"count":559,
			"type":"VEC2"
		},
		{
			"bufferView":22,
			"componentType":5126,
			"count":24,
			"max":[
				1,
				1,
				1
			],
			"min":[
				-1,
				-1,
				-1
			],
			"type":"VEC3"
		},
		{
			"bufferView":23,
			"componentType":5126,
			"count":24,
			"type":"VEC3"
		},
		{
			"bufferView":24,
			"componentType":5126,
			"count":24,
			"type":"VEC2"
		},
		{
			"bufferView":25,
			"componentType":5123,
			"count":36,
			"type":"SCALAR"
		}
	],
	"bufferViews":[
		{
			"buffer":0,
			"byteLength":240,
			"byteOffset":0,
			"target":34962
		},
		{
			"buffer":0,
			"byteLength":240,
			"byteOffset":240,
			"target":34962
		},
		{
			"buffer":0,
			"byteLength":160,
			"byteOffset":480,
			"target":34962
		},
		{
			"buffer":0,
			"byteLength":60,
			"byteOffset":640,
			"target":34963
		},
		{
			"buffer":0,
			"byteLength":48,
			"byteOffset":700,
			"target":34962
		},
		{
			"buffer":0,
			"byteLength":48,
			"byteOffset":748,
			"target":34962
		},
		{
			"buffer":0,
			"byteLength":32,
			"byteOffset":796,
			"target":34962
		},
		{
			"buffer":0,
			"byteLength":12,
			"byteOffset":828,
			"target":34963
		},
		{
			"buffer":0,
			"byteLength":6708,
			"byteOffset":840,
			"target":34962
		},
		{
			"buffer":0,
			"byteLength":6708,
			"byteOffset":7548,
			"target":34962
		},
		{
			"buffer":0,
			"byteLength":4472,
			"byteOffset":14256,
			"target":34962
		},
		{
			"buffer":0,
			"byteLength":5760,
			"byteOffset":18728,
			"target":34963
		},
		{
			"buffer":0,
			"byteLength":4332,
			"byteOffset":24488,
			"target":34962
		},
		{
			"buffer":0,
			"byteLength":4332,
			"byteOffset":28820,
			"target":34962
		},
		{
			"buffer":0,
			"byteLength":2888,
			"byteOffset":33152,
			"target":34962
		},
		{
			"buffer":0,
			"byteLength":3432,
			"byteOffset":36040,
			"target":34963
		},
		{
			"buffer":0,
			"byteLength":4332,
			"byteOffset":39472,
			"target":34962
		},
		{
			"buffer":0,
			"byteLength":4332,
			"byteOffset":43804,
			"target":34962
		},
		{
			"buffer":0,
			"byteLength":2888,
			"byteOffset":48136,
			"target":34962
		},
		{
			"buffer":0,
			"byteLength":6708,
			"byteOffset":51024,
			"target":34962
		},
		{
			"buffer":0,
			"byteLength":6708,
			"byteOffset":57732,
			"target":34962
		},
		{
			"buffer":0,
			"byteLength":4472,
			"byteOffset":64440,
			"target":34962
		},
		{
			"buffer":0,
			"byteLength":288,
			"byteOffset":68912,
			"target":34962
		},
		{
			"buffer":0,
			"byteLength":288,
			"byteOffset":69200,
			"target":34962
		},
		{
			"buffer":0,
			"byteLength":192,
			"byteOffset":69488,
			"target":34962
		},
		{
			"buffer":0,
			"byteLength":72,
			"byteOffset":69680,
			"target":34963
		}
	],
	"samplers":[
		{
			"magFilter":9729,
			"minFilter":9987
		}
	],
	"buffers":[
		{
			"byteLength":69752,
			"uri":"boxEnemy.bin"
		}
	]
}
