{
	"asset":{
		"generator":"Khronos glTF Blender I/O v4.1.62",
		"version":"2.0"
	},
	"scene":0,
	"scenes":[
		{
			"name":"Scene",
			"nodes":[
				4,
				5,
				6,
				7,
				8
			]
		}
	],
	"nodes":[
		{
			"name":"Carry",
			"translation":[
				0,
				0,
				0.8999997973442078
			]
		},
		{
			"name":"Center",
			"translation":[
				0,
				0.9999996423721313,
				0
			]
		},
		{
			"name":"LeftFrontDown",
			"translation":[
				-0.9999996423721313,
				0,
				-0.9999996423721313
			]
		},
		{
			"name":"RightBackUp",
			"translation":[
				0.9999996423721313,
				1.9999992847442627,
				0.9999996423721313
			]
		},
		{
			"children":[
				0,
				1,
				2,
				3
			],
			"mesh":0,
			"name":"\u7acb\u65b9\u4f53",
			"scale":[
				0.699999988079071,
				0.699999988079071,
				0.699999988079071
			]
		},
		{
			"mesh":1,
			"name":"\u5186\u67f1",
			"rotation":[
				0.38544631004333496,
				0,
				0,
				0.9227302670478821
			],
			"scale":[
				0.10000000149011612,
				0.4000000059604645,
				0.10000000149011612
			],
			"translation":[
				0.6996147036552429,
				0.7136124968528748,
				0.024055276066064835
			]
		},
		{
			"mesh":2,
			"name":"\u5186\u67f1.001",
			"rotation":[
				0,
				-0.9227302670478821,
				-0.38544631004333496,
				8.051245714568722e-08
			],
			"scale":[
				0.10000000149011612,
				0.4000000059604645,
				0.10000000149011612
			],
			"translation":[
				-0.699665904045105,
				0.7087602019309998,
				0.037513367831707
			]
		},
		{
			"mesh":3,
			"name":"COL",
			"scale":[
				0.699999988079071,
				0.699999988079071,
				0.699999988079071
			],
			"translation":[
				0,
				0.699999988079071,
				0
			]
		},
		{
			"name":"DeathPoint",
			"translation":[
				0,
				0.699999988079071,
				0
			]
		}
	],
	"animations":[
		{
			"channels":[
				{
					"sampler":0,
					"target":{
						"node":5,
						"path":"translation"
					}
				},
				{
					"sampler":1,
					"target":{
						"node":5,
						"path":"rotation"
					}
				},
				{
					"sampler":2,
					"target":{
						"node":5,
						"path":"scale"
					}
				},
				{
					"sampler":3,
					"target":{
						"node":6,
						"path":"translation"
					}
				},
				{
					"sampler":4,
					"target":{
						"node":6,
						"path":"rotation"
					}
				},
				{
					"sampler":5,
					"target":{
						"node":6,
						"path":"scale"
					}
				}
			],
			"name":"Jump",
			"samplers":[
				{
					"input":23,
					"interpolation":"STEP",
					"output":24
				},
				{
					"input":25,
					"interpolation":"LINEAR",
					"output":26
				},
				{
					"input":23,
					"interpolation":"STEP",
					"output":27
				},
				{
					"input":23,
					"interpolation":"STEP",
					"output":28
				},
				{
					"input":25,
					"interpolation":"LINEAR",
					"output":29
				},
				{
					"input":23,
					"interpolation":"STEP",
					"output":30
				}
			]
		}
	],
	"materials":[
		{
			"doubleSided":true,
			"name":"\u30de\u30c6\u30ea\u30a2\u30eb",
			"pbrMetallicRoughness":{
				"baseColorTexture":{
					"index":0
				},
				"metallicFactor":0,
				"roughnessFactor":0.5
			}
		},
		{
			"doubleSided":true,
			"name":"\u30de\u30c6\u30ea\u30a2\u30eb.001",
			"pbrMetallicRoughness":{
				"baseColorTexture":{
					"index":1
				},
				"metallicFactor":0,
				"roughnessFactor":0.5
			}
		},
		{
			"doubleSided":true,
			"name":"\u30de\u30c6\u30ea\u30a2\u30eb.003",
			"pbrMetallicRoughness":{
				"baseColorTexture":{
					"index":2
				},
				"metallicFactor":0,
				"roughnessFactor":0.5
			}
		},
		{
			"doubleSided":true,
			"name":"\u30de\u30c6\u30ea\u30a2\u30eb.002",
			"pbrMetallicRoughness":{
				"baseColorFactor":[
					0.9607843160629272,
					0.9725490212440491,
					0.8705882430076599,
					1
				],
				"metallicFactor":0
			}
		}
	],
	"meshes":[
		{
			"name":"\u7acb\u65b9\u4f53",
			"primitives":[
				{
					"attributes":{
						"POSITION":0,
						"NORMAL":1,
						"TEXCOORD_0":2
					},
					"indices":3,
					"material":0
				},
				{
					"attributes":{
						"POSITION":4,
						"NORMAL":5,
						"TEXCOORD_0":6
					},
					"indices":7,
					"material":1
				},
				{
					"attributes":{
						"POSITION":8,
						"NORMAL":9,
						"TEXCOORD_0":10
					},
					"indices":11,
					"material":2
				}
			]
		},
		{
			"name":"\u5186\u67f1.002",
			"primitives":[
				{
					"attributes":{
						"POSITION":12,
						"NORMAL":13,
						"TEXCOORD_0":14
					},
					"indices":15,
					"material":3
				}
			]
		},
		{
			"name":"\u5186\u67f1.004",
			"primitives":[
				{
					"attributes":{
						"POSITION":16,
						"NORMAL":17,
						"TEXCOORD_0":18
					},
					"indices":15,
					"material":3
				}
			]
		},
		{
			"name":"\u7acb\u65b9\u4f53.001",
			"primitives":[
				{
					"attributes":{
						"POSITION":19,
						"NORMAL":20,
						"TEXCOORD_0":21
					},
					"indices":22,
					"material":0
				}
			]
		}
	],
	"textures":[
		{
			"sampler":0,
			"source":0
		},
		{
			"sampler":0,
			"source":1
		},
		{
			"sampler":0,
			"source":2
		}
	],
	"images":[
		{
			"mimeType":"image/png",
			"name":"box",
			"uri":"box.png"
		},
		{
			"mimeType":"image/png",
			"name":"eye",
			"uri":"eye.png"
		},
		{
			"mimeType":"image/png",
			"name":"arm",
			"uri":"arm.png"
		}
	],
	"accessors":[
		{
			"bufferView":0,
			"componentType":5126,
			"count":12,
			"max":[
				1,
				2,
				1
			],
			"min":[
				-1,
				0,
				-1
			],
			"type":"VEC3"
		},
		{
			"bufferView":1,
			"componentType":5126,
			"count":12,
			"type":"VEC3"
		},
		{
			"bufferView":2,
			"componentType":5126,
			"count":12,
			"type":"VEC2"
		},
		{
			"bufferView":3,
			"componentType":5123,
			"count":18,
			"type":"SCALAR"
		},
		{
			"bufferView":4,
			"componentType":5126,
			"count":4,
			"max":[
				1,
				2,
				-1
			],
			"min":[
				-1,
				0,
				-1
			],
			"type":"VEC3"
		},
		{
			"bufferView":5,
			"componentType":5126,
			"count":4,
			"type":"VEC3"
		},
		{
			"bufferView":6,
			"componentType":5126,
			"count":4,
			"type":"VEC2"
		},
		{
			"bufferView":7,
			"componentType":5123,
			"count":6,
			"type":"SCALAR"
		},
		{
			"bufferView":8,
			"componentType":5126,
			"count":8,
			"max":[
				1,
				2,
				1
			],
			"min":[
				-1,
				0,
				-1
			],
			"type":"VEC3"
		},
		{
			"bufferView":9,
			"componentType":5126,
			"count":8,
			"type":"VEC3"
		},
		{
			"bufferView":10,
			"componentType":5126,
			"count":8,
			"type":"VEC2"
		},
		{
			"bufferView":11,
			"componentType":5123,
			"count":12,
			"type":"SCALAR"
		},
		{
			"bufferView":12,
			"componentType":5126,
			"count":920,
			"max":[
				5.773473262786865,
				0.25905755162239075,
				1.8435301780700684
			],
			"min":[
				-0.27431535720825195,
				-2.0451853275299072,
				-2.156398296356201
			],
			"type":"VEC3"
		},
		{
			"bufferView":13,
			"componentType":5126,
			"count":920,
			"type":"VEC3"
		},
		{
			"bufferView":14,
			"componentType":5126,
			"count":920,
			"type":"VEC2"
		},
		{
			"bufferView":15,
			"componentType":5123,
			"count":4596,
			"type":"SCALAR"
		},
		{
			"bufferView":16,
			"componentType":5126,
			"count":920,
			"max":[
				5.772938251495361,
				0.24365109205245972,
				2.2855074405670166
			],
			"min":[
				-0.2748279571533203,
				-2.060591697692871,
				-1.7144205570220947
			],
			"type":"VEC3"
		},
		{
			"bufferView":17,
			"componentType":5126,
			"count":920,
			"type":"VEC3"
		},
		{
			"bufferView":18,
			"componentType":5126,
			"count":920,
			"type":"VEC2"
		},
		{
			"bufferView":19,
			"componentType":5126,
			"count":24,
			"max":[
				1,
				1,
				1
			],
			"min":[
				-1,
				-1,
				-1
			],
			"type":"VEC3"
		},
		{
			"bufferView":20,
			"componentType":5126,
			"count":24,
			"type":"VEC3"
		},
		{
			"bufferView":21,
			"componentType":5126,
			"count":24,
			"type":"VEC2"
		},
		{
			"bufferView":22,
			"componentType":5123,
			"count":36,
			"type":"SCALAR"
		},
		{
			"bufferView":23,
			"componentType":5126,
			"count":2,
			"max":[
				0.75
			],
			"min":[
				0
			],
			"type":"SCALAR"
		},
		{
			"bufferView":24,
			"componentType":5126,
			"count":2,
			"type":"VEC3"
		},
		{
			"bufferView":25,
			"componentType":5126,
			"count":19,
			"max":[
				0.75
			],
			"min":[
				0
			],
			"type":"SCALAR"
		},
		{
			"bufferView":26,
			"componentType":5126,
			"count":19,
			"type":"VEC4"
		},
		{
			"bufferView":27,
			"componentType":5126,
			"count":2,
			"type":"VEC3"
		},
		{
			"bufferView":28,
			"componentType":5126,
			"count":2,
			"type":"VEC3"
		},
		{
			"bufferView":29,
			"componentType":5126,
			"count":19,
			"type":"VEC4"
		},
		{
			"bufferView":30,
			"componentType":5126,
			"count":2,
			"type":"VEC3"
		}
	],
	"bufferViews":[
		{
			"buffer":0,
			"byteLength":144,
			"byteOffset":0,
			"target":34962
		},
		{
			"buffer":0,
			"byteLength":144,
			"byteOffset":144,
			"target":34962
		},
		{
			"buffer":0,
			"byteLength":96,
			"byteOffset":288,
			"target":34962
		},
		{
			"buffer":0,
			"byteLength":36,
			"byteOffset":384,
			"target":34963
		},
		{
			"buffer":0,
			"byteLength":48,
			"byteOffset":420,
			"target":34962
		},
		{
			"buffer":0,
			"byteLength":48,
			"byteOffset":468,
			"target":34962
		},
		{
			"buffer":0,
			"byteLength":32,
			"byteOffset":516,
			"target":34962
		},
		{
			"buffer":0,
			"byteLength":12,
			"byteOffset":548,
			"target":34963
		},
		{
			"buffer":0,
			"byteLength":96,
			"byteOffset":560,
			"target":34962
		},
		{
			"buffer":0,
			"byteLength":96,
			"byteOffset":656,
			"target":34962
		},
		{
			"buffer":0,
			"byteLength":64,
			"byteOffset":752,
			"target":34962
		},
		{
			"buffer":0,
			"byteLength":24,
			"byteOffset":816,
			"target":34963
		},
		{
			"buffer":0,
			"byteLength":11040,
			"byteOffset":840,
			"target":34962
		},
		{
			"buffer":0,
			"byteLength":11040,
			"byteOffset":11880,
			"target":34962
		},
		{
			"buffer":0,
			"byteLength":7360,
			"byteOffset":22920,
			"target":34962
		},
		{
			"buffer":0,
			"byteLength":9192,
			"byteOffset":30280,
			"target":34963
		},
		{
			"buffer":0,
			"byteLength":11040,
			"byteOffset":39472,
			"target":34962
		},
		{
			"buffer":0,
			"byteLength":11040,
			"byteOffset":50512,
			"target":34962
		},
		{
			"buffer":0,
			"byteLength":7360,
			"byteOffset":61552,
			"target":34962
		},
		{
			"buffer":0,
			"byteLength":288,
			"byteOffset":68912,
			"target":34962
		},
		{
			"buffer":0,
			"byteLength":288,
			"byteOffset":69200,
			"target":34962
		},
		{
			"buffer":0,
			"byteLength":192,
			"byteOffset":69488,
			"target":34962
		},
		{
			"buffer":0,
			"byteLength":72,
			"byteOffset":69680,
			"target":34963
		},
		{
			"buffer":0,
			"byteLength":8,
			"byteOffset":69752
		},
		{
			"buffer":0,
			"byteLength":24,
			"byteOffset":69760
		},
		{
			"buffer":0,
			"byteLength":76,
			"byteOffset":69784
		},
		{
			"buffer":0,
			"byteLength":304,
			"byteOffset":69860
		},
		{
			"buffer":0,
			"byteLength":24,
			"byteOffset":70164
		},
		{
			"buffer":0,
			"byteLength":24,
			"byteOffset":70188
		},
		{
			"buffer":0,
			"byteLength":304,
			"byteOffset":70212
		},
		{
			"buffer":0,
			"byteLength":24,
			"byteOffset":70516
		}
	],
	"samplers":[
		{
			"magFilter":9729,
			"minFilter":9987
		}
	],
	"buffers":[
		{
			"byteLength":70540,
			"uri":"boxEnemy.bin"
		}
	]
}
