{
	"asset":{
		"generator":"Khronos glTF Blender I/O v4.1.62",
		"version":"2.0"
	},
	"extensionsUsed":[
		"KHR_materials_specular"
	],
	"scene":0,
	"scenes":[
		{
			"name":"Scene",
			"nodes":[
				24
			]
		}
	],
	"nodes":[
		{
			"name":"Face",
			"rotation":[
				0,
				1.1920927533992653e-07,
				0,
				1
			],
			"scale":[
				1,
				0.9999998807907104,
				1
			],
			"translation":[
				0,
				3.426608085632324,
				0
			]
		},
		{
			"name":"Finger1.R",
			"rotation":[
				0.04745783284306526,
				3.494123046454689e-10,
				-0.00014312936400528997,
				0.998873233795166
			],
			"scale":[
				0.9999999403953552,
				0.9999998807907104,
				0.9999998807907104
			],
			"translation":[
				0.001057057874277234,
				0.8593759536743164,
				0.35060012340545654
			]
		},
		{
			"name":"Finger2.R",
			"rotation":[
				0.04745784029364586,
				3.503228263035396e-10,
				-0.00014312940766103566,
				0.998873233795166
			],
			"scale":[
				0.9999999403953552,
				0.9999998807907104,
				0.9999998807907104
			],
			"translation":[
				8.959171827882528e-05,
				0.904373288154602,
				0.029827453196048737
			]
		},
		{
			"name":"Finger3.R",
			"rotation":[
				0.047457825392484665,
				3.523714930953048e-10,
				-0.00014312939310912043,
				0.998873233795166
			],
			"scale":[
				0.9999999403953552,
				0.9999999403953552,
				0.9999998807907104
			],
			"translation":[
				-0.0009164285147562623,
				0.9289169311523438,
				-0.30372822284698486
			]
		},
		{
			"name":"Finger4.R",
			"rotation":[
				0.04745778068900108,
				3.551030580695169e-10,
				-0.0001431293203495443,
				0.998873233795166
			],
			"scale":[
				0.9999999403953552,
				0.9999998807907104,
				0.9999998807907104
			],
			"translation":[
				-0.002183075761422515,
				0.6908078789710999,
				-0.7236983180046082
			]
		},
		{
			"children":[
				1,
				2,
				3,
				4
			],
			"name":"Hand.R",
			"rotation":[
				0.0012839658884331584,
				-7.725640170974657e-05,
				-0.053423307836055756,
				0.9985711574554443
			],
			"scale":[
				0.9999998807907104,
				0.9999999403953552,
				0.9999999403953552
			],
			"translation":[
				-3.350432962179184e-07,
				1.2281179428100586,
				-7.450580596923828e-09
			]
		},
		{
			"children":[
				5
			],
			"name":"LowerArm.R",
			"rotation":[
				-0.04856252297759056,
				0.00444731255993247,
				-0.01506487000733614,
				0.9986966848373413
			],
			"scale":[
				1,
				0.9999999403953552,
				1.0000001192092896
			],
			"translation":[
				-3.0931488481655833e-07,
				2.319941282272339,
				-1.1162086366311996e-08
			]
		},
		{
			"children":[
				6
			],
			"name":"UpperArm.R",
			"rotation":[
				-2.0914458787046897e-07,
				1.7373234584283637e-07,
				0.7539141178131104,
				0.6569730043411255
			],
			"translation":[
				-1.083449125289917,
				2.70721435546875,
				-0.2533344328403473
			]
		},
		{
			"name":"Finger1.L",
			"rotation":[
				-0.020196886733174324,
				5.804896840988505e-11,
				-6.091731847845949e-05,
				0.9997960329055786
			],
			"scale":[
				0.9999999403953552,
				0.9999998807907104,
				1
			],
			"translation":[
				-0.0013352315872907639,
				0.8972274661064148,
				0.4430857002735138
			]
		},
		{
			"name":"Finger2.L",
			"rotation":[
				-0.020196884870529175,
				4.7871921704523146e-11,
				-6.091781324357726e-05,
				0.9997960329055786
			],
			"scale":[
				0.9999999403953552,
				0.9999998807907104,
				1
			],
			"translation":[
				0.07720978558063507,
				0.8978317975997925,
				0.10216458141803741
			]
		},
		{
			"name":"Finger3.L",
			"rotation":[
				-0.02019689604640007,
				4.3835216706478164e-11,
				-6.091804607422091e-05,
				0.9997960329055786
			],
			"scale":[
				0.9999999403953552,
				1,
				1.0000001192092896
			],
			"translation":[
				0.08654824644327164,
				0.8773173093795776,
				-0.22731620073318481
			]
		},
		{
			"name":"Finger4.L",
			"rotation":[
				-0.02019689418375492,
				2.2628295071047688e-11,
				-6.091909381211735e-05,
				0.9997960329055786
			],
			"scale":[
				0.9999999403953552,
				0.9999998807907104,
				1.0000001192092896
			],
			"translation":[
				0.09026427567005157,
				0.5935693979263306,
				-0.6064465045928955
			]
		},
		{
			"children":[
				8,
				9,
				10,
				11
			],
			"name":"Hand.L",
			"rotation":[
				0.07522176951169968,
				0.0033783011604100466,
				0.05341782420873642,
				0.9957293272018433
			],
			"scale":[
				0.9999999403953552,
				1,
				0.9999998211860657
			],
			"translation":[
				2.60770320892334e-08,
				1.085033893585205,
				5.587935447692871e-08
			]
		},
		{
			"children":[
				12
			],
			"name":"LowerArm.L",
			"rotation":[
				-0.05507466569542885,
				-0.0034375854302197695,
				-0.005583347752690315,
				0.9984607696533203
			],
			"scale":[
				0.9999999403953552,
				1,
				0.9999999403953552
			],
			"translation":[
				-2.852921454632451e-07,
				2.1461496353149414,
				2.854577019206772e-09
			]
		},
		{
			"children":[
				13
			],
			"name":"UpperArm.L",
			"rotation":[
				-1.602072927653353e-07,
				-1.361847807856975e-07,
				-0.740117073059082,
				0.6724781394004822
			],
			"scale":[
				0.9999999403953552,
				0.9999999403953552,
				1
			],
			"translation":[
				1.083449125289917,
				2.6196889877319336,
				-0.2533344328403473
			]
		},
		{
			"children":[
				0,
				7,
				14
			],
			"name":"Body",
			"translation":[
				0,
				0.9999995231628418,
				0
			]
		},
		{
			"name":"Foot.R",
			"rotation":[
				9.296345637732628e-11,
				-2.0453946092402475e-08,
				0.00025198806542903185,
				1
			],
			"scale":[
				1.0000001192092896,
				1.0000001192092896,
				1
			],
			"translation":[
				5.0698979237040476e-08,
				1.892183542251587,
				-1.1352030426792226e-14
			]
		},
		{
			"children":[
				16
			],
			"name":"LowerLeg.R",
			"rotation":[
				-7.421974856924862e-08,
				1.6841481453866436e-07,
				0.0014675462152808905,
				0.999998927116394
			],
			"scale":[
				0.9999998807907104,
				1,
				1
			],
			"translation":[
				5.49482379597066e-08,
				1.6041834354400635,
				-1.7053025658242404e-13
			]
		},
		{
			"children":[
				17
			],
			"name":"UpperLeg.R",
			"rotation":[
				3.4268359172529017e-07,
				7.438913485202647e-08,
				0.9999985098838806,
				0.0017195339314639568
			],
			"scale":[
				1.0000001192092896,
				0.9999998807907104,
				1
			],
			"translation":[
				-0.802497386932373,
				0.8819022178649902,
				6.202171931590783e-08
			]
		},
		{
			"name":"Foot.L",
			"rotation":[
				9.296345637732628e-11,
				2.0453946092402475e-08,
				-0.00025198806542903185,
				1
			],
			"scale":[
				1.0000001192092896,
				1.0000001192092896,
				1
			],
			"translation":[
				-5.0698979237040476e-08,
				1.892183542251587,
				-1.1352030426792226e-14
			]
		},
		{
			"children":[
				19
			],
			"name":"LowerLeg.L",
			"rotation":[
				-7.421974856924862e-08,
				-1.6841481453866436e-07,
				-0.0014675462152808905,
				0.999998927116394
			],
			"scale":[
				0.9999998807907104,
				1,
				1
			],
			"translation":[
				-5.49482379597066e-08,
				1.6041834354400635,
				-1.7053025658242404e-13
			]
		},
		{
			"children":[
				20
			],
			"name":"UpperLeg.L",
			"rotation":[
				3.4268359172529017e-07,
				-7.438913485202647e-08,
				-0.9999985098838806,
				0.0017195339314639568
			],
			"scale":[
				1.0000001192092896,
				0.9999998807907104,
				1
			],
			"translation":[
				0.802497386932373,
				0.8819022178649902,
				6.202171931590783e-08
			]
		},
		{
			"children":[
				15,
				18,
				21
			],
			"name":"Hip",
			"translation":[
				0,
				4.0359086990356445,
				0
			]
		},
		{
			"mesh":0,
			"name":"Character",
			"skin":0
		},
		{
			"children":[
				23,
				22
			],
			"name":"\u30a2\u30fc\u30de\u30c1\u30e5\u30a2",
			"scale":[
				0.14370988309383392,
				0.14370988309383392,
				0.14370988309383392
			]
		}
	],
	"materials":[
		{
			"alphaMode":"BLEND",
			"doubleSided":true,
			"extensions":{
				"KHR_materials_specular":{
					"specularFactor":0
				}
			},
			"name":"Char",
			"pbrMetallicRoughness":{
				"baseColorTexture":{
					"index":0
				},
				"metallicFactor":0,
				"roughnessFactor":0.690034806728363
			}
		}
	],
	"meshes":[
		{
			"name":"Character",
			"primitives":[
				{
					"attributes":{
						"POSITION":0,
						"NORMAL":1,
						"TEXCOORD_0":2,
						"JOINTS_0":3,
						"WEIGHTS_0":4
					},
					"indices":5,
					"material":0
				}
			]
		}
	],
	"textures":[
		{
			"sampler":0,
			"source":0
		}
	],
	"images":[
		{
			"mimeType":"image/png",
			"name":"Color_Palet.png",
			"uri":"Color_Palet_png.png"
		}
	],
	"skins":[
		{
			"inverseBindMatrices":6,
			"joints":[
				22,
				15,
				0,
				7,
				6,
				5,
				1,
				2,
				3,
				4,
				14,
				13,
				12,
				8,
				9,
				10,
				11,
				18,
				17,
				16,
				21,
				20,
				19
			],
			"name":"\u30a2\u30fc\u30de\u30c1\u30e5\u30a2"
		}
	],
	"accessors":[
		{
			"bufferView":0,
			"componentType":5126,
			"count":2847,
			"max":[
				0.8852295279502869,
				1.9699056148529053,
				0.3170940577983856
			],
			"min":[
				-0.93342125415802,
				-0.009435946121811867,
				-0.31709396839141846
			],
			"type":"VEC3"
		},
		{
			"bufferView":1,
			"componentType":5126,
			"count":2847,
			"type":"VEC3"
		},
		{
			"bufferView":2,
			"componentType":5126,
			"count":2847,
			"type":"VEC2"
		},
		{
			"bufferView":3,
			"componentType":5121,
			"count":2847,
			"type":"VEC4"
		},
		{
			"bufferView":4,
			"componentType":5126,
			"count":2847,
			"type":"VEC4"
		},
		{
			"bufferView":5,
			"componentType":5123,
			"count":8862,
			"type":"SCALAR"
		},
		{
			"bufferView":6,
			"componentType":5126,
			"count":23,
			"type":"MAT4"
		}
	],
	"bufferViews":[
		{
			"buffer":0,
			"byteLength":34164,
			"byteOffset":0,
			"target":34962
		},
		{
			"buffer":0,
			"byteLength":34164,
			"byteOffset":34164,
			"target":34962
		},
		{
			"buffer":0,
			"byteLength":22776,
			"byteOffset":68328,
			"target":34962
		},
		{
			"buffer":0,
			"byteLength":11388,
			"byteOffset":91104,
			"target":34962
		},
		{
			"buffer":0,
			"byteLength":45552,
			"byteOffset":102492,
			"target":34962
		},
		{
			"buffer":0,
			"byteLength":17724,
			"byteOffset":148044,
			"target":34963
		},
		{
			"buffer":0,
			"byteLength":1472,
			"byteOffset":165768
		}
	],
	"samplers":[
		{
			"magFilter":9729,
			"minFilter":9987
		}
	],
	"buffers":[
		{
			"byteLength":167240,
			"uri":"player.bin"
		}
	]
}
