{
	"asset":{
		"generator":"Khronos glTF Blender I/O v4.1.62",
		"version":"2.0"
	},
	"extensionsUsed":[
		"KHR_materials_emissive_strength"
	],
	"scene":0,
	"scenes":[
		{
			"name":"Scene",
			"nodes":[
				0,
				1,
				2,
				3,
				4,
				5,
				6,
				7,
				8,
				9,
				10,
				11
			]
		}
	],
	"nodes":[
		{
			"mesh":0,
			"name":"Text.001",
			"rotation":[
				0.5,
				0.5,
				-0.5,
				0.4999999701976776
			],
			"translation":[
				1.446093201637268,
				1.3840374946594238,
				0.2414732575416565
			]
		},
		{
			"mesh":1,
			"name":"Sphere.001",
			"rotation":[
				-0.21502816677093506,
				0,
				0,
				0.9766078591346741
			],
			"translation":[
				-0.18868303298950195,
				6.9185028076171875,
				-1.878119945526123
			]
		},
		{
			"mesh":2,
			"name":"Sphere",
			"rotation":[
				0.24954158067703247,
				0,
				0,
				0.9683641791343689
			],
			"translation":[
				-0.18868303298950195,
				6.9185028076171875,
				1.7895293235778809
			]
		},
		{
			"mesh":3,
			"name":"Plane.001",
			"rotation":[
				0.4999999403953552,
				0.4999999403953552,
				-0.5000001192092896,
				0.5000000596046448
			],
			"scale":[
				0.7032246589660645,
				0.7032246589660645,
				0.7032246589660645
			],
			"translation":[
				1.648389220237732,
				3.604198455810547,
				0
			]
		},
		{
			"mesh":4,
			"name":"Plane",
			"rotation":[
				-0.5000000596046448,
				-0.5,
				-0.4999999403953552,
				0.5
			],
			"scale":[
				0.7032246589660645,
				0.7032246589660645,
				0.7032246589660645
			],
			"translation":[
				1.5073941946029663,
				3.604198455810547,
				0
			]
		},
		{
			"mesh":5,
			"name":"Cylinder.005",
			"scale":[
				0.22936534881591797,
				0.6303814053535461,
				0.22936534881591797
			],
			"translation":[
				0,
				6.90993595123291,
				0
			]
		},
		{
			"mesh":6,
			"name":"Cylinder.004",
			"rotation":[
				0.14268548786640167,
				0.6925610899925232,
				0.14268545806407928,
				0.6925610899925232
			],
			"scale":[
				0.16865363717079163,
				0.5608300566673279,
				0.16865365207195282
			],
			"translation":[
				0.03332996368408203,
				0.9543468356132507,
				-1.8394663333892822
			]
		},
		{
			"mesh":7,
			"name":"Cylinder.003",
			"rotation":[
				-0.15075074136257172,
				0.6908503770828247,
				-0.1507507711648941,
				0.6908503174781799
			],
			"scale":[
				0.16865365207195282,
				0.5608300566673279,
				0.16865365207195282
			],
			"translation":[
				0.03332996368408203,
				0.9543468356132507,
				1.715846300125122
			]
		},
		{
			"mesh":8,
			"name":"Cylinder.002",
			"rotation":[
				0.2732017934322357,
				0,
				0,
				0.9619568586349487
			],
			"scale":[
				-0.15877068042755127,
				-0.7972455024719238,
				-0.15877069532871246
			],
			"translation":[
				0,
				6.597095489501953,
				1.6234763860702515
			]
		},
		{
			"mesh":9,
			"name":"Cylinder.001",
			"rotation":[
				0,
				0,
				-0.7071068286895752,
				0.7071068286895752
			],
			"scale":[
				0.14010846614837646,
				0.8988587260246277,
				0.14010846614837646
			],
			"translation":[
				0.9034932851791382,
				3.6280858516693115,
				-0.01314648985862732
			]
		},
		{
			"mesh":10,
			"name":"Cylinder",
			"rotation":[
				0,
				0,
				-0.7071068286895752,
				0.7071068286895752
			],
			"scale":[
				3.267364501953125,
				1.5618436336517334,
				3.267364501953125
			],
			"translation":[
				0,
				3.7691292762756348,
				0
			]
		},
		{
			"mesh":11,
			"name":"COL",
			"scale":[
				1.7000000476837158,
				3.799999952316284,
				3.200000047683716
			],
			"translation":[
				0,
				3.799999952316284,
				0
			]
		}
	],
	"materials":[
		{
			"doubleSided":true,
			"name":"\u30de\u30c6\u30ea\u30a2\u30eb.002",
			"pbrMetallicRoughness":{
				"baseColorFactor":[
					0,
					0,
					0,
					1
				],
				"metallicFactor":0,
				"roughnessFactor":0.5
			}
		},
		{
			"doubleSided":true,
			"name":"\u30de\u30c6\u30ea\u30a2\u30eb.004",
			"pbrMetallicRoughness":{
				"baseColorFactor":[
					0.07481468468904495,
					0.07481468468904495,
					0.07481468468904495,
					1
				],
				"metallicFactor":0,
				"roughnessFactor":0.5
			}
		},
		{
			"doubleSided":true,
			"emissiveFactor":[
				0.5221716592754431,
				1,
				0.5352898208537858
			],
			"extensions":{
				"KHR_materials_emissive_strength":{
					"emissiveStrength":2.400000214576721
				}
			},
			"name":"Material.001",
			"pbrMetallicRoughness":{
				"baseColorFactor":[
					0,
					0,
					0,
					1
				]
			}
		},
		{
			"doubleSided":true,
			"name":"\u30de\u30c6\u30ea\u30a2\u30eb",
			"pbrMetallicRoughness":{
				"baseColorFactor":[
					0.013028772547841072,
					0.04186426103115082,
					0.8002356290817261,
					1
				],
				"metallicFactor":0,
				"roughnessFactor":0.5
			}
		},
		{
			"doubleSided":true,
			"name":"\u30de\u30c6\u30ea\u30a2\u30eb.001",
			"pbrMetallicRoughness":{
				"baseColorFactor":[
					0.800000011920929,
					0.800000011920929,
					0.800000011920929,
					1
				],
				"metallicFactor":0,
				"roughnessFactor":0.5
			}
		}
	],
	"meshes":[
		{
			"name":"Mesh.002",
			"primitives":[
				{
					"attributes":{
						"POSITION":0,
						"NORMAL":1
					},
					"indices":2,
					"material":0
				}
			]
		},
		{
			"name":"Sphere.001",
			"primitives":[
				{
					"attributes":{
						"POSITION":3,
						"NORMAL":4
					},
					"indices":5,
					"material":1
				}
			]
		},
		{
			"name":"Sphere",
			"primitives":[
				{
					"attributes":{
						"POSITION":6,
						"NORMAL":7
					},
					"indices":5,
					"material":1
				}
			]
		},
		{
			"name":"Plane.001",
			"primitives":[
				{
					"attributes":{
						"POSITION":8,
						"NORMAL":9
					},
					"indices":10,
					"material":2
				}
			]
		},
		{
			"name":"Plane",
			"primitives":[
				{
					"attributes":{
						"POSITION":11,
						"NORMAL":12
					},
					"indices":10,
					"material":2
				}
			]
		},
		{
			"name":"Cylinder.006",
			"primitives":[
				{
					"attributes":{
						"POSITION":13,
						"NORMAL":14
					},
					"indices":15,
					"material":1
				}
			]
		},
		{
			"name":"Cylinder.005",
			"primitives":[
				{
					"attributes":{
						"POSITION":16,
						"NORMAL":17
					},
					"indices":18,
					"material":1
				}
			]
		},
		{
			"name":"Cylinder.004",
			"primitives":[
				{
					"attributes":{
						"POSITION":19,
						"NORMAL":20
					},
					"indices":18,
					"material":1
				}
			]
		},
		{
			"name":"Cylinder.002",
			"primitives":[
				{
					"attributes":{
						"POSITION":21,
						"NORMAL":22
					},
					"indices":23
				}
			]
		},
		{
			"name":"Cylinder.001",
			"primitives":[
				{
					"attributes":{
						"POSITION":24,
						"NORMAL":25
					},
					"indices":26,
					"material":0
				}
			]
		},
		{
			"name":"Cylinder",
			"primitives":[
				{
					"attributes":{
						"POSITION":27,
						"NORMAL":28
					},
					"indices":29,
					"material":3
				},
				{
					"attributes":{
						"POSITION":30,
						"NORMAL":31
					},
					"indices":32,
					"material":4
				}
			]
		},
		{
			"name":"\u7acb\u65b9\u4f53.001",
			"primitives":[
				{
					"attributes":{
						"POSITION":33,
						"NORMAL":34,
						"TEXCOORD_0":35
					},
					"indices":36
				}
			]
		}
	],
	"accessors":[
		{
			"bufferView":0,
			"componentType":5126,
			"count":5782,
			"max":[
				2.5043559074401855,
				0.12999999523162842,
				0.04908899590373039
			],
			"min":[
				-1.9010854959487915,
				-0.13173480331897736,
				-4.6264519691467285
			],
			"type":"VEC3"
		},
		{
			"bufferView":1,
			"componentType":5126,
			"count":5782,
			"type":"VEC3"
		},
		{
			"bufferView":2,
			"componentType":5123,
			"count":23106,
			"type":"SCALAR"
		},
		{
			"bufferView":3,
			"componentType":5126,
			"count":2048,
			"max":[
				1.000000238418579,
				1,
				1.0000003576278687
			],
			"min":[
				-0.9999998211860657,
				5.960464477539063e-08,
				-0.9999991655349731
			],
			"type":"VEC3"
		},
		{
			"bufferView":4,
			"componentType":5126,
			"count":2048,
			"type":"VEC3"
		},
		{
			"bufferView":5,
			"componentType":5123,
			"count":3072,
			"type":"SCALAR"
		},
		{
			"bufferView":6,
			"componentType":5126,
			"count":2048,
			"max":[
				1.000000238418579,
				1,
				1.0000003576278687
			],
			"min":[
				-0.9999998211860657,
				5.960464477539063e-08,
				-0.9999991655349731
			],
			"type":"VEC3"
		},
		{
			"bufferView":7,
			"componentType":5126,
			"count":2048,
			"type":"VEC3"
		},
		{
			"bufferView":8,
			"componentType":5126,
			"count":116,
			"max":[
				0.4539358615875244,
				0.05528593808412552,
				0.4539358615875244
			],
			"min":[
				-0.4539358615875244,
				-0.011250260286033154,
				-2.2686939239501953
			],
			"type":"VEC3"
		},
		{
			"bufferView":9,
			"componentType":5126,
			"count":116,
			"type":"VEC3"
		},
		{
			"bufferView":10,
			"componentType":5123,
			"count":252,
			"type":"SCALAR"
		},
		{
			"bufferView":11,
			"componentType":5126,
			"count":116,
			"max":[
				0.4539358615875244,
				0.05528593063354492,
				0.4539358615875244
			],
			"min":[
				-0.4539358615875244,
				-0.011250268667936325,
				-2.069377899169922
			],
			"type":"VEC3"
		},
		{
			"bufferView":12,
			"componentType":5126,
			"count":116,
			"type":"VEC3"
		},
		{
			"bufferView":13,
			"componentType":5126,
			"count":4352,
			"max":[
				1,
				1.359426736831665,
				4.121024131774902
			],
			"min":[
				-1,
				-1,
				-4.042257308959961
			],
			"type":"VEC3"
		},
		{
			"bufferView":14,
			"componentType":5126,
			"count":4352,
			"type":"VEC3"
		},
		{
			"bufferView":15,
			"componentType":5123,
			"count":6504,
			"type":"SCALAR"
		},
		{
			"bufferView":16,
			"componentType":5126,
			"count":1472,
			"max":[
				1,
				1,
				6.939666271209717
			],
			"min":[
				-1,
				-1.6485015153884888,
				-6.939666271209717
			],
			"type":"VEC3"
		},
		{
			"bufferView":17,
			"componentType":5126,
			"count":1472,
			"type":"VEC3"
		},
		{
			"bufferView":18,
			"componentType":5123,
			"count":2676,
			"type":"SCALAR"
		},
		{
			"bufferView":19,
			"componentType":5126,
			"count":1472,
			"max":[
				1,
				1,
				6.939666271209717
			],
			"min":[
				-1,
				-1.6485015153884888,
				-6.939666271209717
			],
			"type":"VEC3"
		},
		{
			"bufferView":20,
			"componentType":5126,
			"count":1472,
			"type":"VEC3"
		},
		{
			"bufferView":21,
			"componentType":5126,
			"count":384,
			"max":[
				1,
				2.876051425933838,
				22.641212463378906
			],
			"min":[
				-1,
				-1,
				-1
			],
			"type":"VEC3"
		},
		{
			"bufferView":22,
			"componentType":5126,
			"count":384,
			"type":"VEC3"
		},
		{
			"bufferView":23,
			"componentType":5123,
			"count":744,
			"type":"SCALAR"
		},
		{
			"bufferView":24,
			"componentType":5126,
			"count":256,
			"max":[
				1,
				1,
				1
			],
			"min":[
				-1,
				-1,
				-1
			],
			"type":"VEC3"
		},
		{
			"bufferView":25,
			"componentType":5126,
			"count":256,
			"type":"VEC3"
		},
		{
			"bufferView":26,
			"componentType":5123,
			"count":564,
			"type":"SCALAR"
		},
		{
			"bufferView":27,
			"componentType":5126,
			"count":448,
			"max":[
				1,
				1,
				1
			],
			"min":[
				-1,
				-1,
				-1
			],
			"type":"VEC3"
		},
		{
			"bufferView":28,
			"componentType":5126,
			"count":448,
			"type":"VEC3"
		},
		{
			"bufferView":29,
			"componentType":5123,
			"count":948,
			"type":"SCALAR"
		},
		{
			"bufferView":30,
			"componentType":5126,
			"count":32,
			"max":[
				0.8625261783599854,
				0.8393126726150513,
				0.8625260591506958
			],
			"min":[
				-0.8625261783599854,
				0.8393126726150513,
				-0.8625262379646301
			],
			"type":"VEC3"
		},
		{
			"bufferView":31,
			"componentType":5126,
			"count":32,
			"type":"VEC3"
		},
		{
			"bufferView":32,
			"componentType":5123,
			"count":90,
			"type":"SCALAR"
		},
		{
			"bufferView":33,
			"componentType":5126,
			"count":24,
			"max":[
				1,
				1,
				1
			],
			"min":[
				-1,
				-1,
				-1
			],
			"type":"VEC3"
		},
		{
			"bufferView":34,
			"componentType":5126,
			"count":24,
			"type":"VEC3"
		},
		{
			"bufferView":35,
			"componentType":5126,
			"count":24,
			"type":"VEC2"
		},
		{
			"bufferView":36,
			"componentType":5123,
			"count":36,
			"type":"SCALAR"
		}
	],
	"bufferViews":[
		{
			"buffer":0,
			"byteLength":69384,
			"byteOffset":0,
			"target":34962
		},
		{
			"buffer":0,
			"byteLength":69384,
			"byteOffset":69384,
			"target":34962
		},
		{
			"buffer":0,
			"byteLength":46212,
			"byteOffset":138768,
			"target":34963
		},
		{
			"buffer":0,
			"byteLength":24576,
			"byteOffset":184980,
			"target":34962
		},
		{
			"buffer":0,
			"byteLength":24576,
			"byteOffset":209556,
			"target":34962
		},
		{
			"buffer":0,
			"byteLength":6144,
			"byteOffset":234132,
			"target":34963
		},
		{
			"buffer":0,
			"byteLength":24576,
			"byteOffset":240276,
			"target":34962
		},
		{
			"buffer":0,
			"byteLength":24576,
			"byteOffset":264852,
			"target":34962
		},
		{
			"buffer":0,
			"byteLength":1392,
			"byteOffset":289428,
			"target":34962
		},
		{
			"buffer":0,
			"byteLength":1392,
			"byteOffset":290820,
			"target":34962
		},
		{
			"buffer":0,
			"byteLength":504,
			"byteOffset":292212,
			"target":34963
		},
		{
			"buffer":0,
			"byteLength":1392,
			"byteOffset":292716,
			"target":34962
		},
		{
			"buffer":0,
			"byteLength":1392,
			"byteOffset":294108,
			"target":34962
		},
		{
			"buffer":0,
			"byteLength":52224,
			"byteOffset":295500,
			"target":34962
		},
		{
			"buffer":0,
			"byteLength":52224,
			"byteOffset":347724,
			"target":34962
		},
		{
			"buffer":0,
			"byteLength":13008,
			"byteOffset":399948,
			"target":34963
		},
		{
			"buffer":0,
			"byteLength":17664,
			"byteOffset":412956,
			"target":34962
		},
		{
			"buffer":0,
			"byteLength":17664,
			"byteOffset":430620,
			"target":34962
		},
		{
			"buffer":0,
			"byteLength":5352,
			"byteOffset":448284,
			"target":34963
		},
		{
			"buffer":0,
			"byteLength":17664,
			"byteOffset":453636,
			"target":34962
		},
		{
			"buffer":0,
			"byteLength":17664,
			"byteOffset":471300,
			"target":34962
		},
		{
			"buffer":0,
			"byteLength":4608,
			"byteOffset":488964,
			"target":34962
		},
		{
			"buffer":0,
			"byteLength":4608,
			"byteOffset":493572,
			"target":34962
		},
		{
			"buffer":0,
			"byteLength":1488,
			"byteOffset":498180,
			"target":34963
		},
		{
			"buffer":0,
			"byteLength":3072,
			"byteOffset":499668,
			"target":34962
		},
		{
			"buffer":0,
			"byteLength":3072,
			"byteOffset":502740,
			"target":34962
		},
		{
			"buffer":0,
			"byteLength":1128,
			"byteOffset":505812,
			"target":34963
		},
		{
			"buffer":0,
			"byteLength":5376,
			"byteOffset":506940,
			"target":34962
		},
		{
			"buffer":0,
			"byteLength":5376,
			"byteOffset":512316,
			"target":34962
		},
		{
			"buffer":0,
			"byteLength":1896,
			"byteOffset":517692,
			"target":34963
		},
		{
			"buffer":0,
			"byteLength":384,
			"byteOffset":519588,
			"target":34962
		},
		{
			"buffer":0,
			"byteLength":384,
			"byteOffset":519972,
			"target":34962
		},
		{
			"buffer":0,
			"byteLength":180,
			"byteOffset":520356,
			"target":34963
		},
		{
			"buffer":0,
			"byteLength":288,
			"byteOffset":520536,
			"target":34962
		},
		{
			"buffer":0,
			"byteLength":288,
			"byteOffset":520824,
			"target":34962
		},
		{
			"buffer":0,
			"byteLength":192,
			"byteOffset":521112,
			"target":34962
		},
		{
			"buffer":0,
			"byteLength":72,
			"byteOffset":521304,
			"target":34963
		}
	],
	"buffers":[
		{
			"byteLength":521376,
			"uri":"clock.bin"
		}
	]
}
