{
	"asset":{
		"generator":"Khronos glTF Blender I/O v4.1.62",
		"version":"2.0"
	},
	"scene":0,
	"scenes":[
		{
			"name":"Scene",
			"nodes":[
				0
			]
		}
	],
	"nodes":[
		{
			"mesh":0,
			"name":"ICO\u7403",
			"scale":[
				0.25,
				0.25,
				0.25
			]
		}
	],
	"meshes":[
		{
			"name":"ICO\u7403.001",
			"primitives":[
				{
					"attributes":{
						"POSITION":0,
						"NORMAL":1,
						"TEXCOORD_0":2
					},
					"indices":3
				}
			]
		}
	],
	"accessors":[
		{
			"bufferView":0,
			"componentType":5126,
			"count":4769,
			"max":[
				1.0033862590789795,
				0.9347925782203674,
				0.8929650187492371
			],
			"min":[
				-0.936966598033905,
				-0.9357666373252869,
				-0.9921150803565979
			],
			"type":"VEC3"
		},
		{
			"bufferView":1,
			"componentType":5126,
			"count":4769,
			"type":"VEC3"
		},
		{
			"bufferView":2,
			"componentType":5126,
			"count":4769,
			"type":"VEC2"
		},
		{
			"bufferView":3,
			"componentType":5123,
			"count":23040,
			"type":"SCALAR"
		}
	],
	"bufferViews":[
		{
			"buffer":0,
			"byteLength":57228,
			"byteOffset":0,
			"target":34962
		},
		{
			"buffer":0,
			"byteLength":57228,
			"byteOffset":57228,
			"target":34962
		},
		{
			"buffer":0,
			"byteLength":38152,
			"byteOffset":114456,
			"target":34962
		},
		{
			"buffer":0,
			"byteLength":46080,
			"byteOffset":152608,
			"target":34963
		}
	],
	"buffers":[
		{
			"byteLength":198688,
			"uri":"smoke2.bin"
		}
	]
}
