{
	"asset":{
		"generator":"Khronos glTF Blender I/O v4.1.62",
		"version":"2.0"
	},
	"scene":0,
	"scenes":[
		{
			"name":"Scene",
			"nodes":[
				0,
				1,
				2,
				3,
				4,
				5,
				6,
				7
			]
		}
	],
	"nodes":[
		{
			"mesh":0,
			"name":"\u7acb\u65b9\u4f53.003",
			"scale":[
				0.03999999910593033,
				0.800000011920929,
				0.11999999731779099
			],
			"translation":[
				1.0538301467895508,
				2.581885814666748,
				0
			]
		},
		{
			"mesh":1,
			"name":"\u7acb\u65b9\u4f53.002",
			"scale":[
				0.03999999910593033,
				1.2000000476837158,
				0.07999999821186066
			],
			"translation":[
				1.1505392789840698,
				3.7630531787872314,
				0
			]
		},
		{
			"mesh":2,
			"name":"\u5186\u67f1.004",
			"rotation":[
				0,
				0,
				-0.7071068286895752,
				0.7071068286895752
			],
			"scale":[
				0.05999999865889549,
				0.4000000059604645,
				0.05999999865889549
			],
			"translation":[
				0.8683390617370605,
				3.2181642055511475,
				0
			]
		},
		{
			"mesh":3,
			"name":"\u5186\u67f1.001",
			"rotation":[
				0,
				0,
				-0.7071068286895752,
				0.7071068286895752
			],
			"scale":[
				3.200000047683716,
				0.004000000189989805,
				3.200000047683716
			],
			"translation":[
				0.9307714700698853,
				3.2181642055511475,
				0
			]
		},
		{
			"mesh":4,
			"name":"\u30c6\u30ad\u30b9\u30c8.003",
			"rotation":[
				0.5,
				0.5,
				-0.5,
				0.5
			],
			"scale":[
				2,
				2,
				2
			],
			"translation":[
				1.0068154335021973,
				2.6181640625,
				2.9855377674102783
			]
		},
		{
			"mesh":5,
			"name":"\u30c6\u30ad\u30b9\u30c8.002",
			"rotation":[
				0.5,
				0.5,
				-0.5,
				0.5
			],
			"scale":[
				2,
				2,
				2
			],
			"translation":[
				1.0068154335021973,
				0.1839916706085205,
				0.588899552822113
			]
		},
		{
			"mesh":6,
			"name":"\u30c6\u30ad\u30b9\u30c8.001",
			"rotation":[
				0.5,
				0.5,
				-0.5,
				0.5
			],
			"scale":[
				2,
				2,
				2
			],
			"translation":[
				1.0068154335021973,
				2.6181640625,
				-2.058248281478882
			]
		},
		{
			"mesh":7,
			"name":"\u30c6\u30ad\u30b9\u30c8",
			"rotation":[
				0.5,
				0.5,
				-0.5,
				0.5
			],
			"scale":[
				2,
				2,
				2
			],
			"translation":[
				1.0068154335021973,
				4.574516296386719,
				0.9607316851615906
			]
		}
	],
	"materials":[
		{
			"doubleSided":true,
			"name":"\u30de\u30c6\u30ea\u30a2\u30eb",
			"pbrMetallicRoughness":{
				"baseColorFactor":[
					0,
					0,
					0,
					1
				],
				"metallicFactor":0,
				"roughnessFactor":0.5
			}
		},
		{
			"doubleSided":true,
			"name":"\u30de\u30c6\u30ea\u30a2\u30eb.001",
			"pbrMetallicRoughness":{
				"baseColorFactor":[
					0,
					0,
					0,
					1
				],
				"metallicFactor":0,
				"roughnessFactor":0.5
			}
		},
		{
			"doubleSided":true,
			"name":"\u30de\u30c6\u30ea\u30a2\u30eb.006",
			"pbrMetallicRoughness":{
				"baseColorFactor":[
					0.4499104619026184,
					0.4499104619026184,
					0.4499104619026184,
					1
				],
				"metallicFactor":0,
				"roughnessFactor":0.5
			}
		},
		{
			"doubleSided":true,
			"name":"Material.001",
			"pbrMetallicRoughness":{
				"baseColorFactor":[
					0.800000011920929,
					0.800000011920929,
					0.800000011920929,
					1
				],
				"metallicFactor":0,
				"roughnessFactor":0.5
			}
		},
		{
			"doubleSided":true,
			"name":"\u30de\u30c6\u30ea\u30a2\u30eb.004",
			"pbrMetallicRoughness":{
				"baseColorFactor":[
					0,
					0,
					0,
					1
				],
				"metallicFactor":0,
				"roughnessFactor":0.5
			}
		},
		{
			"doubleSided":true,
			"name":"\u30de\u30c6\u30ea\u30a2\u30eb.003",
			"pbrMetallicRoughness":{
				"baseColorFactor":[
					0,
					0,
					0,
					1
				],
				"metallicFactor":0,
				"roughnessFactor":0.5
			}
		},
		{
			"doubleSided":true,
			"name":"\u30de\u30c6\u30ea\u30a2\u30eb.002",
			"pbrMetallicRoughness":{
				"baseColorFactor":[
					0,
					0,
					0,
					1
				],
				"metallicFactor":0,
				"roughnessFactor":0.5
			}
		}
	],
	"meshes":[
		{
			"name":"\u7acb\u65b9\u4f53.008",
			"primitives":[
				{
					"attributes":{
						"POSITION":0,
						"NORMAL":1,
						"TEXCOORD_0":2
					},
					"indices":3,
					"material":0
				}
			]
		},
		{
			"name":"\u7acb\u65b9\u4f53.009",
			"primitives":[
				{
					"attributes":{
						"POSITION":4,
						"NORMAL":5,
						"TEXCOORD_0":6
					},
					"indices":3,
					"material":1
				}
			]
		},
		{
			"name":"\u5186\u67f1.005",
			"primitives":[
				{
					"attributes":{
						"POSITION":7,
						"NORMAL":8,
						"TEXCOORD_0":9
					},
					"indices":10,
					"material":2
				}
			]
		},
		{
			"name":"\u5186\u67f1.002",
			"primitives":[
				{
					"attributes":{
						"POSITION":11,
						"NORMAL":12,
						"TEXCOORD_0":13
					},
					"indices":10,
					"material":3
				}
			]
		},
		{
			"name":"\u30c6\u30ad\u30b9\u30c8.004",
			"primitives":[
				{
					"attributes":{
						"POSITION":14,
						"NORMAL":15,
						"TEXCOORD_0":16
					},
					"indices":17,
					"material":4
				}
			]
		},
		{
			"name":"\u30c6\u30ad\u30b9\u30c8.003",
			"primitives":[
				{
					"attributes":{
						"POSITION":18,
						"NORMAL":19,
						"TEXCOORD_0":20
					},
					"indices":21,
					"material":5
				}
			]
		},
		{
			"name":"\u30c6\u30ad\u30b9\u30c8.002",
			"primitives":[
				{
					"attributes":{
						"POSITION":22,
						"NORMAL":23,
						"TEXCOORD_0":24
					},
					"indices":25,
					"material":6
				}
			]
		},
		{
			"name":"\u30c6\u30ad\u30b9\u30c8.001",
			"primitives":[
				{
					"attributes":{
						"POSITION":26,
						"NORMAL":27,
						"TEXCOORD_0":28
					},
					"indices":29,
					"material":0
				}
			]
		}
	],
	"accessors":[
		{
			"bufferView":0,
			"componentType":5126,
			"count":24,
			"max":[
				1,
				1,
				1
			],
			"min":[
				-1,
				-1,
				-1
			],
			"type":"VEC3"
		},
		{
			"bufferView":1,
			"componentType":5126,
			"count":24,
			"type":"VEC3"
		},
		{
			"bufferView":2,
			"componentType":5126,
			"count":24,
			"type":"VEC2"
		},
		{
			"bufferView":3,
			"componentType":5123,
			"count":36,
			"type":"SCALAR"
		},
		{
			"bufferView":4,
			"componentType":5126,
			"count":24,
			"max":[
				1,
				1,
				1
			],
			"min":[
				-1,
				-1,
				-1
			],
			"type":"VEC3"
		},
		{
			"bufferView":5,
			"componentType":5126,
			"count":24,
			"type":"VEC3"
		},
		{
			"bufferView":6,
			"componentType":5126,
			"count":24,
			"type":"VEC2"
		},
		{
			"bufferView":7,
			"componentType":5126,
			"count":192,
			"max":[
				1,
				1,
				1
			],
			"min":[
				-1,
				-1,
				-1
			],
			"type":"VEC3"
		},
		{
			"bufferView":8,
			"componentType":5126,
			"count":192,
			"type":"VEC3"
		},
		{
			"bufferView":9,
			"componentType":5126,
			"count":192,
			"type":"VEC2"
		},
		{
			"bufferView":10,
			"componentType":5123,
			"count":372,
			"type":"SCALAR"
		},
		{
			"bufferView":11,
			"componentType":5126,
			"count":192,
			"max":[
				1,
				1,
				1
			],
			"min":[
				-1,
				-1,
				-1
			],
			"type":"VEC3"
		},
		{
			"bufferView":12,
			"componentType":5126,
			"count":192,
			"type":"VEC3"
		},
		{
			"bufferView":13,
			"componentType":5126,
			"count":192,
			"type":"VEC2"
		},
		{
			"bufferView":14,
			"componentType":5126,
			"count":133,
			"max":[
				0.4610000252723694,
				0,
				0.009000000543892384
			],
			"min":[
				0.036000002175569534,
				0,
				-0.6910000443458557
			],
			"type":"VEC3"
		},
		{
			"bufferView":15,
			"componentType":5126,
			"count":133,
			"type":"VEC3"
		},
		{
			"bufferView":16,
			"componentType":5126,
			"count":133,
			"type":"VEC2"
		},
		{
			"bufferView":17,
			"componentType":5123,
			"count":399,
			"type":"SCALAR"
		},
		{
			"bufferView":18,
			"componentType":5126,
			"count":121,
			"max":[
				0.4650000333786011,
				0,
				0.009000000543892384
			],
			"min":[
				0.04400000348687172,
				0,
				-0.6910000443458557
			],
			"type":"VEC3"
		},
		{
			"bufferView":19,
			"componentType":5126,
			"count":121,
			"type":"VEC3"
		},
		{
			"bufferView":20,
			"componentType":5126,
			"count":121,
			"type":"VEC2"
		},
		{
			"bufferView":21,
			"componentType":5123,
			"count":363,
			"type":"SCALAR"
		},
		{
			"bufferView":22,
			"componentType":5126,
			"count":147,
			"max":[
				0.4240000247955322,
				0,
				0.009000000543892384
			],
			"min":[
				0.06400000303983688,
				0,
				-0.6910000443458557
			],
			"type":"VEC3"
		},
		{
			"bufferView":23,
			"componentType":5126,
			"count":147,
			"type":"VEC3"
		},
		{
			"bufferView":24,
			"componentType":5126,
			"count":147,
			"type":"VEC2"
		},
		{
			"bufferView":25,
			"componentType":5123,
			"count":435,
			"type":"SCALAR"
		},
		{
			"bufferView":26,
			"componentType":5126,
			"count":93,
			"max":[
				0.9660000205039978,
				0,
				0
			],
			"min":[
				0.20200000703334808,
				0,
				-0.6910000443458557
			],
			"type":"VEC3"
		},
		{
			"bufferView":27,
			"componentType":5126,
			"count":93,
			"type":"VEC3"
		},
		{
			"bufferView":28,
			"componentType":5126,
			"count":93,
			"type":"VEC2"
		},
		{
			"bufferView":29,
			"componentType":5123,
			"count":267,
			"type":"SCALAR"
		}
	],
	"bufferViews":[
		{
			"buffer":0,
			"byteLength":288,
			"byteOffset":0,
			"target":34962
		},
		{
			"buffer":0,
			"byteLength":288,
			"byteOffset":288,
			"target":34962
		},
		{
			"buffer":0,
			"byteLength":192,
			"byteOffset":576,
			"target":34962
		},
		{
			"buffer":0,
			"byteLength":72,
			"byteOffset":768,
			"target":34963
		},
		{
			"buffer":0,
			"byteLength":288,
			"byteOffset":840,
			"target":34962
		},
		{
			"buffer":0,
			"byteLength":288,
			"byteOffset":1128,
			"target":34962
		},
		{
			"buffer":0,
			"byteLength":192,
			"byteOffset":1416,
			"target":34962
		},
		{
			"buffer":0,
			"byteLength":2304,
			"byteOffset":1608,
			"target":34962
		},
		{
			"buffer":0,
			"byteLength":2304,
			"byteOffset":3912,
			"target":34962
		},
		{
			"buffer":0,
			"byteLength":1536,
			"byteOffset":6216,
			"target":34962
		},
		{
			"buffer":0,
			"byteLength":744,
			"byteOffset":7752,
			"target":34963
		},
		{
			"buffer":0,
			"byteLength":2304,
			"byteOffset":8496,
			"target":34962
		},
		{
			"buffer":0,
			"byteLength":2304,
			"byteOffset":10800,
			"target":34962
		},
		{
			"buffer":0,
			"byteLength":1536,
			"byteOffset":13104,
			"target":34962
		},
		{
			"buffer":0,
			"byteLength":1596,
			"byteOffset":14640,
			"target":34962
		},
		{
			"buffer":0,
			"byteLength":1596,
			"byteOffset":16236,
			"target":34962
		},
		{
			"buffer":0,
			"byteLength":1064,
			"byteOffset":17832,
			"target":34962
		},
		{
			"buffer":0,
			"byteLength":798,
			"byteOffset":18896,
			"target":34963
		},
		{
			"buffer":0,
			"byteLength":1452,
			"byteOffset":19696,
			"target":34962
		},
		{
			"buffer":0,
			"byteLength":1452,
			"byteOffset":21148,
			"target":34962
		},
		{
			"buffer":0,
			"byteLength":968,
			"byteOffset":22600,
			"target":34962
		},
		{
			"buffer":0,
			"byteLength":726,
			"byteOffset":23568,
			"target":34963
		},
		{
			"buffer":0,
			"byteLength":1764,
			"byteOffset":24296,
			"target":34962
		},
		{
			"buffer":0,
			"byteLength":1764,
			"byteOffset":26060,
			"target":34962
		},
		{
			"buffer":0,
			"byteLength":1176,
			"byteOffset":27824,
			"target":34962
		},
		{
			"buffer":0,
			"byteLength":870,
			"byteOffset":29000,
			"target":34963
		},
		{
			"buffer":0,
			"byteLength":1116,
			"byteOffset":29872,
			"target":34962
		},
		{
			"buffer":0,
			"byteLength":1116,
			"byteOffset":30988,
			"target":34962
		},
		{
			"buffer":0,
			"byteLength":744,
			"byteOffset":32104,
			"target":34962
		},
		{
			"buffer":0,
			"byteLength":534,
			"byteOffset":32848,
			"target":34963
		}
	],
	"buffers":[
		{
			"byteLength":33384,
			"uri":"needle.bin"
		}
	]
}
