{
	"asset":{
		"generator":"Khronos glTF Blender I/O v4.1.62",
		"version":"2.0"
	},
	"scene":0,
	"scenes":[
		{
			"name":"Scene",
			"nodes":[
				0
			]
		}
	],
	"nodes":[
		{
			"mesh":0,
			"name":"\u5186\u67f1.004",
			"rotation":[
				0.24184474349021912,
				0.6644630432128906,
				-0.24184474349021912,
				0.6644629836082458
			],
			"scale":[
				0.035999998450279236,
				0.23999997973442078,
				0.035999998450279236
			],
			"translation":[
				0,
				2.9727089405059814,
				0
			]
		}
	],
	"materials":[
		{
			"doubleSided":true,
			"name":"Material.007",
			"pbrMetallicRoughness":{
				"baseColorFactor":[
					0.800000011920929,
					0.800000011920929,
					0.800000011920929,
					1
				],
				"metallicFactor":0,
				"roughnessFactor":0.5
			}
		},
		{
			"doubleSided":true,
			"name":"\u30de\u30c6\u30ea\u30a2\u30eb.008",
			"pbrMetallicRoughness":{
				"baseColorFactor":[
					0.04577810317277908,
					0.0997714176774025,
					0.8002434968948364,
					1
				],
				"metallicFactor":0,
				"roughnessFactor":0.5
			}
		},
		{
			"doubleSided":true,
			"name":"\u30de\u30c6\u30ea\u30a2\u30eb.009",
			"pbrMetallicRoughness":{
				"baseColorFactor":[
					0.04577810317277908,
					0.0997714176774025,
					0.8002434968948364,
					1
				],
				"metallicFactor":0,
				"roughnessFactor":0.5
			}
		}
	],
	"meshes":[
		{
			"name":"\u5186\u67f1.005",
			"primitives":[
				{
					"attributes":{
						"POSITION":0,
						"NORMAL":1,
						"TEXCOORD_0":2
					},
					"indices":3,
					"material":0
				},
				{
					"attributes":{
						"POSITION":4,
						"NORMAL":5,
						"TEXCOORD_0":6
					},
					"indices":7,
					"material":1
				},
				{
					"attributes":{
						"POSITION":8,
						"NORMAL":9,
						"TEXCOORD_0":10
					},
					"indices":11,
					"material":2
				}
			]
		}
	],
	"accessors":[
		{
			"bufferView":0,
			"componentType":5126,
			"count":644,
			"max":[
				2.4999988079071045,
				2.5914196968078613,
				20.995952606201172
			],
			"min":[
				-2.5000011920928955,
				-3.0012245178222656,
				-20.678466796875
			],
			"type":"VEC3"
		},
		{
			"bufferView":1,
			"componentType":5126,
			"count":644,
			"type":"VEC3"
		},
		{
			"bufferView":2,
			"componentType":5126,
			"count":644,
			"type":"VEC2"
		},
		{
			"bufferView":3,
			"componentType":5123,
			"count":1488,
			"type":"SCALAR"
		},
		{
			"bufferView":4,
			"componentType":5126,
			"count":851,
			"max":[
				13.33332633972168,
				3.739227771759033,
				33.11183547973633
			],
			"min":[
				-13.333319664001465,
				1.3490478992462158,
				6.445183753967285
			],
			"type":"VEC3"
		},
		{
			"bufferView":5,
			"componentType":5126,
			"count":851,
			"type":"VEC3"
		},
		{
			"bufferView":6,
			"componentType":5126,
			"count":851,
			"type":"VEC2"
		},
		{
			"bufferView":7,
			"componentType":5123,
			"count":4026,
			"type":"SCALAR"
		},
		{
			"bufferView":8,
			"componentType":5126,
			"count":851,
			"max":[
				13.33332633972168,
				-0.6225441694259644,
				-10.039588928222656
			],
			"min":[
				-13.333319664001465,
				-4.621591091156006,
				-28.202251434326172
			],
			"type":"VEC3"
		},
		{
			"bufferView":9,
			"componentType":5126,
			"count":851,
			"type":"VEC3"
		},
		{
			"bufferView":10,
			"componentType":5126,
			"count":851,
			"type":"VEC2"
		},
		{
			"bufferView":11,
			"componentType":5123,
			"count":4026,
			"type":"SCALAR"
		}
	],
	"bufferViews":[
		{
			"buffer":0,
			"byteLength":7728,
			"byteOffset":0,
			"target":34962
		},
		{
			"buffer":0,
			"byteLength":7728,
			"byteOffset":7728,
			"target":34962
		},
		{
			"buffer":0,
			"byteLength":5152,
			"byteOffset":15456,
			"target":34962
		},
		{
			"buffer":0,
			"byteLength":2976,
			"byteOffset":20608,
			"target":34963
		},
		{
			"buffer":0,
			"byteLength":10212,
			"byteOffset":23584,
			"target":34962
		},
		{
			"buffer":0,
			"byteLength":10212,
			"byteOffset":33796,
			"target":34962
		},
		{
			"buffer":0,
			"byteLength":6808,
			"byteOffset":44008,
			"target":34962
		},
		{
			"buffer":0,
			"byteLength":8052,
			"byteOffset":50816,
			"target":34963
		},
		{
			"buffer":0,
			"byteLength":10212,
			"byteOffset":58868,
			"target":34962
		},
		{
			"buffer":0,
			"byteLength":10212,
			"byteOffset":69080,
			"target":34962
		},
		{
			"buffer":0,
			"byteLength":6808,
			"byteOffset":79292,
			"target":34962
		},
		{
			"buffer":0,
			"byteLength":8052,
			"byteOffset":86100,
			"target":34963
		}
	],
	"buffers":[
		{
			"byteLength":94152,
			"uri":"clockParts.bin"
		}
	]
}
