{
	"asset":{
		"generator":"Khronos glTF Blender I/O v4.1.62",
		"version":"2.0"
	},
	"scene":0,
	"scenes":[
		{
			"name":"Scene",
			"nodes":[
				1,
				2
			]
		}
	],
	"nodes":[
		{
			"name":"NewPoint",
			"translation":[
				-0.6541281938552856,
				0,
				0
			]
		},
		{
			"children":[
				0
			],
			"mesh":0,
			"name":"\u5186\u67f1",
			"rotation":[
				0,
				0,
				-0.7071068286895752,
				0.7071067094802856
			],
			"scale":[
				3.999999761581421,
				1.9999998807907104,
				4
			],
			"translation":[
				0,
				4.787776470184326,
				0
			]
		},
		{
			"mesh":1,
			"name":"COL",
			"scale":[
				2,
				4.5,
				4
			],
			"translation":[
				0,
				4.5,
				0
			]
		}
	],
	"materials":[
		{
			"doubleSided":true,
			"name":"\u30de\u30c6\u30ea\u30a2\u30eb.007",
			"pbrMetallicRoughness":{
				"baseColorFactor":[
					0.04577810317277908,
					0.0997714176774025,
					0.8002434968948364,
					1
				],
				"metallicFactor":0,
				"roughnessFactor":0.5
			}
		},
		{
			"doubleSided":true,
			"name":"Material.003",
			"pbrMetallicRoughness":{
				"baseColorFactor":[
					0.800000011920929,
					0.800000011920929,
					0.800000011920929,
					1
				],
				"metallicFactor":0,
				"roughnessFactor":0.5
			}
		},
		{
			"doubleSided":true,
			"name":"\u30de\u30c6\u30ea\u30a2\u30eb.008",
			"pbrMetallicRoughness":{
				"baseColorFactor":[
					0,
					0,
					0,
					1
				],
				"metallicFactor":0,
				"roughnessFactor":0.5
			}
		},
		{
			"doubleSided":true,
			"name":"\u30de\u30c6\u30ea\u30a2\u30eb.009",
			"pbrMetallicRoughness":{
				"baseColorFactor":[
					0,
					0,
					0,
					1
				],
				"metallicFactor":0,
				"roughnessFactor":0.5
			}
		},
		{
			"doubleSided":true,
			"name":"\u30de\u30c6\u30ea\u30a2\u30eb.010",
			"pbrMetallicRoughness":{
				"baseColorFactor":[
					0,
					0,
					0,
					1
				],
				"metallicFactor":0,
				"roughnessFactor":0.5
			}
		},
		{
			"doubleSided":true,
			"name":"\u30de\u30c6\u30ea\u30a2\u30eb.011",
			"pbrMetallicRoughness":{
				"baseColorFactor":[
					0,
					0,
					0,
					1
				],
				"metallicFactor":0,
				"roughnessFactor":0.5
			}
		},
		{
			"doubleSided":true,
			"name":"\u30de\u30c6\u30ea\u30a2\u30eb.012",
			"pbrMetallicRoughness":{
				"baseColorFactor":[
					0,
					0,
					0,
					1
				],
				"metallicFactor":0,
				"roughnessFactor":0.5
			}
		},
		{
			"doubleSided":true,
			"name":"\u30de\u30c6\u30ea\u30a2\u30eb.013",
			"pbrMetallicRoughness":{
				"baseColorFactor":[
					0.4499104619026184,
					0.4499104619026184,
					0.4499104619026184,
					1
				],
				"metallicFactor":0,
				"roughnessFactor":0.5
			}
		}
	],
	"meshes":[
		{
			"name":"\u5186\u67f1.001",
			"primitives":[
				{
					"attributes":{
						"POSITION":0,
						"NORMAL":1,
						"TEXCOORD_0":2
					},
					"indices":3,
					"material":0
				},
				{
					"attributes":{
						"POSITION":4,
						"NORMAL":5,
						"TEXCOORD_0":6
					},
					"indices":7,
					"material":1
				},
				{
					"attributes":{
						"POSITION":8,
						"NORMAL":9,
						"TEXCOORD_0":10
					},
					"indices":11,
					"material":2
				},
				{
					"attributes":{
						"POSITION":12,
						"NORMAL":13,
						"TEXCOORD_0":14
					},
					"indices":15,
					"material":3
				},
				{
					"attributes":{
						"POSITION":16,
						"NORMAL":17,
						"TEXCOORD_0":18
					},
					"indices":19,
					"material":4
				},
				{
					"attributes":{
						"POSITION":20,
						"NORMAL":21,
						"TEXCOORD_0":22
					},
					"indices":23,
					"material":5
				},
				{
					"attributes":{
						"POSITION":24,
						"NORMAL":25,
						"TEXCOORD_0":26
					},
					"indices":27,
					"material":6
				},
				{
					"attributes":{
						"POSITION":28,
						"NORMAL":29,
						"TEXCOORD_0":30
					},
					"indices":31,
					"material":7
				}
			]
		},
		{
			"name":"\u7acb\u65b9\u4f53",
			"primitives":[
				{
					"attributes":{
						"POSITION":32,
						"NORMAL":33,
						"TEXCOORD_0":34
					},
					"indices":15
				}
			]
		}
	],
	"accessors":[
		{
			"bufferView":0,
			"componentType":5126,
			"count":260,
			"max":[
				1,
				1,
				1
			],
			"min":[
				-1,
				-1,
				-1
			],
			"type":"VEC3"
		},
		{
			"bufferView":1,
			"componentType":5126,
			"count":260,
			"type":"VEC3"
		},
		{
			"bufferView":2,
			"componentType":5126,
			"count":260,
			"type":"VEC2"
		},
		{
			"bufferView":3,
			"componentType":5123,
			"count":756,
			"type":"SCALAR"
		},
		{
			"bufferView":4,
			"componentType":5126,
			"count":312,
			"max":[
				1.2002067565917969,
				0.8019413352012634,
				0.800000011920929
			],
			"min":[
				-0.8000001311302185,
				-0.7999998331069946,
				-0.800000011920929
			],
			"type":"VEC3"
		},
		{
			"bufferView":5,
			"componentType":5126,
			"count":312,
			"type":"VEC3"
		},
		{
			"bufferView":6,
			"componentType":5126,
			"count":312,
			"type":"VEC2"
		},
		{
			"bufferView":7,
			"componentType":5123,
			"count":684,
			"type":"SCALAR"
		},
		{
			"bufferView":8,
			"componentType":5126,
			"count":126,
			"max":[
				0.3590695858001709,
				0.881470799446106,
				0.1391828954219818
			],
			"min":[
				-0.6845880746841431,
				0.8379631042480469,
				-0.24281710386276245
			],
			"type":"VEC3"
		},
		{
			"bufferView":9,
			"componentType":5126,
			"count":126,
			"type":"VEC3"
		},
		{
			"bufferView":10,
			"componentType":5126,
			"count":126,
			"type":"VEC2"
		},
		{
			"bufferView":11,
			"componentType":5123,
			"count":303,
			"type":"SCALAR"
		},
		{
			"bufferView":12,
			"componentType":5126,
			"count":24,
			"max":[
				0.16377770900726318,
				0.9298253059387207,
				0.019999999552965164
			],
			"min":[
				-0.4362223148345947,
				0.8898251056671143,
				-0.019999999552965164
			],
			"type":"VEC3"
		},
		{
			"bufferView":13,
			"componentType":5126,
			"count":24,
			"type":"VEC3"
		},
		{
			"bufferView":14,
			"componentType":5126,
			"count":24,
			"type":"VEC2"
		},
		{
			"bufferView":15,
			"componentType":5123,
			"count":36,
			"type":"SCALAR"
		},
		{
			"bufferView":16,
			"componentType":5126,
			"count":188,
			"max":[
				0.15449991822242737,
				0.8379634022712708,
				-0.5465620756149292
			],
			"min":[
				-0.19550010561943054,
				0.8379632830619812,
				-0.7265620827674866
			],
			"type":"VEC3"
		},
		{
			"bufferView":17,
			"componentType":5126,
			"count":188,
			"type":"VEC3"
		},
		{
			"bufferView":18,
			"componentType":5126,
			"count":188,
			"type":"VEC2"
		},
		{
			"bufferView":19,
			"componentType":5123,
			"count":435,
			"type":"SCALAR"
		},
		{
			"bufferView":20,
			"componentType":5126,
			"count":135,
			"max":[
				0.7630430459976196,
				0.8379635214805603,
				0.12522488832473755
			],
			"min":[
				0.4130430519580841,
				0.8379634022712708,
				-0.08527512848377228
			],
			"type":"VEC3"
		},
		{
			"bufferView":21,
			"componentType":5126,
			"count":135,
			"type":"VEC3"
		},
		{
			"bufferView":22,
			"componentType":5126,
			"count":135,
			"type":"VEC2"
		},
		{
			"bufferView":23,
			"componentType":5123,
			"count":363,
			"type":"SCALAR"
		},
		{
			"bufferView":24,
			"componentType":5126,
			"count":161,
			"max":[
				0.15449991822242737,
				0.8379634022712708,
				0.7283844351768494
			],
			"min":[
				-0.19550010561943054,
				0.8379632830619812,
				0.5158843994140625
			],
			"type":"VEC3"
		},
		{
			"bufferView":25,
			"componentType":5126,
			"count":161,
			"type":"VEC3"
		},
		{
			"bufferView":26,
			"componentType":5126,
			"count":161,
			"type":"VEC2"
		},
		{
			"bufferView":27,
			"componentType":5123,
			"count":399,
			"type":"SCALAR"
		},
		{
			"bufferView":28,
			"componentType":5126,
			"count":236,
			"max":[
				0.014999949373304844,
				0.9687252044677734,
				0.014999999664723873
			],
			"min":[
				-0.015000051818788052,
				0.5687251091003418,
				-0.014999999664723873
			],
			"type":"VEC3"
		},
		{
			"bufferView":29,
			"componentType":5126,
			"count":236,
			"type":"VEC3"
		},
		{
			"bufferView":30,
			"componentType":5126,
			"count":236,
			"type":"VEC2"
		},
		{
			"bufferView":31,
			"componentType":5123,
			"count":372,
			"type":"SCALAR"
		},
		{
			"bufferView":32,
			"componentType":5126,
			"count":24,
			"max":[
				1,
				1,
				1
			],
			"min":[
				-1,
				-1,
				-1
			],
			"type":"VEC3"
		},
		{
			"bufferView":33,
			"componentType":5126,
			"count":24,
			"type":"VEC3"
		},
		{
			"bufferView":34,
			"componentType":5126,
			"count":24,
			"type":"VEC2"
		}
	],
	"bufferViews":[
		{
			"buffer":0,
			"byteLength":3120,
			"byteOffset":0,
			"target":34962
		},
		{
			"buffer":0,
			"byteLength":3120,
			"byteOffset":3120,
			"target":34962
		},
		{
			"buffer":0,
			"byteLength":2080,
			"byteOffset":6240,
			"target":34962
		},
		{
			"buffer":0,
			"byteLength":1512,
			"byteOffset":8320,
			"target":34963
		},
		{
			"buffer":0,
			"byteLength":3744,
			"byteOffset":9832,
			"target":34962
		},
		{
			"buffer":0,
			"byteLength":3744,
			"byteOffset":13576,
			"target":34962
		},
		{
			"buffer":0,
			"byteLength":2496,
			"byteOffset":17320,
			"target":34962
		},
		{
			"buffer":0,
			"byteLength":1368,
			"byteOffset":19816,
			"target":34963
		},
		{
			"buffer":0,
			"byteLength":1512,
			"byteOffset":21184,
			"target":34962
		},
		{
			"buffer":0,
			"byteLength":1512,
			"byteOffset":22696,
			"target":34962
		},
		{
			"buffer":0,
			"byteLength":1008,
			"byteOffset":24208,
			"target":34962
		},
		{
			"buffer":0,
			"byteLength":606,
			"byteOffset":25216,
			"target":34963
		},
		{
			"buffer":0,
			"byteLength":288,
			"byteOffset":25824,
			"target":34962
		},
		{
			"buffer":0,
			"byteLength":288,
			"byteOffset":26112,
			"target":34962
		},
		{
			"buffer":0,
			"byteLength":192,
			"byteOffset":26400,
			"target":34962
		},
		{
			"buffer":0,
			"byteLength":72,
			"byteOffset":26592,
			"target":34963
		},
		{
			"buffer":0,
			"byteLength":2256,
			"byteOffset":26664,
			"target":34962
		},
		{
			"buffer":0,
			"byteLength":2256,
			"byteOffset":28920,
			"target":34962
		},
		{
			"buffer":0,
			"byteLength":1504,
			"byteOffset":31176,
			"target":34962
		},
		{
			"buffer":0,
			"byteLength":870,
			"byteOffset":32680,
			"target":34963
		},
		{
			"buffer":0,
			"byteLength":1620,
			"byteOffset":33552,
			"target":34962
		},
		{
			"buffer":0,
			"byteLength":1620,
			"byteOffset":35172,
			"target":34962
		},
		{
			"buffer":0,
			"byteLength":1080,
			"byteOffset":36792,
			"target":34962
		},
		{
			"buffer":0,
			"byteLength":726,
			"byteOffset":37872,
			"target":34963
		},
		{
			"buffer":0,
			"byteLength":1932,
			"byteOffset":38600,
			"target":34962
		},
		{
			"buffer":0,
			"byteLength":1932,
			"byteOffset":40532,
			"target":34962
		},
		{
			"buffer":0,
			"byteLength":1288,
			"byteOffset":42464,
			"target":34962
		},
		{
			"buffer":0,
			"byteLength":798,
			"byteOffset":43752,
			"target":34963
		},
		{
			"buffer":0,
			"byteLength":2832,
			"byteOffset":44552,
			"target":34962
		},
		{
			"buffer":0,
			"byteLength":2832,
			"byteOffset":47384,
			"target":34962
		},
		{
			"buffer":0,
			"byteLength":1888,
			"byteOffset":50216,
			"target":34962
		},
		{
			"buffer":0,
			"byteLength":744,
			"byteOffset":52104,
			"target":34963
		},
		{
			"buffer":0,
			"byteLength":288,
			"byteOffset":52848,
			"target":34962
		},
		{
			"buffer":0,
			"byteLength":288,
			"byteOffset":53136,
			"target":34962
		},
		{
			"buffer":0,
			"byteLength":192,
			"byteOffset":53424,
			"target":34962
		}
	],
	"buffers":[
		{
			"byteLength":53616,
			"uri":"bodyNeedle.bin"
		}
	]
}
