{
	"asset":{
		"generator":"Khronos glTF Blender I/O v4.1.62",
		"version":"2.0"
	},
	"scene":0,
	"scenes":[
		{
			"name":"Scene",
			"nodes":[
				0,
				1,
				2,
				3,
				4,
				5,
				6,
				7,
				8,
				9,
				10
			]
		}
	],
	"nodes":[
		{
			"mesh":0,
			"name":"\u5186\u67f1",
			"rotation":[
				0,
				0,
				-0.7071068286895752,
				0.7071067094802856
			],
			"scale":[
				4.000000476837158,
				2.000000238418579,
				4
			],
			"translation":[
				0,
				4.787776470184326,
				0
			]
		},
		{
			"mesh":1,
			"name":"\u7acb\u65b9\u4f53",
			"rotation":[
				0.21643957495689392,
				0,
				0,
				0.9762960076332092
			],
			"scale":[
				1.600000023841858,
				1,
				0.19999997317790985
			],
			"translation":[
				0,
				0.977780818939209,
				-2.4151811599731445
			]
		},
		{
			"mesh":2,
			"name":"\u7acb\u65b9\u4f53.001",
			"rotation":[
				-0.21643957495689392,
				0,
				0,
				0.9762960076332092
			],
			"scale":[
				1.600000023841858,
				1,
				0.19999997317790985
			],
			"translation":[
				0,
				0.977780818939209,
				2.16068172454834
			]
		},
		{
			"mesh":3,
			"name":"\u5186\u67f1.001",
			"rotation":[
				0,
				0,
				-0.7071068286895752,
				0.7071067094802856
			],
			"scale":[
				3.200000524520874,
				0.0040000006556510925,
				3.200000047683716
			],
			"translation":[
				1.59988272190094,
				4.787776470184326,
				0
			]
		},
		{
			"mesh":4,
			"name":"\u7acb\u65b9\u4f53.003",
			"scale":[
				0.03999999910593033,
				0.800000011920929,
				0.11999999731779099
			],
			"translation":[
				1.7229413986206055,
				4.151497840881348,
				0
			]
		},
		{
			"mesh":5,
			"name":"\u7acb\u65b9\u4f53.002",
			"scale":[
				0.03999999910593033,
				1.2000000476837158,
				0.07999999821186066
			],
			"translation":[
				1.8196505308151245,
				5.33266544342041,
				0
			]
		},
		{
			"mesh":6,
			"name":"\u30c6\u30ad\u30b9\u30c8",
			"rotation":[
				0.5,
				0.5,
				-0.5,
				0.5
			],
			"scale":[
				2,
				2,
				2
			],
			"translation":[
				1.675926685333252,
				6.144128322601318,
				0.9607316255569458
			]
		},
		{
			"mesh":7,
			"name":"\u30c6\u30ad\u30b9\u30c8.001",
			"rotation":[
				0.5,
				0.5,
				-0.5,
				0.5
			],
			"scale":[
				2,
				2,
				2
			],
			"translation":[
				1.675926685333252,
				4.187776565551758,
				-2.058248281478882
			]
		},
		{
			"mesh":8,
			"name":"\u30c6\u30ad\u30b9\u30c8.002",
			"rotation":[
				0.5,
				0.5,
				-0.5,
				0.5
			],
			"scale":[
				2,
				2,
				2
			],
			"translation":[
				1.675926685333252,
				1.7536039352416992,
				0.588899552822113
			]
		},
		{
			"mesh":9,
			"name":"\u30c6\u30ad\u30b9\u30c8.003",
			"rotation":[
				0.5,
				0.5,
				-0.5,
				0.5
			],
			"scale":[
				2,
				2,
				2
			],
			"translation":[
				1.675926685333252,
				4.187776565551758,
				2.9855377674102783
			]
		},
		{
			"mesh":10,
			"name":"\u5186\u67f1.004",
			"rotation":[
				0,
				0,
				-0.7071068286895752,
				0.7071067094802856
			],
			"scale":[
				0.06000000610947609,
				0.40000006556510925,
				0.05999999865889549
			],
			"translation":[
				1.5374503135681152,
				4.787776470184326,
				0
			]
		}
	],
	"materials":[
		{
			"doubleSided":true,
			"name":"\u30de\u30c6\u30ea\u30a2\u30eb.007",
			"pbrMetallicRoughness":{
				"baseColorFactor":[
					0.04577810317277908,
					0.0997714176774025,
					0.8002434968948364,
					1
				],
				"metallicFactor":0,
				"roughnessFactor":0.5
			}
		},
		{
			"doubleSided":true,
			"name":"Material.003",
			"pbrMetallicRoughness":{
				"baseColorFactor":[
					0.800000011920929,
					0.800000011920929,
					0.800000011920929,
					1
				],
				"metallicFactor":0,
				"roughnessFactor":0.5
			}
		},
		{
			"doubleSided":true,
			"name":"\u30de\u30c6\u30ea\u30a2\u30eb.008",
			"pbrMetallicRoughness":{
				"baseColorFactor":[
					0,
					0,
					0,
					1
				],
				"metallicFactor":0,
				"roughnessFactor":0.5
			}
		},
		{
			"doubleSided":true,
			"name":"\u30de\u30c6\u30ea\u30a2\u30eb.009",
			"pbrMetallicRoughness":{
				"baseColorFactor":[
					0,
					0,
					0,
					1
				],
				"metallicFactor":0,
				"roughnessFactor":0.5
			}
		},
		{
			"doubleSided":true,
			"name":"\u30de\u30c6\u30ea\u30a2\u30eb.010",
			"pbrMetallicRoughness":{
				"baseColorFactor":[
					0,
					0,
					0,
					1
				],
				"metallicFactor":0,
				"roughnessFactor":0.5
			}
		},
		{
			"doubleSided":true,
			"name":"\u30de\u30c6\u30ea\u30a2\u30eb.011",
			"pbrMetallicRoughness":{
				"baseColorFactor":[
					0,
					0,
					0,
					1
				],
				"metallicFactor":0,
				"roughnessFactor":0.5
			}
		},
		{
			"doubleSided":true,
			"name":"\u30de\u30c6\u30ea\u30a2\u30eb.012",
			"pbrMetallicRoughness":{
				"baseColorFactor":[
					0,
					0,
					0,
					1
				],
				"metallicFactor":0,
				"roughnessFactor":0.5
			}
		},
		{
			"doubleSided":true,
			"name":"\u30de\u30c6\u30ea\u30a2\u30eb.013",
			"pbrMetallicRoughness":{
				"baseColorFactor":[
					0.4499104619026184,
					0.4499104619026184,
					0.4499104619026184,
					1
				],
				"metallicFactor":0,
				"roughnessFactor":0.5
			}
		}
	],
	"meshes":[
		{
			"name":"\u5186\u67f1.001",
			"primitives":[
				{
					"attributes":{
						"POSITION":0,
						"NORMAL":1,
						"TEXCOORD_0":2
					},
					"indices":3,
					"material":0
				}
			]
		},
		{
			"name":"\u7acb\u65b9\u4f53.002",
			"primitives":[
				{
					"attributes":{
						"POSITION":4,
						"NORMAL":5,
						"TEXCOORD_0":6
					},
					"indices":7,
					"material":1
				}
			]
		},
		{
			"name":"\u7acb\u65b9\u4f53.004",
			"primitives":[
				{
					"attributes":{
						"POSITION":8,
						"NORMAL":9,
						"TEXCOORD_0":10
					},
					"indices":7,
					"material":1
				}
			]
		},
		{
			"name":"\u5186\u67f1.003",
			"primitives":[
				{
					"attributes":{
						"POSITION":11,
						"NORMAL":12,
						"TEXCOORD_0":13
					},
					"indices":14,
					"material":1
				}
			]
		},
		{
			"name":"\u7acb\u65b9\u4f53.006",
			"primitives":[
				{
					"attributes":{
						"POSITION":15,
						"NORMAL":16,
						"TEXCOORD_0":17
					},
					"indices":18,
					"material":2
				}
			]
		},
		{
			"name":"\u7acb\u65b9\u4f53.007",
			"primitives":[
				{
					"attributes":{
						"POSITION":19,
						"NORMAL":20,
						"TEXCOORD_0":21
					},
					"indices":18,
					"material":3
				}
			]
		},
		{
			"name":"\u30c6\u30ad\u30b9\u30c8.005",
			"primitives":[
				{
					"attributes":{
						"POSITION":22,
						"NORMAL":23,
						"TEXCOORD_0":24
					},
					"indices":25,
					"material":2
				}
			]
		},
		{
			"name":"\u30c6\u30ad\u30b9\u30c8.006",
			"primitives":[
				{
					"attributes":{
						"POSITION":26,
						"NORMAL":27,
						"TEXCOORD_0":28
					},
					"indices":29,
					"material":4
				}
			]
		},
		{
			"name":"\u30c6\u30ad\u30b9\u30c8.007",
			"primitives":[
				{
					"attributes":{
						"POSITION":30,
						"NORMAL":31,
						"TEXCOORD_0":32
					},
					"indices":33,
					"material":5
				}
			]
		},
		{
			"name":"\u30c6\u30ad\u30b9\u30c8.008",
			"primitives":[
				{
					"attributes":{
						"POSITION":34,
						"NORMAL":35,
						"TEXCOORD_0":36
					},
					"indices":37,
					"material":6
				}
			]
		},
		{
			"name":"\u5186\u67f1.007",
			"primitives":[
				{
					"attributes":{
						"POSITION":38,
						"NORMAL":39,
						"TEXCOORD_0":40
					},
					"indices":14,
					"material":7
				}
			]
		}
	],
	"accessors":[
		{
			"bufferView":0,
			"componentType":5126,
			"count":260,
			"max":[
				1,
				1,
				1
			],
			"min":[
				-1,
				-1,
				-1
			],
			"type":"VEC3"
		},
		{
			"bufferView":1,
			"componentType":5126,
			"count":260,
			"type":"VEC3"
		},
		{
			"bufferView":2,
			"componentType":5126,
			"count":260,
			"type":"VEC2"
		},
		{
			"bufferView":3,
			"componentType":5123,
			"count":756,
			"type":"SCALAR"
		},
		{
			"bufferView":4,
			"componentType":5126,
			"count":60,
			"max":[
				1,
				1,
				1
			],
			"min":[
				-1,
				-1,
				-1
			],
			"type":"VEC3"
		},
		{
			"bufferView":5,
			"componentType":5126,
			"count":60,
			"type":"VEC3"
		},
		{
			"bufferView":6,
			"componentType":5126,
			"count":60,
			"type":"VEC2"
		},
		{
			"bufferView":7,
			"componentType":5123,
			"count":156,
			"type":"SCALAR"
		},
		{
			"bufferView":8,
			"componentType":5126,
			"count":60,
			"max":[
				1,
				1,
				1
			],
			"min":[
				-1,
				-1,
				-1
			],
			"type":"VEC3"
		},
		{
			"bufferView":9,
			"componentType":5126,
			"count":60,
			"type":"VEC3"
		},
		{
			"bufferView":10,
			"componentType":5126,
			"count":60,
			"type":"VEC2"
		},
		{
			"bufferView":11,
			"componentType":5126,
			"count":192,
			"max":[
				1,
				1,
				1
			],
			"min":[
				-1,
				-1,
				-1
			],
			"type":"VEC3"
		},
		{
			"bufferView":12,
			"componentType":5126,
			"count":192,
			"type":"VEC3"
		},
		{
			"bufferView":13,
			"componentType":5126,
			"count":192,
			"type":"VEC2"
		},
		{
			"bufferView":14,
			"componentType":5123,
			"count":372,
			"type":"SCALAR"
		},
		{
			"bufferView":15,
			"componentType":5126,
			"count":24,
			"max":[
				1,
				1,
				1
			],
			"min":[
				-1,
				-1,
				-1
			],
			"type":"VEC3"
		},
		{
			"bufferView":16,
			"componentType":5126,
			"count":24,
			"type":"VEC3"
		},
		{
			"bufferView":17,
			"componentType":5126,
			"count":24,
			"type":"VEC2"
		},
		{
			"bufferView":18,
			"componentType":5123,
			"count":36,
			"type":"SCALAR"
		},
		{
			"bufferView":19,
			"componentType":5126,
			"count":24,
			"max":[
				1,
				1,
				1
			],
			"min":[
				-1,
				-1,
				-1
			],
			"type":"VEC3"
		},
		{
			"bufferView":20,
			"componentType":5126,
			"count":24,
			"type":"VEC3"
		},
		{
			"bufferView":21,
			"componentType":5126,
			"count":24,
			"type":"VEC2"
		},
		{
			"bufferView":22,
			"componentType":5126,
			"count":93,
			"max":[
				0.9660000205039978,
				0,
				0
			],
			"min":[
				0.20200000703334808,
				0,
				-0.6910000443458557
			],
			"type":"VEC3"
		},
		{
			"bufferView":23,
			"componentType":5126,
			"count":93,
			"type":"VEC3"
		},
		{
			"bufferView":24,
			"componentType":5126,
			"count":93,
			"type":"VEC2"
		},
		{
			"bufferView":25,
			"componentType":5123,
			"count":267,
			"type":"SCALAR"
		},
		{
			"bufferView":26,
			"componentType":5126,
			"count":147,
			"max":[
				0.4240000247955322,
				0,
				0.009000000543892384
			],
			"min":[
				0.06400000303983688,
				0,
				-0.6910000443458557
			],
			"type":"VEC3"
		},
		{
			"bufferView":27,
			"componentType":5126,
			"count":147,
			"type":"VEC3"
		},
		{
			"bufferView":28,
			"componentType":5126,
			"count":147,
			"type":"VEC2"
		},
		{
			"bufferView":29,
			"componentType":5123,
			"count":435,
			"type":"SCALAR"
		},
		{
			"bufferView":30,
			"componentType":5126,
			"count":121,
			"max":[
				0.4650000333786011,
				0,
				0.009000000543892384
			],
			"min":[
				0.04400000348687172,
				0,
				-0.6910000443458557
			],
			"type":"VEC3"
		},
		{
			"bufferView":31,
			"componentType":5126,
			"count":121,
			"type":"VEC3"
		},
		{
			"bufferView":32,
			"componentType":5126,
			"count":121,
			"type":"VEC2"
		},
		{
			"bufferView":33,
			"componentType":5123,
			"count":363,
			"type":"SCALAR"
		},
		{
			"bufferView":34,
			"componentType":5126,
			"count":133,
			"max":[
				0.4610000252723694,
				0,
				0.009000000543892384
			],
			"min":[
				0.036000002175569534,
				0,
				-0.6910000443458557
			],
			"type":"VEC3"
		},
		{
			"bufferView":35,
			"componentType":5126,
			"count":133,
			"type":"VEC3"
		},
		{
			"bufferView":36,
			"componentType":5126,
			"count":133,
			"type":"VEC2"
		},
		{
			"bufferView":37,
			"componentType":5123,
			"count":399,
			"type":"SCALAR"
		},
		{
			"bufferView":38,
			"componentType":5126,
			"count":192,
			"max":[
				1,
				1,
				1
			],
			"min":[
				-1,
				-1,
				-1
			],
			"type":"VEC3"
		},
		{
			"bufferView":39,
			"componentType":5126,
			"count":192,
			"type":"VEC3"
		},
		{
			"bufferView":40,
			"componentType":5126,
			"count":192,
			"type":"VEC2"
		}
	],
	"bufferViews":[
		{
			"buffer":0,
			"byteLength":3120,
			"byteOffset":0,
			"target":34962
		},
		{
			"buffer":0,
			"byteLength":3120,
			"byteOffset":3120,
			"target":34962
		},
		{
			"buffer":0,
			"byteLength":2080,
			"byteOffset":6240,
			"target":34962
		},
		{
			"buffer":0,
			"byteLength":1512,
			"byteOffset":8320,
			"target":34963
		},
		{
			"buffer":0,
			"byteLength":720,
			"byteOffset":9832,
			"target":34962
		},
		{
			"buffer":0,
			"byteLength":720,
			"byteOffset":10552,
			"target":34962
		},
		{
			"buffer":0,
			"byteLength":480,
			"byteOffset":11272,
			"target":34962
		},
		{
			"buffer":0,
			"byteLength":312,
			"byteOffset":11752,
			"target":34963
		},
		{
			"buffer":0,
			"byteLength":720,
			"byteOffset":12064,
			"target":34962
		},
		{
			"buffer":0,
			"byteLength":720,
			"byteOffset":12784,
			"target":34962
		},
		{
			"buffer":0,
			"byteLength":480,
			"byteOffset":13504,
			"target":34962
		},
		{
			"buffer":0,
			"byteLength":2304,
			"byteOffset":13984,
			"target":34962
		},
		{
			"buffer":0,
			"byteLength":2304,
			"byteOffset":16288,
			"target":34962
		},
		{
			"buffer":0,
			"byteLength":1536,
			"byteOffset":18592,
			"target":34962
		},
		{
			"buffer":0,
			"byteLength":744,
			"byteOffset":20128,
			"target":34963
		},
		{
			"buffer":0,
			"byteLength":288,
			"byteOffset":20872,
			"target":34962
		},
		{
			"buffer":0,
			"byteLength":288,
			"byteOffset":21160,
			"target":34962
		},
		{
			"buffer":0,
			"byteLength":192,
			"byteOffset":21448,
			"target":34962
		},
		{
			"buffer":0,
			"byteLength":72,
			"byteOffset":21640,
			"target":34963
		},
		{
			"buffer":0,
			"byteLength":288,
			"byteOffset":21712,
			"target":34962
		},
		{
			"buffer":0,
			"byteLength":288,
			"byteOffset":22000,
			"target":34962
		},
		{
			"buffer":0,
			"byteLength":192,
			"byteOffset":22288,
			"target":34962
		},
		{
			"buffer":0,
			"byteLength":1116,
			"byteOffset":22480,
			"target":34962
		},
		{
			"buffer":0,
			"byteLength":1116,
			"byteOffset":23596,
			"target":34962
		},
		{
			"buffer":0,
			"byteLength":744,
			"byteOffset":24712,
			"target":34962
		},
		{
			"buffer":0,
			"byteLength":534,
			"byteOffset":25456,
			"target":34963
		},
		{
			"buffer":0,
			"byteLength":1764,
			"byteOffset":25992,
			"target":34962
		},
		{
			"buffer":0,
			"byteLength":1764,
			"byteOffset":27756,
			"target":34962
		},
		{
			"buffer":0,
			"byteLength":1176,
			"byteOffset":29520,
			"target":34962
		},
		{
			"buffer":0,
			"byteLength":870,
			"byteOffset":30696,
			"target":34963
		},
		{
			"buffer":0,
			"byteLength":1452,
			"byteOffset":31568,
			"target":34962
		},
		{
			"buffer":0,
			"byteLength":1452,
			"byteOffset":33020,
			"target":34962
		},
		{
			"buffer":0,
			"byteLength":968,
			"byteOffset":34472,
			"target":34962
		},
		{
			"buffer":0,
			"byteLength":726,
			"byteOffset":35440,
			"target":34963
		},
		{
			"buffer":0,
			"byteLength":1596,
			"byteOffset":36168,
			"target":34962
		},
		{
			"buffer":0,
			"byteLength":1596,
			"byteOffset":37764,
			"target":34962
		},
		{
			"buffer":0,
			"byteLength":1064,
			"byteOffset":39360,
			"target":34962
		},
		{
			"buffer":0,
			"byteLength":798,
			"byteOffset":40424,
			"target":34963
		},
		{
			"buffer":0,
			"byteLength":2304,
			"byteOffset":41224,
			"target":34962
		},
		{
			"buffer":0,
			"byteLength":2304,
			"byteOffset":43528,
			"target":34962
		},
		{
			"buffer":0,
			"byteLength":1536,
			"byteOffset":45832,
			"target":34962
		}
	],
	"buffers":[
		{
			"byteLength":47368,
			"uri":"bodyNeedle.bin"
		}
	]
}
