{
	"asset":{
		"generator":"Khronos glTF Blender I/O v4.1.62",
		"version":"2.0"
	},
	"scene":0,
	"scenes":[
		{
			"name":"Scene",
			"nodes":[
				0,
				1,
				2,
				3,
				4,
				5,
				6,
				7,
				8,
				9,
				10,
				11,
				12,
				13,
				14,
				15,
				16
			]
		}
	],
	"nodes":[
		{
			"mesh":0,
			"name":"\u7acb\u65b9\u4f53",
			"rotation":[
				0.2164396047592163,
				0,
				0,
				0.9762960076332092
			],
			"scale":[
				1.600000023841858,
				1,
				0.19999997317790985
			],
			"translation":[
				0,
				1.0116610527038574,
				-2.4151811599731445
			]
		},
		{
			"mesh":1,
			"name":"\u7acb\u65b9\u4f53.001",
			"rotation":[
				-0.2164396047592163,
				0,
				0,
				0.9762960076332092
			],
			"scale":[
				1.600000023841858,
				1,
				0.19999997317790985
			],
			"translation":[
				0,
				1.0116610527038574,
				2.16068172454834
			]
		},
		{
			"mesh":2,
			"name":"\u5186\u67f1.001",
			"rotation":[
				0,
				0,
				-0.7071068286895752,
				0.7071068286895752
			],
			"scale":[
				3.200000047683716,
				0.004000000189989805,
				3.200000047683716
			],
			"translation":[
				1.59988272190094,
				4.821656703948975,
				0
			]
		},
		{
			"mesh":3,
			"name":"\u7403",
			"rotation":[
				0.3420201241970062,
				0,
				0,
				0.9396926760673523
			],
			"scale":[
				1.600000023841858,
				1.5999997854232788,
				1.5999997854232788
			],
			"translation":[
				0,
				8.633596420288086,
				2.7139899730682373
			]
		},
		{
			"mesh":4,
			"name":"\u5186\u67f1.002",
			"rotation":[
				0.3420201241970062,
				0,
				0,
				0.9396926760673523
			],
			"scale":[
				0.11999999731779099,
				0.7999998927116394,
				0.11999998986721039
			],
			"translation":[
				0,
				8.526236534118652,
				2.6579699516296387
			]
		},
		{
			"mesh":5,
			"name":"\u5186\u67f1.003",
			"rotation":[
				-0.3420201241970062,
				0,
				0,
				0.9396926760673523
			],
			"scale":[
				0.11999999731779099,
				0.7999998927116394,
				0.11999998986721039
			],
			"translation":[
				0,
				8.526236534118652,
				-2.6579699516296387
			]
		},
		{
			"mesh":6,
			"name":"\u7acb\u65b9\u4f53.003",
			"scale":[
				0.03999999910593033,
				0.800000011920929,
				0.11999999731779099
			],
			"translation":[
				1.7229413986206055,
				4.185378074645996,
				0
			]
		},
		{
			"mesh":7,
			"name":"\u7acb\u65b9\u4f53.002",
			"scale":[
				0.03999999910593033,
				1.2000000476837158,
				0.07999999821186066
			],
			"translation":[
				1.8196505308151245,
				5.366545677185059,
				0
			]
		},
		{
			"mesh":8,
			"name":"\u30c6\u30ad\u30b9\u30c8",
			"rotation":[
				0.5,
				0.5,
				-0.5,
				0.5
			],
			"scale":[
				2,
				2,
				2
			],
			"translation":[
				1.675926685333252,
				6.178008556365967,
				0.9607316255569458
			]
		},
		{
			"mesh":9,
			"name":"\u30c6\u30ad\u30b9\u30c8.001",
			"rotation":[
				0.5,
				0.5,
				-0.5,
				0.5
			],
			"scale":[
				2,
				2,
				2
			],
			"translation":[
				1.675926685333252,
				4.221656799316406,
				-2.058248281478882
			]
		},
		{
			"mesh":10,
			"name":"\u30c6\u30ad\u30b9\u30c8.002",
			"rotation":[
				0.5,
				0.5,
				-0.5,
				0.5
			],
			"scale":[
				2,
				2,
				2
			],
			"translation":[
				1.675926685333252,
				1.7874841690063477,
				0.588899552822113
			]
		},
		{
			"mesh":11,
			"name":"\u30c6\u30ad\u30b9\u30c8.003",
			"rotation":[
				0.5,
				0.5,
				-0.5,
				0.5
			],
			"scale":[
				2,
				2,
				2
			],
			"translation":[
				1.675926685333252,
				4.221656799316406,
				2.9855377674102783
			]
		},
		{
			"mesh":12,
			"name":"\u5186\u67f1.004",
			"rotation":[
				0,
				0,
				-0.7071068286895752,
				0.7071068286895752
			],
			"scale":[
				0.05999999865889549,
				0.4000000059604645,
				0.05999999865889549
			],
			"translation":[
				1.5374503135681152,
				4.821656703948975,
				0
			]
		},
		{
			"mesh":13,
			"name":"\u5186\u67f1.005",
			"scale":[
				0.30000001192092896,
				0.30000001192092896,
				0.30000001192092896
			],
			"translation":[
				0,
				9.001358032226562,
				0
			]
		},
		{
			"mesh":14,
			"name":"\u5186\u67f1.006",
			"rotation":[
				0.7071068286895752,
				0,
				0,
				0.7071068286895752
			],
			"scale":[
				0.30000001192092896,
				1,
				0.30000001192092896
			],
			"translation":[
				0,
				9.474952697753906,
				0
			]
		},
		{
			"mesh":15,
			"name":"COL",
			"scale":[
				2,
				4.5,
				3.799999952316284
			],
			"translation":[
				0,
				5.147276401519775,
				0
			]
		},
		{
			"mesh":16,
			"name":"\u7403.002",
			"rotation":[
				-0.3420201241970062,
				0,
				0,
				0.9396926760673523
			],
			"scale":[
				1.600000023841858,
				1.5999997854232788,
				1.5999997854232788
			],
			"translation":[
				0,
				8.633600234985352,
				-2.7139899730682373
			]
		}
	],
	"materials":[
		{
			"doubleSided":true,
			"name":"Material",
			"pbrMetallicRoughness":{
				"baseColorFactor":[
					0.800000011920929,
					0.800000011920929,
					0.800000011920929,
					1
				],
				"metallicFactor":0,
				"roughnessFactor":0.5
			}
		},
		{
			"doubleSided":true,
			"name":"\u30de\u30c6\u30ea\u30a2\u30eb.005",
			"pbrMetallicRoughness":{
				"baseColorFactor":[
					0.04577810317277908,
					0.0997714176774025,
					0.8002434968948364,
					1
				],
				"metallicFactor":0,
				"roughnessFactor":0.5
			}
		},
		{
			"doubleSided":true,
			"name":"\u30de\u30c6\u30ea\u30a2\u30eb",
			"pbrMetallicRoughness":{
				"baseColorFactor":[
					0,
					0,
					0,
					1
				],
				"metallicFactor":0,
				"roughnessFactor":0.5
			}
		},
		{
			"doubleSided":true,
			"name":"\u30de\u30c6\u30ea\u30a2\u30eb.001",
			"pbrMetallicRoughness":{
				"baseColorFactor":[
					0,
					0,
					0,
					1
				],
				"metallicFactor":0,
				"roughnessFactor":0.5
			}
		},
		{
			"doubleSided":true,
			"name":"\u30de\u30c6\u30ea\u30a2\u30eb.002",
			"pbrMetallicRoughness":{
				"baseColorFactor":[
					0,
					0,
					0,
					1
				],
				"metallicFactor":0,
				"roughnessFactor":0.5
			}
		},
		{
			"doubleSided":true,
			"name":"\u30de\u30c6\u30ea\u30a2\u30eb.003",
			"pbrMetallicRoughness":{
				"baseColorFactor":[
					0,
					0,
					0,
					1
				],
				"metallicFactor":0,
				"roughnessFactor":0.5
			}
		},
		{
			"doubleSided":true,
			"name":"\u30de\u30c6\u30ea\u30a2\u30eb.004",
			"pbrMetallicRoughness":{
				"baseColorFactor":[
					0,
					0,
					0,
					1
				],
				"metallicFactor":0,
				"roughnessFactor":0.5
			}
		},
		{
			"doubleSided":true,
			"name":"\u30de\u30c6\u30ea\u30a2\u30eb.006",
			"pbrMetallicRoughness":{
				"baseColorFactor":[
					0.4499104619026184,
					0.4499104619026184,
					0.4499104619026184,
					1
				],
				"metallicFactor":0,
				"roughnessFactor":0.5
			}
		},
		{
			"doubleSided":true,
			"name":"\u30de\u30c6\u30ea\u30a2\u30eb.007",
			"pbrMetallicRoughness":{
				"baseColorFactor":[
					0.04577810317277908,
					0.0997714176774025,
					0.8002434968948364,
					1
				],
				"metallicFactor":0,
				"roughnessFactor":0.5
			}
		}
	],
	"meshes":[
		{
			"name":"\u7acb\u65b9\u4f53.003",
			"primitives":[
				{
					"attributes":{
						"POSITION":0,
						"NORMAL":1,
						"TEXCOORD_0":2
					},
					"indices":3,
					"material":0
				}
			]
		},
		{
			"name":"\u7acb\u65b9\u4f53.005",
			"primitives":[
				{
					"attributes":{
						"POSITION":4,
						"NORMAL":5,
						"TEXCOORD_0":6
					},
					"indices":3,
					"material":0
				}
			]
		},
		{
			"name":"\u5186\u67f1.002",
			"primitives":[
				{
					"attributes":{
						"POSITION":7,
						"NORMAL":8,
						"TEXCOORD_0":9
					},
					"indices":10,
					"material":0
				},
				{
					"attributes":{
						"POSITION":11,
						"NORMAL":12,
						"TEXCOORD_0":13
					},
					"indices":14,
					"material":1
				}
			]
		},
		{
			"name":"\u7403",
			"primitives":[
				{
					"attributes":{
						"POSITION":15,
						"NORMAL":16,
						"TEXCOORD_0":17
					},
					"indices":18,
					"material":1
				}
			]
		},
		{
			"name":"\u5186\u67f1.003",
			"primitives":[
				{
					"attributes":{
						"POSITION":19,
						"NORMAL":20,
						"TEXCOORD_0":21
					},
					"indices":22,
					"material":0
				}
			]
		},
		{
			"name":"\u5186\u67f1.004",
			"primitives":[
				{
					"attributes":{
						"POSITION":23,
						"NORMAL":24,
						"TEXCOORD_0":25
					},
					"indices":22,
					"material":0
				}
			]
		},
		{
			"name":"\u7acb\u65b9\u4f53.008",
			"primitives":[
				{
					"attributes":{
						"POSITION":26,
						"NORMAL":27,
						"TEXCOORD_0":28
					},
					"indices":29,
					"material":2
				}
			]
		},
		{
			"name":"\u7acb\u65b9\u4f53.009",
			"primitives":[
				{
					"attributes":{
						"POSITION":30,
						"NORMAL":31,
						"TEXCOORD_0":32
					},
					"indices":29,
					"material":3
				}
			]
		},
		{
			"name":"\u30c6\u30ad\u30b9\u30c8.001",
			"primitives":[
				{
					"attributes":{
						"POSITION":33,
						"NORMAL":34,
						"TEXCOORD_0":35
					},
					"indices":36,
					"material":2
				}
			]
		},
		{
			"name":"\u30c6\u30ad\u30b9\u30c8.002",
			"primitives":[
				{
					"attributes":{
						"POSITION":37,
						"NORMAL":38,
						"TEXCOORD_0":39
					},
					"indices":40,
					"material":4
				}
			]
		},
		{
			"name":"\u30c6\u30ad\u30b9\u30c8.003",
			"primitives":[
				{
					"attributes":{
						"POSITION":41,
						"NORMAL":42,
						"TEXCOORD_0":43
					},
					"indices":44,
					"material":5
				}
			]
		},
		{
			"name":"\u30c6\u30ad\u30b9\u30c8.004",
			"primitives":[
				{
					"attributes":{
						"POSITION":45,
						"NORMAL":46,
						"TEXCOORD_0":47
					},
					"indices":48,
					"material":6
				}
			]
		},
		{
			"name":"\u5186\u67f1.005",
			"primitives":[
				{
					"attributes":{
						"POSITION":49,
						"NORMAL":50,
						"TEXCOORD_0":51
					},
					"indices":22,
					"material":7
				}
			]
		},
		{
			"name":"\u5186\u67f1.001",
			"primitives":[
				{
					"attributes":{
						"POSITION":52,
						"NORMAL":53,
						"TEXCOORD_0":54
					},
					"indices":10,
					"material":0
				}
			]
		},
		{
			"name":"\u5186\u67f1.006",
			"primitives":[
				{
					"attributes":{
						"POSITION":55,
						"NORMAL":56,
						"TEXCOORD_0":57
					},
					"indices":10,
					"material":0
				}
			]
		},
		{
			"name":"\u7acb\u65b9\u4f53",
			"primitives":[
				{
					"attributes":{
						"POSITION":58,
						"NORMAL":59,
						"TEXCOORD_0":60
					},
					"indices":29
				}
			]
		},
		{
			"name":"\u7403.011",
			"primitives":[
				{
					"attributes":{
						"POSITION":61,
						"NORMAL":62,
						"TEXCOORD_0":63
					},
					"indices":64,
					"material":8
				}
			]
		}
	],
	"accessors":[
		{
			"bufferView":0,
			"componentType":5126,
			"count":60,
			"max":[
				1,
				1,
				1
			],
			"min":[
				-1,
				-1,
				-1
			],
			"type":"VEC3"
		},
		{
			"bufferView":1,
			"componentType":5126,
			"count":60,
			"type":"VEC3"
		},
		{
			"bufferView":2,
			"componentType":5126,
			"count":60,
			"type":"VEC2"
		},
		{
			"bufferView":3,
			"componentType":5123,
			"count":156,
			"type":"SCALAR"
		},
		{
			"bufferView":4,
			"componentType":5126,
			"count":60,
			"max":[
				1,
				1,
				1
			],
			"min":[
				-1,
				-1,
				-1
			],
			"type":"VEC3"
		},
		{
			"bufferView":5,
			"componentType":5126,
			"count":60,
			"type":"VEC3"
		},
		{
			"bufferView":6,
			"componentType":5126,
			"count":60,
			"type":"VEC2"
		},
		{
			"bufferView":7,
			"componentType":5126,
			"count":130,
			"max":[
				1,
				1,
				1
			],
			"min":[
				-1,
				-1,
				-1
			],
			"type":"VEC3"
		},
		{
			"bufferView":8,
			"componentType":5126,
			"count":130,
			"type":"VEC3"
		},
		{
			"bufferView":9,
			"componentType":5126,
			"count":130,
			"type":"VEC2"
		},
		{
			"bufferView":10,
			"componentType":5123,
			"count":372,
			"type":"SCALAR"
		},
		{
			"bufferView":11,
			"componentType":5126,
			"count":260,
			"max":[
				1.249999761581421,
				100.029296875,
				1.2499998807907104
			],
			"min":[
				-1.25,
				-899.9706420898438,
				-1.2499998807907104
			],
			"type":"VEC3"
		},
		{
			"bufferView":12,
			"componentType":5126,
			"count":260,
			"type":"VEC3"
		},
		{
			"bufferView":13,
			"componentType":5126,
			"count":260,
			"type":"VEC2"
		},
		{
			"bufferView":14,
			"componentType":5123,
			"count":756,
			"type":"SCALAR"
		},
		{
			"bufferView":15,
			"componentType":5126,
			"count":690,
			"max":[
				0.9999996423721313,
				0.9999999403953552,
				0.9999991655349731
			],
			"min":[
				-0.9999989867210388,
				-0.19509030878543854,
				-1
			],
			"type":"VEC3"
		},
		{
			"bufferView":16,
			"componentType":5126,
			"count":690,
			"type":"VEC3"
		},
		{
			"bufferView":17,
			"componentType":5126,
			"count":690,
			"type":"VEC2"
		},
		{
			"bufferView":18,
			"componentType":5123,
			"count":3456,
			"type":"SCALAR"
		},
		{
			"bufferView":19,
			"componentType":5126,
			"count":192,
			"max":[
				1,
				1,
				1
			],
			"min":[
				-1,
				-1,
				-1
			],
			"type":"VEC3"
		},
		{
			"bufferView":20,
			"componentType":5126,
			"count":192,
			"type":"VEC3"
		},
		{
			"bufferView":21,
			"componentType":5126,
			"count":192,
			"type":"VEC2"
		},
		{
			"bufferView":22,
			"componentType":5123,
			"count":372,
			"type":"SCALAR"
		},
		{
			"bufferView":23,
			"componentType":5126,
			"count":192,
			"max":[
				1,
				1,
				1
			],
			"min":[
				-1,
				-1,
				-1
			],
			"type":"VEC3"
		},
		{
			"bufferView":24,
			"componentType":5126,
			"count":192,
			"type":"VEC3"
		},
		{
			"bufferView":25,
			"componentType":5126,
			"count":192,
			"type":"VEC2"
		},
		{
			"bufferView":26,
			"componentType":5126,
			"count":24,
			"max":[
				1,
				1,
				1
			],
			"min":[
				-1,
				-1,
				-1
			],
			"type":"VEC3"
		},
		{
			"bufferView":27,
			"componentType":5126,
			"count":24,
			"type":"VEC3"
		},
		{
			"bufferView":28,
			"componentType":5126,
			"count":24,
			"type":"VEC2"
		},
		{
			"bufferView":29,
			"componentType":5123,
			"count":36,
			"type":"SCALAR"
		},
		{
			"bufferView":30,
			"componentType":5126,
			"count":24,
			"max":[
				1,
				1,
				1
			],
			"min":[
				-1,
				-1,
				-1
			],
			"type":"VEC3"
		},
		{
			"bufferView":31,
			"componentType":5126,
			"count":24,
			"type":"VEC3"
		},
		{
			"bufferView":32,
			"componentType":5126,
			"count":24,
			"type":"VEC2"
		},
		{
			"bufferView":33,
			"componentType":5126,
			"count":93,
			"max":[
				0.9660000205039978,
				0,
				0
			],
			"min":[
				0.20200000703334808,
				0,
				-0.6910000443458557
			],
			"type":"VEC3"
		},
		{
			"bufferView":34,
			"componentType":5126,
			"count":93,
			"type":"VEC3"
		},
		{
			"bufferView":35,
			"componentType":5126,
			"count":93,
			"type":"VEC2"
		},
		{
			"bufferView":36,
			"componentType":5123,
			"count":267,
			"type":"SCALAR"
		},
		{
			"bufferView":37,
			"componentType":5126,
			"count":147,
			"max":[
				0.4240000247955322,
				0,
				0.009000000543892384
			],
			"min":[
				0.06400000303983688,
				0,
				-0.6910000443458557
			],
			"type":"VEC3"
		},
		{
			"bufferView":38,
			"componentType":5126,
			"count":147,
			"type":"VEC3"
		},
		{
			"bufferView":39,
			"componentType":5126,
			"count":147,
			"type":"VEC2"
		},
		{
			"bufferView":40,
			"componentType":5123,
			"count":435,
			"type":"SCALAR"
		},
		{
			"bufferView":41,
			"componentType":5126,
			"count":121,
			"max":[
				0.4650000333786011,
				0,
				0.009000000543892384
			],
			"min":[
				0.04400000348687172,
				0,
				-0.6910000443458557
			],
			"type":"VEC3"
		},
		{
			"bufferView":42,
			"componentType":5126,
			"count":121,
			"type":"VEC3"
		},
		{
			"bufferView":43,
			"componentType":5126,
			"count":121,
			"type":"VEC2"
		},
		{
			"bufferView":44,
			"componentType":5123,
			"count":363,
			"type":"SCALAR"
		},
		{
			"bufferView":45,
			"componentType":5126,
			"count":133,
			"max":[
				0.4610000252723694,
				0,
				0.009000000543892384
			],
			"min":[
				0.036000002175569534,
				0,
				-0.6910000443458557
			],
			"type":"VEC3"
		},
		{
			"bufferView":46,
			"componentType":5126,
			"count":133,
			"type":"VEC3"
		},
		{
			"bufferView":47,
			"componentType":5126,
			"count":133,
			"type":"VEC2"
		},
		{
			"bufferView":48,
			"componentType":5123,
			"count":399,
			"type":"SCALAR"
		},
		{
			"bufferView":49,
			"componentType":5126,
			"count":192,
			"max":[
				1,
				1,
				1
			],
			"min":[
				-1,
				-1,
				-1
			],
			"type":"VEC3"
		},
		{
			"bufferView":50,
			"componentType":5126,
			"count":192,
			"type":"VEC3"
		},
		{
			"bufferView":51,
			"componentType":5126,
			"count":192,
			"type":"VEC2"
		},
		{
			"bufferView":52,
			"componentType":5126,
			"count":130,
			"max":[
				1,
				1,
				1
			],
			"min":[
				-1,
				-1,
				-1
			],
			"type":"VEC3"
		},
		{
			"bufferView":53,
			"componentType":5126,
			"count":130,
			"type":"VEC3"
		},
		{
			"bufferView":54,
			"componentType":5126,
			"count":130,
			"type":"VEC2"
		},
		{
			"bufferView":55,
			"componentType":5126,
			"count":130,
			"max":[
				1,
				1,
				1
			],
			"min":[
				-1,
				-1,
				-1
			],
			"type":"VEC3"
		},
		{
			"bufferView":56,
			"componentType":5126,
			"count":130,
			"type":"VEC3"
		},
		{
			"bufferView":57,
			"componentType":5126,
			"count":130,
			"type":"VEC2"
		},
		{
			"bufferView":58,
			"componentType":5126,
			"count":24,
			"max":[
				1,
				1,
				1
			],
			"min":[
				-1,
				-1,
				-1
			],
			"type":"VEC3"
		},
		{
			"bufferView":59,
			"componentType":5126,
			"count":24,
			"type":"VEC3"
		},
		{
			"bufferView":60,
			"componentType":5126,
			"count":24,
			"type":"VEC2"
		},
		{
			"bufferView":61,
			"componentType":5126,
			"count":851,
			"max":[
				0.9999995827674866,
				0.999998927116394,
				0.999999463558197
			],
			"min":[
				-0.999998927116394,
				-0.19509124755859375,
				-0.9999996423721313
			],
			"type":"VEC3"
		},
		{
			"bufferView":62,
			"componentType":5126,
			"count":851,
			"type":"VEC3"
		},
		{
			"bufferView":63,
			"componentType":5126,
			"count":851,
			"type":"VEC2"
		},
		{
			"bufferView":64,
			"componentType":5123,
			"count":4026,
			"type":"SCALAR"
		}
	],
	"bufferViews":[
		{
			"buffer":0,
			"byteLength":720,
			"byteOffset":0,
			"target":34962
		},
		{
			"buffer":0,
			"byteLength":720,
			"byteOffset":720,
			"target":34962
		},
		{
			"buffer":0,
			"byteLength":480,
			"byteOffset":1440,
			"target":34962
		},
		{
			"buffer":0,
			"byteLength":312,
			"byteOffset":1920,
			"target":34963
		},
		{
			"buffer":0,
			"byteLength":720,
			"byteOffset":2232,
			"target":34962
		},
		{
			"buffer":0,
			"byteLength":720,
			"byteOffset":2952,
			"target":34962
		},
		{
			"buffer":0,
			"byteLength":480,
			"byteOffset":3672,
			"target":34962
		},
		{
			"buffer":0,
			"byteLength":1560,
			"byteOffset":4152,
			"target":34962
		},
		{
			"buffer":0,
			"byteLength":1560,
			"byteOffset":5712,
			"target":34962
		},
		{
			"buffer":0,
			"byteLength":1040,
			"byteOffset":7272,
			"target":34962
		},
		{
			"buffer":0,
			"byteLength":744,
			"byteOffset":8312,
			"target":34963
		},
		{
			"buffer":0,
			"byteLength":3120,
			"byteOffset":9056,
			"target":34962
		},
		{
			"buffer":0,
			"byteLength":3120,
			"byteOffset":12176,
			"target":34962
		},
		{
			"buffer":0,
			"byteLength":2080,
			"byteOffset":15296,
			"target":34962
		},
		{
			"buffer":0,
			"byteLength":1512,
			"byteOffset":17376,
			"target":34963
		},
		{
			"buffer":0,
			"byteLength":8280,
			"byteOffset":18888,
			"target":34962
		},
		{
			"buffer":0,
			"byteLength":8280,
			"byteOffset":27168,
			"target":34962
		},
		{
			"buffer":0,
			"byteLength":5520,
			"byteOffset":35448,
			"target":34962
		},
		{
			"buffer":0,
			"byteLength":6912,
			"byteOffset":40968,
			"target":34963
		},
		{
			"buffer":0,
			"byteLength":2304,
			"byteOffset":47880,
			"target":34962
		},
		{
			"buffer":0,
			"byteLength":2304,
			"byteOffset":50184,
			"target":34962
		},
		{
			"buffer":0,
			"byteLength":1536,
			"byteOffset":52488,
			"target":34962
		},
		{
			"buffer":0,
			"byteLength":744,
			"byteOffset":54024,
			"target":34963
		},
		{
			"buffer":0,
			"byteLength":2304,
			"byteOffset":54768,
			"target":34962
		},
		{
			"buffer":0,
			"byteLength":2304,
			"byteOffset":57072,
			"target":34962
		},
		{
			"buffer":0,
			"byteLength":1536,
			"byteOffset":59376,
			"target":34962
		},
		{
			"buffer":0,
			"byteLength":288,
			"byteOffset":60912,
			"target":34962
		},
		{
			"buffer":0,
			"byteLength":288,
			"byteOffset":61200,
			"target":34962
		},
		{
			"buffer":0,
			"byteLength":192,
			"byteOffset":61488,
			"target":34962
		},
		{
			"buffer":0,
			"byteLength":72,
			"byteOffset":61680,
			"target":34963
		},
		{
			"buffer":0,
			"byteLength":288,
			"byteOffset":61752,
			"target":34962
		},
		{
			"buffer":0,
			"byteLength":288,
			"byteOffset":62040,
			"target":34962
		},
		{
			"buffer":0,
			"byteLength":192,
			"byteOffset":62328,
			"target":34962
		},
		{
			"buffer":0,
			"byteLength":1116,
			"byteOffset":62520,
			"target":34962
		},
		{
			"buffer":0,
			"byteLength":1116,
			"byteOffset":63636,
			"target":34962
		},
		{
			"buffer":0,
			"byteLength":744,
			"byteOffset":64752,
			"target":34962
		},
		{
			"buffer":0,
			"byteLength":534,
			"byteOffset":65496,
			"target":34963
		},
		{
			"buffer":0,
			"byteLength":1764,
			"byteOffset":66032,
			"target":34962
		},
		{
			"buffer":0,
			"byteLength":1764,
			"byteOffset":67796,
			"target":34962
		},
		{
			"buffer":0,
			"byteLength":1176,
			"byteOffset":69560,
			"target":34962
		},
		{
			"buffer":0,
			"byteLength":870,
			"byteOffset":70736,
			"target":34963
		},
		{
			"buffer":0,
			"byteLength":1452,
			"byteOffset":71608,
			"target":34962
		},
		{
			"buffer":0,
			"byteLength":1452,
			"byteOffset":73060,
			"target":34962
		},
		{
			"buffer":0,
			"byteLength":968,
			"byteOffset":74512,
			"target":34962
		},
		{
			"buffer":0,
			"byteLength":726,
			"byteOffset":75480,
			"target":34963
		},
		{
			"buffer":0,
			"byteLength":1596,
			"byteOffset":76208,
			"target":34962
		},
		{
			"buffer":0,
			"byteLength":1596,
			"byteOffset":77804,
			"target":34962
		},
		{
			"buffer":0,
			"byteLength":1064,
			"byteOffset":79400,
			"target":34962
		},
		{
			"buffer":0,
			"byteLength":798,
			"byteOffset":80464,
			"target":34963
		},
		{
			"buffer":0,
			"byteLength":2304,
			"byteOffset":81264,
			"target":34962
		},
		{
			"buffer":0,
			"byteLength":2304,
			"byteOffset":83568,
			"target":34962
		},
		{
			"buffer":0,
			"byteLength":1536,
			"byteOffset":85872,
			"target":34962
		},
		{
			"buffer":0,
			"byteLength":1560,
			"byteOffset":87408,
			"target":34962
		},
		{
			"buffer":0,
			"byteLength":1560,
			"byteOffset":88968,
			"target":34962
		},
		{
			"buffer":0,
			"byteLength":1040,
			"byteOffset":90528,
			"target":34962
		},
		{
			"buffer":0,
			"byteLength":1560,
			"byteOffset":91568,
			"target":34962
		},
		{
			"buffer":0,
			"byteLength":1560,
			"byteOffset":93128,
			"target":34962
		},
		{
			"buffer":0,
			"byteLength":1040,
			"byteOffset":94688,
			"target":34962
		},
		{
			"buffer":0,
			"byteLength":288,
			"byteOffset":95728,
			"target":34962
		},
		{
			"buffer":0,
			"byteLength":288,
			"byteOffset":96016,
			"target":34962
		},
		{
			"buffer":0,
			"byteLength":192,
			"byteOffset":96304,
			"target":34962
		},
		{
			"buffer":0,
			"byteLength":10212,
			"byteOffset":96496,
			"target":34962
		},
		{
			"buffer":0,
			"byteLength":10212,
			"byteOffset":106708,
			"target":34962
		},
		{
			"buffer":0,
			"byteLength":6808,
			"byteOffset":116920,
			"target":34962
		},
		{
			"buffer":0,
			"byteLength":8052,
			"byteOffset":123728,
			"target":34963
		}
	],
	"buffers":[
		{
			"byteLength":131780,
			"uri":"clock.bin"
		}
	]
}
