{
	"asset":{
		"generator":"Khronos glTF Blender I/O v4.1.62",
		"version":"2.0"
	},
	"scene":0,
	"scenes":[
		{
			"name":"Scene",
			"nodes":[
				0,
				1,
				2,
				3,
				4,
				5,
				6,
				7,
				8,
				9,
				10,
				11,
				12,
				13,
				14,
				15,
				16
			]
		}
	],
	"nodes":[
		{
			"mesh":0,
			"name":"\u5186\u67f1",
			"rotation":[
				0,
				0,
				-0.7071068286895752,
				0.7071068286895752
			],
			"scale":[
				4,
				2,
				4
			],
			"translation":[
				0,
				-0.32561975717544556,
				0
			]
		},
		{
			"mesh":1,
			"name":"\u7acb\u65b9\u4f53",
			"rotation":[
				0.2164396047592163,
				0,
				0,
				0.9762960076332092
			],
			"scale":[
				1.600000023841858,
				1,
				0.19999997317790985
			],
			"translation":[
				-0.6692285537719727,
				-4.135615348815918,
				-2.4151811599731445
			]
		},
		{
			"mesh":2,
			"name":"\u7acb\u65b9\u4f53.001",
			"rotation":[
				-0.2164396047592163,
				0,
				0,
				0.9762960076332092
			],
			"scale":[
				1.600000023841858,
				1,
				0.19999997317790985
			],
			"translation":[
				-0.6692285537719727,
				-4.135615348815918,
				2.16068172454834
			]
		},
		{
			"mesh":3,
			"name":"\u5186\u67f1.001",
			"rotation":[
				0,
				0,
				-0.7071068286895752,
				0.7071068286895752
			],
			"scale":[
				3.200000047683716,
				0.004000000189989805,
				3.200000047683716
			],
			"translation":[
				0.9307714700698853,
				-0.32561975717544556,
				0
			]
		},
		{
			"mesh":4,
			"name":"\u7403",
			"rotation":[
				0.3420201241970062,
				0,
				0,
				0.9396926760673523
			],
			"scale":[
				1.600000023841858,
				1.5999997854232788,
				1.5999997854232788
			],
			"translation":[
				0,
				3.4863200187683105,
				2.7139899730682373
			]
		},
		{
			"mesh":5,
			"name":"\u5186\u67f1.002",
			"rotation":[
				0.3420201241970062,
				0,
				0,
				0.9396926760673523
			],
			"scale":[
				0.11999999731779099,
				0.7999998927116394,
				0.11999998986721039
			],
			"translation":[
				0,
				3.378959894180298,
				2.6579699516296387
			]
		},
		{
			"mesh":6,
			"name":"\u7403.001",
			"rotation":[
				-0.3420201241970062,
				0,
				0,
				0.9396926760673523
			],
			"scale":[
				1.600000023841858,
				1.5999997854232788,
				1.5999997854232788
			],
			"translation":[
				0,
				3.4863200187683105,
				-2.7139899730682373
			]
		},
		{
			"mesh":7,
			"name":"\u5186\u67f1.003",
			"rotation":[
				-0.3420201241970062,
				0,
				0,
				0.9396926760673523
			],
			"scale":[
				0.11999999731779099,
				0.7999998927116394,
				0.11999998986721039
			],
			"translation":[
				0,
				3.378959894180298,
				-2.6579699516296387
			]
		},
		{
			"mesh":8,
			"name":"\u7acb\u65b9\u4f53.003",
			"scale":[
				0.03999999910593033,
				0.800000011920929,
				0.11999999731779099
			],
			"translation":[
				1.0538301467895508,
				-0.9618980884552002,
				0
			]
		},
		{
			"mesh":9,
			"name":"\u7acb\u65b9\u4f53.002",
			"scale":[
				0.03999999910593033,
				1.2000000476837158,
				0.07999999821186066
			],
			"translation":[
				1.1505392789840698,
				0.21926937997341156,
				0
			]
		},
		{
			"mesh":10,
			"name":"\u30c6\u30ad\u30b9\u30c8",
			"rotation":[
				0.5,
				0.5,
				-0.5,
				0.5
			],
			"scale":[
				2,
				2,
				2
			],
			"translation":[
				1.0068154335021973,
				1.0307321548461914,
				0.9607316851615906
			]
		},
		{
			"mesh":11,
			"name":"\u30c6\u30ad\u30b9\u30c8.001",
			"rotation":[
				0.5,
				0.5,
				-0.5,
				0.5
			],
			"scale":[
				2,
				2,
				2
			],
			"translation":[
				1.0068154335021973,
				-0.9256197214126587,
				-2.058248281478882
			]
		},
		{
			"mesh":12,
			"name":"\u30c6\u30ad\u30b9\u30c8.002",
			"rotation":[
				0.5,
				0.5,
				-0.5,
				0.5
			],
			"scale":[
				2,
				2,
				2
			],
			"translation":[
				1.0068154335021973,
				-3.3597922325134277,
				0.588899552822113
			]
		},
		{
			"mesh":13,
			"name":"\u30c6\u30ad\u30b9\u30c8.003",
			"rotation":[
				0.5,
				0.5,
				-0.5,
				0.5
			],
			"scale":[
				2,
				2,
				2
			],
			"translation":[
				1.0068154335021973,
				-0.9256197214126587,
				2.9855377674102783
			]
		},
		{
			"mesh":14,
			"name":"\u5186\u67f1.004",
			"rotation":[
				0,
				0,
				-0.7071068286895752,
				0.7071068286895752
			],
			"scale":[
				0.05999999865889549,
				0.4000000059604645,
				0.05999999865889549
			],
			"translation":[
				0.8683390617370605,
				-0.32561975717544556,
				0
			]
		},
		{
			"mesh":15,
			"name":"\u5186\u67f1.005",
			"scale":[
				0.30000001192092896,
				0.30000001192092896,
				0.30000001192092896
			],
			"translation":[
				0,
				3.854081630706787,
				0
			]
		},
		{
			"mesh":16,
			"name":"\u5186\u67f1.006",
			"rotation":[
				0.7071068286895752,
				0,
				0,
				0.7071068286895752
			],
			"scale":[
				0.30000001192092896,
				1,
				0.30000001192092896
			],
			"translation":[
				0,
				4.327676296234131,
				0
			]
		}
	],
	"materials":[
		{
			"doubleSided":true,
			"name":"\u30de\u30c6\u30ea\u30a2\u30eb.005",
			"pbrMetallicRoughness":{
				"baseColorFactor":[
					0.04577810317277908,
					0.0997714176774025,
					0.8002434968948364,
					1
				],
				"metallicFactor":0,
				"roughnessFactor":0.5
			}
		},
		{
			"doubleSided":true,
			"name":"Material",
			"pbrMetallicRoughness":{
				"baseColorFactor":[
					0.800000011920929,
					0.800000011920929,
					0.800000011920929,
					1
				],
				"metallicFactor":0,
				"roughnessFactor":0.5
			}
		},
		{
			"doubleSided":true,
			"name":"\u30de\u30c6\u30ea\u30a2\u30eb",
			"pbrMetallicRoughness":{
				"baseColorFactor":[
					0,
					0,
					0,
					1
				],
				"metallicFactor":0,
				"roughnessFactor":0.5
			}
		},
		{
			"doubleSided":true,
			"name":"\u30de\u30c6\u30ea\u30a2\u30eb.001",
			"pbrMetallicRoughness":{
				"baseColorFactor":[
					0,
					0,
					0,
					1
				],
				"metallicFactor":0,
				"roughnessFactor":0.5
			}
		},
		{
			"doubleSided":true,
			"name":"\u30de\u30c6\u30ea\u30a2\u30eb.002",
			"pbrMetallicRoughness":{
				"baseColorFactor":[
					0,
					0,
					0,
					1
				],
				"metallicFactor":0,
				"roughnessFactor":0.5
			}
		},
		{
			"doubleSided":true,
			"name":"\u30de\u30c6\u30ea\u30a2\u30eb.003",
			"pbrMetallicRoughness":{
				"baseColorFactor":[
					0,
					0,
					0,
					1
				],
				"metallicFactor":0,
				"roughnessFactor":0.5
			}
		},
		{
			"doubleSided":true,
			"name":"\u30de\u30c6\u30ea\u30a2\u30eb.004",
			"pbrMetallicRoughness":{
				"baseColorFactor":[
					0,
					0,
					0,
					1
				],
				"metallicFactor":0,
				"roughnessFactor":0.5
			}
		},
		{
			"doubleSided":true,
			"name":"\u30de\u30c6\u30ea\u30a2\u30eb.006",
			"pbrMetallicRoughness":{
				"baseColorFactor":[
					0.4499104619026184,
					0.4499104619026184,
					0.4499104619026184,
					1
				],
				"metallicFactor":0,
				"roughnessFactor":0.5
			}
		}
	],
	"meshes":[
		{
			"name":"\u5186\u67f1",
			"primitives":[
				{
					"attributes":{
						"POSITION":0,
						"NORMAL":1,
						"TEXCOORD_0":2
					},
					"indices":3,
					"material":0
				}
			]
		},
		{
			"name":"\u7acb\u65b9\u4f53.003",
			"primitives":[
				{
					"attributes":{
						"POSITION":4,
						"NORMAL":5,
						"TEXCOORD_0":6
					},
					"indices":7,
					"material":1
				}
			]
		},
		{
			"name":"\u7acb\u65b9\u4f53.005",
			"primitives":[
				{
					"attributes":{
						"POSITION":8,
						"NORMAL":9,
						"TEXCOORD_0":10
					},
					"indices":7,
					"material":1
				}
			]
		},
		{
			"name":"\u5186\u67f1.002",
			"primitives":[
				{
					"attributes":{
						"POSITION":11,
						"NORMAL":12,
						"TEXCOORD_0":13
					},
					"indices":14,
					"material":1
				}
			]
		},
		{
			"name":"\u7403",
			"primitives":[
				{
					"attributes":{
						"POSITION":15,
						"NORMAL":16,
						"TEXCOORD_0":17
					},
					"indices":18,
					"material":0
				}
			]
		},
		{
			"name":"\u5186\u67f1.003",
			"primitives":[
				{
					"attributes":{
						"POSITION":19,
						"NORMAL":20,
						"TEXCOORD_0":21
					},
					"indices":14,
					"material":1
				}
			]
		},
		{
			"name":"\u7403.001",
			"primitives":[
				{
					"attributes":{
						"POSITION":22,
						"NORMAL":23,
						"TEXCOORD_0":24
					},
					"indices":18,
					"material":0
				}
			]
		},
		{
			"name":"\u5186\u67f1.004",
			"primitives":[
				{
					"attributes":{
						"POSITION":25,
						"NORMAL":26,
						"TEXCOORD_0":27
					},
					"indices":14,
					"material":1
				}
			]
		},
		{
			"name":"\u7acb\u65b9\u4f53.008",
			"primitives":[
				{
					"attributes":{
						"POSITION":28,
						"NORMAL":29,
						"TEXCOORD_0":30
					},
					"indices":31,
					"material":2
				}
			]
		},
		{
			"name":"\u7acb\u65b9\u4f53.009",
			"primitives":[
				{
					"attributes":{
						"POSITION":32,
						"NORMAL":33,
						"TEXCOORD_0":34
					},
					"indices":31,
					"material":3
				}
			]
		},
		{
			"name":"\u30c6\u30ad\u30b9\u30c8.001",
			"primitives":[
				{
					"attributes":{
						"POSITION":35,
						"NORMAL":36,
						"TEXCOORD_0":37
					},
					"indices":38,
					"material":2
				}
			]
		},
		{
			"name":"\u30c6\u30ad\u30b9\u30c8.002",
			"primitives":[
				{
					"attributes":{
						"POSITION":39,
						"NORMAL":40,
						"TEXCOORD_0":41
					},
					"indices":42,
					"material":4
				}
			]
		},
		{
			"name":"\u30c6\u30ad\u30b9\u30c8.003",
			"primitives":[
				{
					"attributes":{
						"POSITION":43,
						"NORMAL":44,
						"TEXCOORD_0":45
					},
					"indices":46,
					"material":5
				}
			]
		},
		{
			"name":"\u30c6\u30ad\u30b9\u30c8.004",
			"primitives":[
				{
					"attributes":{
						"POSITION":47,
						"NORMAL":48,
						"TEXCOORD_0":49
					},
					"indices":50,
					"material":6
				}
			]
		},
		{
			"name":"\u5186\u67f1.005",
			"primitives":[
				{
					"attributes":{
						"POSITION":51,
						"NORMAL":52,
						"TEXCOORD_0":53
					},
					"indices":14,
					"material":7
				}
			]
		},
		{
			"name":"\u5186\u67f1.001",
			"primitives":[
				{
					"attributes":{
						"POSITION":54,
						"NORMAL":55,
						"TEXCOORD_0":56
					},
					"indices":57,
					"material":1
				}
			]
		},
		{
			"name":"\u5186\u67f1.006",
			"primitives":[
				{
					"attributes":{
						"POSITION":58,
						"NORMAL":59,
						"TEXCOORD_0":60
					},
					"indices":57,
					"material":1
				}
			]
		}
	],
	"accessors":[
		{
			"bufferView":0,
			"componentType":5126,
			"count":260,
			"max":[
				1,
				1,
				1
			],
			"min":[
				-1,
				-1,
				-1
			],
			"type":"VEC3"
		},
		{
			"bufferView":1,
			"componentType":5126,
			"count":260,
			"type":"VEC3"
		},
		{
			"bufferView":2,
			"componentType":5126,
			"count":260,
			"type":"VEC2"
		},
		{
			"bufferView":3,
			"componentType":5123,
			"count":756,
			"type":"SCALAR"
		},
		{
			"bufferView":4,
			"componentType":5126,
			"count":60,
			"max":[
				1,
				1,
				1
			],
			"min":[
				-1,
				-1,
				-1
			],
			"type":"VEC3"
		},
		{
			"bufferView":5,
			"componentType":5126,
			"count":60,
			"type":"VEC3"
		},
		{
			"bufferView":6,
			"componentType":5126,
			"count":60,
			"type":"VEC2"
		},
		{
			"bufferView":7,
			"componentType":5123,
			"count":156,
			"type":"SCALAR"
		},
		{
			"bufferView":8,
			"componentType":5126,
			"count":60,
			"max":[
				1,
				1,
				1
			],
			"min":[
				-1,
				-1,
				-1
			],
			"type":"VEC3"
		},
		{
			"bufferView":9,
			"componentType":5126,
			"count":60,
			"type":"VEC3"
		},
		{
			"bufferView":10,
			"componentType":5126,
			"count":60,
			"type":"VEC2"
		},
		{
			"bufferView":11,
			"componentType":5126,
			"count":192,
			"max":[
				1,
				1,
				1
			],
			"min":[
				-1,
				-1,
				-1
			],
			"type":"VEC3"
		},
		{
			"bufferView":12,
			"componentType":5126,
			"count":192,
			"type":"VEC3"
		},
		{
			"bufferView":13,
			"componentType":5126,
			"count":192,
			"type":"VEC2"
		},
		{
			"bufferView":14,
			"componentType":5123,
			"count":372,
			"type":"SCALAR"
		},
		{
			"bufferView":15,
			"componentType":5126,
			"count":329,
			"max":[
				0.9999997019767761,
				1,
				0.9999993443489075
			],
			"min":[
				-0.9999990463256836,
				-0.19509032368659973,
				-1
			],
			"type":"VEC3"
		},
		{
			"bufferView":16,
			"componentType":5126,
			"count":329,
			"type":"VEC3"
		},
		{
			"bufferView":17,
			"componentType":5126,
			"count":329,
			"type":"VEC2"
		},
		{
			"bufferView":18,
			"componentType":5123,
			"count":1632,
			"type":"SCALAR"
		},
		{
			"bufferView":19,
			"componentType":5126,
			"count":192,
			"max":[
				1,
				1,
				1
			],
			"min":[
				-1,
				-1,
				-1
			],
			"type":"VEC3"
		},
		{
			"bufferView":20,
			"componentType":5126,
			"count":192,
			"type":"VEC3"
		},
		{
			"bufferView":21,
			"componentType":5126,
			"count":192,
			"type":"VEC2"
		},
		{
			"bufferView":22,
			"componentType":5126,
			"count":329,
			"max":[
				0.9999997019767761,
				1,
				0.9999993443489075
			],
			"min":[
				-0.9999990463256836,
				-0.19509032368659973,
				-1
			],
			"type":"VEC3"
		},
		{
			"bufferView":23,
			"componentType":5126,
			"count":329,
			"type":"VEC3"
		},
		{
			"bufferView":24,
			"componentType":5126,
			"count":329,
			"type":"VEC2"
		},
		{
			"bufferView":25,
			"componentType":5126,
			"count":192,
			"max":[
				1,
				1,
				1
			],
			"min":[
				-1,
				-1,
				-1
			],
			"type":"VEC3"
		},
		{
			"bufferView":26,
			"componentType":5126,
			"count":192,
			"type":"VEC3"
		},
		{
			"bufferView":27,
			"componentType":5126,
			"count":192,
			"type":"VEC2"
		},
		{
			"bufferView":28,
			"componentType":5126,
			"count":24,
			"max":[
				1,
				1,
				1
			],
			"min":[
				-1,
				-1,
				-1
			],
			"type":"VEC3"
		},
		{
			"bufferView":29,
			"componentType":5126,
			"count":24,
			"type":"VEC3"
		},
		{
			"bufferView":30,
			"componentType":5126,
			"count":24,
			"type":"VEC2"
		},
		{
			"bufferView":31,
			"componentType":5123,
			"count":36,
			"type":"SCALAR"
		},
		{
			"bufferView":32,
			"componentType":5126,
			"count":24,
			"max":[
				1,
				1,
				1
			],
			"min":[
				-1,
				-1,
				-1
			],
			"type":"VEC3"
		},
		{
			"bufferView":33,
			"componentType":5126,
			"count":24,
			"type":"VEC3"
		},
		{
			"bufferView":34,
			"componentType":5126,
			"count":24,
			"type":"VEC2"
		},
		{
			"bufferView":35,
			"componentType":5126,
			"count":93,
			"max":[
				0.9660000205039978,
				0,
				0
			],
			"min":[
				0.20200000703334808,
				0,
				-0.6910000443458557
			],
			"type":"VEC3"
		},
		{
			"bufferView":36,
			"componentType":5126,
			"count":93,
			"type":"VEC3"
		},
		{
			"bufferView":37,
			"componentType":5126,
			"count":93,
			"type":"VEC2"
		},
		{
			"bufferView":38,
			"componentType":5123,
			"count":267,
			"type":"SCALAR"
		},
		{
			"bufferView":39,
			"componentType":5126,
			"count":147,
			"max":[
				0.4240000247955322,
				0,
				0.009000000543892384
			],
			"min":[
				0.06400000303983688,
				0,
				-0.6910000443458557
			],
			"type":"VEC3"
		},
		{
			"bufferView":40,
			"componentType":5126,
			"count":147,
			"type":"VEC3"
		},
		{
			"bufferView":41,
			"componentType":5126,
			"count":147,
			"type":"VEC2"
		},
		{
			"bufferView":42,
			"componentType":5123,
			"count":435,
			"type":"SCALAR"
		},
		{
			"bufferView":43,
			"componentType":5126,
			"count":121,
			"max":[
				0.4650000333786011,
				0,
				0.009000000543892384
			],
			"min":[
				0.04400000348687172,
				0,
				-0.6910000443458557
			],
			"type":"VEC3"
		},
		{
			"bufferView":44,
			"componentType":5126,
			"count":121,
			"type":"VEC3"
		},
		{
			"bufferView":45,
			"componentType":5126,
			"count":121,
			"type":"VEC2"
		},
		{
			"bufferView":46,
			"componentType":5123,
			"count":363,
			"type":"SCALAR"
		},
		{
			"bufferView":47,
			"componentType":5126,
			"count":133,
			"max":[
				0.4610000252723694,
				0,
				0.009000000543892384
			],
			"min":[
				0.036000002175569534,
				0,
				-0.6910000443458557
			],
			"type":"VEC3"
		},
		{
			"bufferView":48,
			"componentType":5126,
			"count":133,
			"type":"VEC3"
		},
		{
			"bufferView":49,
			"componentType":5126,
			"count":133,
			"type":"VEC2"
		},
		{
			"bufferView":50,
			"componentType":5123,
			"count":399,
			"type":"SCALAR"
		},
		{
			"bufferView":51,
			"componentType":5126,
			"count":192,
			"max":[
				1,
				1,
				1
			],
			"min":[
				-1,
				-1,
				-1
			],
			"type":"VEC3"
		},
		{
			"bufferView":52,
			"componentType":5126,
			"count":192,
			"type":"VEC3"
		},
		{
			"bufferView":53,
			"componentType":5126,
			"count":192,
			"type":"VEC2"
		},
		{
			"bufferView":54,
			"componentType":5126,
			"count":130,
			"max":[
				1,
				1,
				1
			],
			"min":[
				-1,
				-1,
				-1
			],
			"type":"VEC3"
		},
		{
			"bufferView":55,
			"componentType":5126,
			"count":130,
			"type":"VEC3"
		},
		{
			"bufferView":56,
			"componentType":5126,
			"count":130,
			"type":"VEC2"
		},
		{
			"bufferView":57,
			"componentType":5123,
			"count":372,
			"type":"SCALAR"
		},
		{
			"bufferView":58,
			"componentType":5126,
			"count":130,
			"max":[
				1,
				1,
				1
			],
			"min":[
				-1,
				-1,
				-1
			],
			"type":"VEC3"
		},
		{
			"bufferView":59,
			"componentType":5126,
			"count":130,
			"type":"VEC3"
		},
		{
			"bufferView":60,
			"componentType":5126,
			"count":130,
			"type":"VEC2"
		}
	],
	"bufferViews":[
		{
			"buffer":0,
			"byteLength":3120,
			"byteOffset":0,
			"target":34962
		},
		{
			"buffer":0,
			"byteLength":3120,
			"byteOffset":3120,
			"target":34962
		},
		{
			"buffer":0,
			"byteLength":2080,
			"byteOffset":6240,
			"target":34962
		},
		{
			"buffer":0,
			"byteLength":1512,
			"byteOffset":8320,
			"target":34963
		},
		{
			"buffer":0,
			"byteLength":720,
			"byteOffset":9832,
			"target":34962
		},
		{
			"buffer":0,
			"byteLength":720,
			"byteOffset":10552,
			"target":34962
		},
		{
			"buffer":0,
			"byteLength":480,
			"byteOffset":11272,
			"target":34962
		},
		{
			"buffer":0,
			"byteLength":312,
			"byteOffset":11752,
			"target":34963
		},
		{
			"buffer":0,
			"byteLength":720,
			"byteOffset":12064,
			"target":34962
		},
		{
			"buffer":0,
			"byteLength":720,
			"byteOffset":12784,
			"target":34962
		},
		{
			"buffer":0,
			"byteLength":480,
			"byteOffset":13504,
			"target":34962
		},
		{
			"buffer":0,
			"byteLength":2304,
			"byteOffset":13984,
			"target":34962
		},
		{
			"buffer":0,
			"byteLength":2304,
			"byteOffset":16288,
			"target":34962
		},
		{
			"buffer":0,
			"byteLength":1536,
			"byteOffset":18592,
			"target":34962
		},
		{
			"buffer":0,
			"byteLength":744,
			"byteOffset":20128,
			"target":34963
		},
		{
			"buffer":0,
			"byteLength":3948,
			"byteOffset":20872,
			"target":34962
		},
		{
			"buffer":0,
			"byteLength":3948,
			"byteOffset":24820,
			"target":34962
		},
		{
			"buffer":0,
			"byteLength":2632,
			"byteOffset":28768,
			"target":34962
		},
		{
			"buffer":0,
			"byteLength":3264,
			"byteOffset":31400,
			"target":34963
		},
		{
			"buffer":0,
			"byteLength":2304,
			"byteOffset":34664,
			"target":34962
		},
		{
			"buffer":0,
			"byteLength":2304,
			"byteOffset":36968,
			"target":34962
		},
		{
			"buffer":0,
			"byteLength":1536,
			"byteOffset":39272,
			"target":34962
		},
		{
			"buffer":0,
			"byteLength":3948,
			"byteOffset":40808,
			"target":34962
		},
		{
			"buffer":0,
			"byteLength":3948,
			"byteOffset":44756,
			"target":34962
		},
		{
			"buffer":0,
			"byteLength":2632,
			"byteOffset":48704,
			"target":34962
		},
		{
			"buffer":0,
			"byteLength":2304,
			"byteOffset":51336,
			"target":34962
		},
		{
			"buffer":0,
			"byteLength":2304,
			"byteOffset":53640,
			"target":34962
		},
		{
			"buffer":0,
			"byteLength":1536,
			"byteOffset":55944,
			"target":34962
		},
		{
			"buffer":0,
			"byteLength":288,
			"byteOffset":57480,
			"target":34962
		},
		{
			"buffer":0,
			"byteLength":288,
			"byteOffset":57768,
			"target":34962
		},
		{
			"buffer":0,
			"byteLength":192,
			"byteOffset":58056,
			"target":34962
		},
		{
			"buffer":0,
			"byteLength":72,
			"byteOffset":58248,
			"target":34963
		},
		{
			"buffer":0,
			"byteLength":288,
			"byteOffset":58320,
			"target":34962
		},
		{
			"buffer":0,
			"byteLength":288,
			"byteOffset":58608,
			"target":34962
		},
		{
			"buffer":0,
			"byteLength":192,
			"byteOffset":58896,
			"target":34962
		},
		{
			"buffer":0,
			"byteLength":1116,
			"byteOffset":59088,
			"target":34962
		},
		{
			"buffer":0,
			"byteLength":1116,
			"byteOffset":60204,
			"target":34962
		},
		{
			"buffer":0,
			"byteLength":744,
			"byteOffset":61320,
			"target":34962
		},
		{
			"buffer":0,
			"byteLength":534,
			"byteOffset":62064,
			"target":34963
		},
		{
			"buffer":0,
			"byteLength":1764,
			"byteOffset":62600,
			"target":34962
		},
		{
			"buffer":0,
			"byteLength":1764,
			"byteOffset":64364,
			"target":34962
		},
		{
			"buffer":0,
			"byteLength":1176,
			"byteOffset":66128,
			"target":34962
		},
		{
			"buffer":0,
			"byteLength":870,
			"byteOffset":67304,
			"target":34963
		},
		{
			"buffer":0,
			"byteLength":1452,
			"byteOffset":68176,
			"target":34962
		},
		{
			"buffer":0,
			"byteLength":1452,
			"byteOffset":69628,
			"target":34962
		},
		{
			"buffer":0,
			"byteLength":968,
			"byteOffset":71080,
			"target":34962
		},
		{
			"buffer":0,
			"byteLength":726,
			"byteOffset":72048,
			"target":34963
		},
		{
			"buffer":0,
			"byteLength":1596,
			"byteOffset":72776,
			"target":34962
		},
		{
			"buffer":0,
			"byteLength":1596,
			"byteOffset":74372,
			"target":34962
		},
		{
			"buffer":0,
			"byteLength":1064,
			"byteOffset":75968,
			"target":34962
		},
		{
			"buffer":0,
			"byteLength":798,
			"byteOffset":77032,
			"target":34963
		},
		{
			"buffer":0,
			"byteLength":2304,
			"byteOffset":77832,
			"target":34962
		},
		{
			"buffer":0,
			"byteLength":2304,
			"byteOffset":80136,
			"target":34962
		},
		{
			"buffer":0,
			"byteLength":1536,
			"byteOffset":82440,
			"target":34962
		},
		{
			"buffer":0,
			"byteLength":1560,
			"byteOffset":83976,
			"target":34962
		},
		{
			"buffer":0,
			"byteLength":1560,
			"byteOffset":85536,
			"target":34962
		},
		{
			"buffer":0,
			"byteLength":1040,
			"byteOffset":87096,
			"target":34962
		},
		{
			"buffer":0,
			"byteLength":744,
			"byteOffset":88136,
			"target":34963
		},
		{
			"buffer":0,
			"byteLength":1560,
			"byteOffset":88880,
			"target":34962
		},
		{
			"buffer":0,
			"byteLength":1560,
			"byteOffset":90440,
			"target":34962
		},
		{
			"buffer":0,
			"byteLength":1040,
			"byteOffset":92000,
			"target":34962
		}
	],
	"buffers":[
		{
			"byteLength":93040,
			"uri":"clock.bin"
		}
	]
}
