{
	"asset":{
		"generator":"Khronos glTF Blender I/O v4.1.62",
		"version":"2.0"
	},
	"scene":0,
	"scenes":[
		{
			"name":"Scene",
			"nodes":[
				0,
				1,
				2
			]
		}
	],
	"nodes":[
		{
			"mesh":0,
			"name":"Simple Queensize Bed",
			"rotation":[
				0.0013972793240100145,
				-0.03626852110028267,
				-0.0384720154106617,
				0.9986003041267395
			],
			"scale":[
				0.7213238477706909,
				0.17963118851184845,
				1.5067397356033325
			],
			"translation":[
				0.855418860912323,
				2.1932201385498047,
				0.9590188264846802
			]
		},
		{
			"mesh":1,
			"name":"Cube.001",
			"scale":[
				4.490773677825928,
				0.42399194836616516,
				2.792417287826538
			],
			"translation":[
				4.640913009643555,
				1.5506969690322876,
				0.05934429168701172
			]
		},
		{
			"mesh":2,
			"name":"Cube",
			"scale":[
				0.06469899415969849,
				1.3007879257202148,
				2.9101803302764893
			],
			"translation":[
				0,
				1.541092038154602,
				0
			]
		}
	],
	"materials":[
		{
			"doubleSided":true,
			"name":"\u30de\u30c6\u30ea\u30a2\u30eb",
			"pbrMetallicRoughness":{
				"baseColorFactor":[
					0.1094207763671875,
					0.43787407875061035,
					0.8002588152885437,
					1
				],
				"metallicFactor":0,
				"roughnessFactor":0.5
			}
		},
		{
			"doubleSided":true,
			"name":"\u30de\u30c6\u30ea\u30a2\u30eb.001",
			"pbrMetallicRoughness":{
				"baseColorFactor":[
					0.8003387451171875,
					0.47614121437072754,
					0.08006124198436737,
					1
				],
				"metallicFactor":0,
				"roughnessFactor":0.5
			}
		}
	],
	"meshes":[
		{
			"name":"Cube.002",
			"primitives":[
				{
					"attributes":{
						"POSITION":0,
						"NORMAL":1
					},
					"indices":2,
					"material":0
				}
			]
		},
		{
			"name":"Cube.001",
			"primitives":[
				{
					"attributes":{
						"POSITION":3,
						"NORMAL":4
					},
					"indices":5,
					"material":0
				}
			]
		},
		{
			"name":"Cube.003",
			"primitives":[
				{
					"attributes":{
						"POSITION":6,
						"NORMAL":7,
						"TEXCOORD_0":8
					},
					"indices":9,
					"material":1
				}
			]
		}
	],
	"accessors":[
		{
			"bufferView":0,
			"componentType":5126,
			"count":358,
			"max":[
				1.8046241998672485,
				2.567159652709961,
				1
			],
			"min":[
				-1,
				-1.5002076625823975,
				-2.4249210357666016
			],
			"type":"VEC3"
		},
		{
			"bufferView":1,
			"componentType":5126,
			"count":358,
			"type":"VEC3"
		},
		{
			"bufferView":2,
			"componentType":5123,
			"count":672,
			"type":"SCALAR"
		},
		{
			"bufferView":3,
			"componentType":5126,
			"count":486,
			"max":[
				1,
				1,
				1
			],
			"min":[
				-1,
				-1,
				-1
			],
			"type":"VEC3"
		},
		{
			"bufferView":4,
			"componentType":5126,
			"count":486,
			"type":"VEC3"
		},
		{
			"bufferView":5,
			"componentType":5123,
			"count":1296,
			"type":"SCALAR"
		},
		{
			"bufferView":6,
			"componentType":5126,
			"count":216,
			"max":[
				146.76416015625,
				1.0269492864608765,
				1.0866690874099731
			],
			"min":[
				-2.4726901054382324,
				-1.1363606452941895,
				-1.1121418476104736
			],
			"type":"VEC3"
		},
		{
			"bufferView":7,
			"componentType":5126,
			"count":216,
			"type":"VEC3"
		},
		{
			"bufferView":8,
			"componentType":5126,
			"count":216,
			"type":"VEC2"
		},
		{
			"bufferView":9,
			"componentType":5123,
			"count":324,
			"type":"SCALAR"
		}
	],
	"bufferViews":[
		{
			"buffer":0,
			"byteLength":4296,
			"byteOffset":0,
			"target":34962
		},
		{
			"buffer":0,
			"byteLength":4296,
			"byteOffset":4296,
			"target":34962
		},
		{
			"buffer":0,
			"byteLength":1344,
			"byteOffset":8592,
			"target":34963
		},
		{
			"buffer":0,
			"byteLength":5832,
			"byteOffset":9936,
			"target":34962
		},
		{
			"buffer":0,
			"byteLength":5832,
			"byteOffset":15768,
			"target":34962
		},
		{
			"buffer":0,
			"byteLength":2592,
			"byteOffset":21600,
			"target":34963
		},
		{
			"buffer":0,
			"byteLength":2592,
			"byteOffset":24192,
			"target":34962
		},
		{
			"buffer":0,
			"byteLength":2592,
			"byteOffset":26784,
			"target":34962
		},
		{
			"buffer":0,
			"byteLength":1728,
			"byteOffset":29376,
			"target":34962
		},
		{
			"buffer":0,
			"byteLength":648,
			"byteOffset":31104,
			"target":34963
		}
	],
	"buffers":[
		{
			"byteLength":31752,
			"uri":"bed.bin"
		}
	]
}
