{
	"asset":{
		"generator":"Khronos glTF Blender I/O v4.1.62",
		"version":"2.0"
	},
	"scene":0,
	"scenes":[
		{
			"name":"Scene",
			"nodes":[
				0
			]
		}
	],
	"nodes":[
		{
			"mesh":0,
			"name":"Brown Door",
			"scale":[
				0.988543689250946,
				1.7811459302902222,
				0.0982336476445198
			]
		}
	],
	"materials":[
		{
			"doubleSided":true,
			"name":"Material.001",
			"pbrMetallicRoughness":{
				"baseColorFactor":[
					0.31853827834129333,
					0.08519919216632843,
					0.007809871342033148,
					1
				],
				"metallicFactor":0,
				"roughnessFactor":0.5
			}
		},
		{
			"doubleSided":true,
			"name":"Material.002",
			"pbrMetallicRoughness":{
				"baseColorFactor":[
					0.800000011920929,
					0.800000011920929,
					0.800000011920929,
					1
				],
				"metallicFactor":0,
				"roughnessFactor":0.5
			}
		},
		{
			"doubleSided":true,
			"name":"Material.003",
			"pbrMetallicRoughness":{
				"baseColorFactor":[
					0.36484891176223755,
					0.5835878252983093,
					0.7484002113342285,
					1
				],
				"metallicFactor":0,
				"roughnessFactor":0.5
			}
		}
	],
	"meshes":[
		{
			"name":"Cube.001",
			"primitives":[
				{
					"attributes":{
						"POSITION":0,
						"NORMAL":1
					},
					"indices":2,
					"material":0
				},
				{
					"attributes":{
						"POSITION":3,
						"NORMAL":4
					},
					"indices":5,
					"material":1
				},
				{
					"attributes":{
						"POSITION":6,
						"NORMAL":7
					},
					"indices":8,
					"material":2
				}
			]
		}
	],
	"accessors":[
		{
			"bufferView":0,
			"componentType":5126,
			"count":116,
			"max":[
				2.0000014305114746,
				1.1670341491699219,
				1.033738136291504
			],
			"min":[
				1.3709068298339844e-06,
				-0.8329657316207886,
				-0.9662621021270752
			],
			"type":"VEC3"
		},
		{
			"bufferView":1,
			"componentType":5126,
			"count":116,
			"type":"VEC3"
		},
		{
			"bufferView":2,
			"componentType":5123,
			"count":222,
			"type":"SCALAR"
		},
		{
			"bufferView":3,
			"componentType":5126,
			"count":216,
			"max":[
				1.8721294403076172,
				0.16084466874599457,
				1.3434715270996094
			],
			"min":[
				1.6670634746551514,
				0.11788725107908249,
				0.4930180013179779
			],
			"type":"VEC3"
		},
		{
			"bufferView":4,
			"componentType":5126,
			"count":216,
			"type":"VEC3"
		},
		{
			"bufferView":5,
			"componentType":5123,
			"count":324,
			"type":"SCALAR"
		},
		{
			"bufferView":6,
			"componentType":5126,
			"count":4,
			"max":[
				1.7715235948562622,
				0.9799854159355164,
				0.4693300724029541
			],
			"min":[
				0.2433638721704483,
				0.26812079548835754,
				0.46932995319366455
			],
			"type":"VEC3"
		},
		{
			"bufferView":7,
			"componentType":5126,
			"count":4,
			"type":"VEC3"
		},
		{
			"bufferView":8,
			"componentType":5123,
			"count":6,
			"type":"SCALAR"
		}
	],
	"bufferViews":[
		{
			"buffer":0,
			"byteLength":1392,
			"byteOffset":0,
			"target":34962
		},
		{
			"buffer":0,
			"byteLength":1392,
			"byteOffset":1392,
			"target":34962
		},
		{
			"buffer":0,
			"byteLength":444,
			"byteOffset":2784,
			"target":34963
		},
		{
			"buffer":0,
			"byteLength":2592,
			"byteOffset":3228,
			"target":34962
		},
		{
			"buffer":0,
			"byteLength":2592,
			"byteOffset":5820,
			"target":34962
		},
		{
			"buffer":0,
			"byteLength":648,
			"byteOffset":8412,
			"target":34963
		},
		{
			"buffer":0,
			"byteLength":48,
			"byteOffset":9060,
			"target":34962
		},
		{
			"buffer":0,
			"byteLength":48,
			"byteOffset":9108,
			"target":34962
		},
		{
			"buffer":0,
			"byteLength":12,
			"byteOffset":9156,
			"target":34963
		}
	],
	"buffers":[
		{
			"byteLength":9168,
			"uri":"door.bin"
		}
	]
}
