{
	"asset":{
		"generator":"Khronos glTF Blender I/O v4.1.62",
		"version":"2.0"
	},
	"scene":0,
	"scenes":[
		{
			"name":"Scene",
			"nodes":[
				0,
				1
			]
		}
	],
	"nodes":[
		{
			"mesh":0,
			"name":"COL",
			"scale":[
				5.800000190734863,
				2.799999952316284,
				2.700000047683716
			]
		},
		{
			"mesh":1,
			"name":"ICO\u7403"
		}
	],
	"materials":[
		{
			"doubleSided":true,
			"name":"\u30de\u30c6\u30ea\u30a2\u30eb",
			"pbrMetallicRoughness":{
				"metallicFactor":0
			}
		}
	],
	"meshes":[
		{
			"name":"\u7acb\u65b9\u4f53",
			"primitives":[
				{
					"attributes":{
						"POSITION":0,
						"NORMAL":1,
						"TEXCOORD_0":2
					},
					"indices":3
				}
			]
		},
		{
			"name":"ICO\u7403",
			"primitives":[
				{
					"attributes":{
						"POSITION":4,
						"NORMAL":5,
						"TEXCOORD_0":6
					},
					"indices":7,
					"material":0
				}
			]
		}
	],
	"accessors":[
		{
			"bufferView":0,
			"componentType":5126,
			"count":24,
			"max":[
				1,
				1,
				1
			],
			"min":[
				-1,
				-1,
				-1
			],
			"type":"VEC3"
		},
		{
			"bufferView":1,
			"componentType":5126,
			"count":24,
			"type":"VEC3"
		},
		{
			"bufferView":2,
			"componentType":5126,
			"count":24,
			"type":"VEC2"
		},
		{
			"bufferView":3,
			"componentType":5123,
			"count":36,
			"type":"SCALAR"
		},
		{
			"bufferView":4,
			"componentType":5126,
			"count":6953,
			"max":[
				2.2894084453582764,
				1.0659757852554321,
				1.183896780014038
			],
			"min":[
				-1.9504369497299194,
				-1.0911979675292969,
				-1.1820297241210938
			],
			"type":"VEC3"
		},
		{
			"bufferView":5,
			"componentType":5126,
			"count":6953,
			"type":"VEC3"
		},
		{
			"bufferView":6,
			"componentType":5126,
			"count":6953,
			"type":"VEC2"
		},
		{
			"bufferView":7,
			"componentType":5123,
			"count":35328,
			"type":"SCALAR"
		}
	],
	"bufferViews":[
		{
			"buffer":0,
			"byteLength":288,
			"byteOffset":0,
			"target":34962
		},
		{
			"buffer":0,
			"byteLength":288,
			"byteOffset":288,
			"target":34962
		},
		{
			"buffer":0,
			"byteLength":192,
			"byteOffset":576,
			"target":34962
		},
		{
			"buffer":0,
			"byteLength":72,
			"byteOffset":768,
			"target":34963
		},
		{
			"buffer":0,
			"byteLength":83436,
			"byteOffset":840,
			"target":34962
		},
		{
			"buffer":0,
			"byteLength":83436,
			"byteOffset":84276,
			"target":34962
		},
		{
			"buffer":0,
			"byteLength":55624,
			"byteOffset":167712,
			"target":34962
		},
		{
			"buffer":0,
			"byteLength":70656,
			"byteOffset":223336,
			"target":34963
		}
	],
	"buffers":[
		{
			"byteLength":293992,
			"uri":"cloud.bin"
		}
	]
}
