{
	"asset":{
		"generator":"Khronos glTF Blender I/O v4.1.62",
		"version":"2.0"
	},
	"scene":0,
	"scenes":[
		{
			"name":"Scene",
			"nodes":[
				0
			]
		}
	],
	"nodes":[
		{
			"mesh":0,
			"name":"\u7acb\u65b9\u4f53.002",
			"rotation":[
				0.1530459225177765,
				-0.6903455257415771,
				0.15304593741893768,
				0.6903455257415771
			],
			"scale":[
				0.36000001430511475,
				0.22499999403953552,
				0.04500000178813934
			],
			"translation":[
				0,
				2.487489700317383,
				0
			]
		}
	],
	"materials":[
		{
			"doubleSided":true,
			"name":"Material.005",
			"pbrMetallicRoughness":{
				"baseColorFactor":[
					0.800000011920929,
					0.800000011920929,
					0.800000011920929,
					1
				],
				"metallicFactor":0,
				"roughnessFactor":0.5
			}
		},
		{
			"doubleSided":true,
			"name":"\u30de\u30c6\u30ea\u30a2\u30eb.005",
			"pbrMetallicRoughness":{
				"baseColorFactor":[
					0.04577810317277908,
					0.0997714176774025,
					0.8002434968948364,
					1
				],
				"metallicFactor":0,
				"roughnessFactor":0.5
			}
		}
	],
	"meshes":[
		{
			"name":"\u7acb\u65b9\u4f53.003",
			"primitives":[
				{
					"attributes":{
						"POSITION":0,
						"NORMAL":1,
						"TEXCOORD_0":2
					},
					"indices":3,
					"material":0
				},
				{
					"attributes":{
						"POSITION":4,
						"NORMAL":5,
						"TEXCOORD_0":6
					},
					"indices":7,
					"material":1
				}
			]
		}
	],
	"accessors":[
		{
			"bufferView":0,
			"componentType":5126,
			"count":120,
			"max":[
				0.9581351280212402,
				-0.5824389457702637,
				19.820791244506836
			],
			"min":[
				-1.0418648719787598,
				-4.312278747558594,
				-6.387919902801514
			],
			"type":"VEC3"
		},
		{
			"bufferView":1,
			"componentType":5126,
			"count":120,
			"type":"VEC3"
		},
		{
			"bufferView":2,
			"componentType":5126,
			"count":120,
			"type":"VEC2"
		},
		{
			"bufferView":3,
			"componentType":5123,
			"count":312,
			"type":"SCALAR"
		},
		{
			"bufferView":4,
			"componentType":5126,
			"count":260,
			"max":[
				1.2081351280212402,
				5.157642364501953,
				17.486663818359375
			],
			"min":[
				-1.2918648719787598,
				-2.834742784500122,
				-22.475269317626953
			],
			"type":"VEC3"
		},
		{
			"bufferView":5,
			"componentType":5126,
			"count":260,
			"type":"VEC3"
		},
		{
			"bufferView":6,
			"componentType":5126,
			"count":260,
			"type":"VEC2"
		},
		{
			"bufferView":7,
			"componentType":5123,
			"count":756,
			"type":"SCALAR"
		}
	],
	"bufferViews":[
		{
			"buffer":0,
			"byteLength":1440,
			"byteOffset":0,
			"target":34962
		},
		{
			"buffer":0,
			"byteLength":1440,
			"byteOffset":1440,
			"target":34962
		},
		{
			"buffer":0,
			"byteLength":960,
			"byteOffset":2880,
			"target":34962
		},
		{
			"buffer":0,
			"byteLength":624,
			"byteOffset":3840,
			"target":34963
		},
		{
			"buffer":0,
			"byteLength":3120,
			"byteOffset":4464,
			"target":34962
		},
		{
			"buffer":0,
			"byteLength":3120,
			"byteOffset":7584,
			"target":34962
		},
		{
			"buffer":0,
			"byteLength":2080,
			"byteOffset":10704,
			"target":34962
		},
		{
			"buffer":0,
			"byteLength":1512,
			"byteOffset":12784,
			"target":34963
		}
	],
	"buffers":[
		{
			"byteLength":14296,
			"uri":"clockParts.bin"
		}
	]
}
