{
	"asset":{
		"generator":"Khronos glTF Blender I/O v4.1.62",
		"version":"2.0"
	},
	"scene":0,
	"scenes":[
		{
			"name":"Scene",
			"nodes":[
				0,
				1,
				2
			]
		}
	],
	"nodes":[
		{
			"mesh":0,
			"name":"\u5186\u67f1",
			"scale":[
				0.4000000059604645,
				0.699999988079071,
				0.4000000059604645
			]
		},
		{
			"mesh":1,
			"name":"\u5186\u9310",
			"scale":[
				0.503040611743927,
				0.1548328399658203,
				0.4819732904434204
			],
			"translation":[
				0,
				-0.8299999833106995,
				0
			]
		},
		{
			"mesh":2,
			"name":"\u5186\u9310.001",
			"rotation":[
				0,
				0,
				-1,
				4.371138828673793e-08
			],
			"scale":[
				0.503040611743927,
				0.1548328399658203,
				0.4819732904434204
			],
			"translation":[
				0,
				0.8299999833106995,
				0
			]
		}
	],
	"materials":[
		{
			"doubleSided":true,
			"name":"\u30de\u30c6\u30ea\u30a2\u30eb.001",
			"pbrMetallicRoughness":{
				"baseColorTexture":{
					"index":0
				},
				"metallicFactor":0,
				"roughnessFactor":0.5
			}
		},
		{
			"doubleSided":true,
			"name":"\u30de\u30c6\u30ea\u30a2\u30eb.003",
			"pbrMetallicRoughness":{
				"baseColorTexture":{
					"index":1
				},
				"metallicFactor":0,
				"roughnessFactor":0.5
			}
		}
	],
	"meshes":[
		{
			"name":"\u5186\u67f1.002",
			"primitives":[
				{
					"attributes":{
						"POSITION":0,
						"NORMAL":1,
						"TEXCOORD_0":2
					},
					"indices":3,
					"material":0
				}
			]
		},
		{
			"name":"\u5186\u9310.001",
			"primitives":[
				{
					"attributes":{
						"POSITION":4,
						"NORMAL":5,
						"TEXCOORD_0":6
					},
					"indices":7,
					"material":0
				}
			]
		},
		{
			"name":"\u5186\u9310.004",
			"primitives":[
				{
					"attributes":{
						"POSITION":8,
						"NORMAL":9,
						"TEXCOORD_0":10
					},
					"indices":7,
					"material":1
				}
			]
		}
	],
	"textures":[
		{
			"sampler":0,
			"source":0
		},
		{
			"sampler":0,
			"source":0
		}
	],
	"images":[
		{
			"mimeType":"image/png",
			"name":"fruits.png",
			"uri":"fruits_png.png"
		}
	],
	"accessors":[
		{
			"bufferView":0,
			"componentType":5126,
			"count":148,
			"max":[
				1.1599998474121094,
				1,
				1.1599998474121094
			],
			"min":[
				-1.1599998474121094,
				-1,
				-1.1599998474121094
			],
			"type":"VEC3"
		},
		{
			"bufferView":1,
			"componentType":5126,
			"count":148,
			"type":"VEC3"
		},
		{
			"bufferView":2,
			"componentType":5126,
			"count":148,
			"type":"VEC2"
		},
		{
			"bufferView":3,
			"componentType":5123,
			"count":510,
			"type":"SCALAR"
		},
		{
			"bufferView":4,
			"componentType":5126,
			"count":70,
			"max":[
				0.9999998807907104,
				1.0000009536743164,
				1
			],
			"min":[
				-0.9999998807907104,
				-0.9999990463256836,
				-1
			],
			"type":"VEC3"
		},
		{
			"bufferView":5,
			"componentType":5126,
			"count":70,
			"type":"VEC3"
		},
		{
			"bufferView":6,
			"componentType":5126,
			"count":70,
			"type":"VEC2"
		},
		{
			"bufferView":7,
			"componentType":5123,
			"count":204,
			"type":"SCALAR"
		},
		{
			"bufferView":8,
			"componentType":5126,
			"count":70,
			"max":[
				0.9999998807907104,
				1.0000009536743164,
				1
			],
			"min":[
				-0.9999998807907104,
				-0.9999990463256836,
				-1
			],
			"type":"VEC3"
		},
		{
			"bufferView":9,
			"componentType":5126,
			"count":70,
			"type":"VEC3"
		},
		{
			"bufferView":10,
			"componentType":5126,
			"count":70,
			"type":"VEC2"
		}
	],
	"bufferViews":[
		{
			"buffer":0,
			"byteLength":1776,
			"byteOffset":0,
			"target":34962
		},
		{
			"buffer":0,
			"byteLength":1776,
			"byteOffset":1776,
			"target":34962
		},
		{
			"buffer":0,
			"byteLength":1184,
			"byteOffset":3552,
			"target":34962
		},
		{
			"buffer":0,
			"byteLength":1020,
			"byteOffset":4736,
			"target":34963
		},
		{
			"buffer":0,
			"byteLength":840,
			"byteOffset":5756,
			"target":34962
		},
		{
			"buffer":0,
			"byteLength":840,
			"byteOffset":6596,
			"target":34962
		},
		{
			"buffer":0,
			"byteLength":560,
			"byteOffset":7436,
			"target":34962
		},
		{
			"buffer":0,
			"byteLength":408,
			"byteOffset":7996,
			"target":34963
		},
		{
			"buffer":0,
			"byteLength":840,
			"byteOffset":8404,
			"target":34962
		},
		{
			"buffer":0,
			"byteLength":840,
			"byteOffset":9244,
			"target":34962
		},
		{
			"buffer":0,
			"byteLength":560,
			"byteOffset":10084,
			"target":34962
		}
	],
	"samplers":[
		{
			"magFilter":9729,
			"minFilter":9987
		}
	],
	"buffers":[
		{
			"byteLength":10644,
			"uri":"test.bin"
		}
	]
}
