{
	"asset":{
		"generator":"Khronos glTF Blender I/O v4.1.62",
		"version":"2.0"
	},
	"scene":0,
	"scenes":[
		{
			"name":"Scene",
			"nodes":[
				0,
				1,
				2,
				3,
				4,
				5,
				6
			]
		}
	],
	"nodes":[
		{
			"mesh":0,
			"name":"\u7403.001",
			"rotation":[
				-0.3420201241970062,
				0,
				0,
				0.9396926760673523
			],
			"scale":[
				1.600000023841858,
				1.5999997854232788,
				1.5999997854232788
			],
			"translation":[
				0,
				1.3306543827056885,
				-2.7139899730682373
			]
		},
		{
			"mesh":1,
			"name":"\u7403",
			"rotation":[
				0.3420201241970062,
				0,
				0,
				0.9396926760673523
			],
			"scale":[
				1.600000023841858,
				1.5999997854232788,
				1.5999997854232788
			],
			"translation":[
				0,
				1.3306543827056885,
				2.7139899730682373
			]
		},
		{
			"mesh":2,
			"name":"\u5186\u67f1.006",
			"rotation":[
				0.7071068286895752,
				0,
				0,
				0.7071068286895752
			],
			"scale":[
				0.30000001192092896,
				1,
				0.30000001192092896
			],
			"translation":[
				0,
				2.172010660171509,
				0
			]
		},
		{
			"mesh":3,
			"name":"\u5186\u67f1.005",
			"scale":[
				0.30000001192092896,
				0.30000001192092896,
				0.30000001192092896
			],
			"translation":[
				0,
				1.698415994644165,
				0
			]
		},
		{
			"mesh":4,
			"name":"\u5186\u67f1.003",
			"rotation":[
				-0.3420201241970062,
				0,
				0,
				0.9396926760673523
			],
			"scale":[
				0.11999999731779099,
				0.7999998927116394,
				0.11999998986721039
			],
			"translation":[
				0,
				1.2232942581176758,
				-2.6579699516296387
			]
		},
		{
			"mesh":5,
			"name":"\u5186\u67f1.002",
			"rotation":[
				0.3420201241970062,
				0,
				0,
				0.9396926760673523
			],
			"scale":[
				0.11999999731779099,
				0.7999998927116394,
				0.11999998986721039
			],
			"translation":[
				0,
				1.2232942581176758,
				2.6579699516296387
			]
		},
		{
			"mesh":6,
			"name":"COL",
			"scale":[
				1.5,
				1.5,
				4.199999809265137
			],
			"translation":[
				0,
				1.5,
				0
			]
		}
	],
	"materials":[
		{
			"doubleSided":true,
			"name":"\u30de\u30c6\u30ea\u30a2\u30eb.005",
			"pbrMetallicRoughness":{
				"baseColorFactor":[
					0.04577810317277908,
					0.0997714176774025,
					0.8002434968948364,
					1
				],
				"metallicFactor":0,
				"roughnessFactor":0.5
			}
		},
		{
			"doubleSided":true,
			"name":"Material.001",
			"pbrMetallicRoughness":{
				"baseColorFactor":[
					0.800000011920929,
					0.800000011920929,
					0.800000011920929,
					1
				],
				"metallicFactor":0,
				"roughnessFactor":0.5
			}
		}
	],
	"meshes":[
		{
			"name":"\u7403.001",
			"primitives":[
				{
					"attributes":{
						"POSITION":0,
						"NORMAL":1,
						"TEXCOORD_0":2
					},
					"indices":3,
					"material":0
				}
			]
		},
		{
			"name":"\u7403",
			"primitives":[
				{
					"attributes":{
						"POSITION":4,
						"NORMAL":5,
						"TEXCOORD_0":6
					},
					"indices":3,
					"material":0
				}
			]
		},
		{
			"name":"\u5186\u67f1.006",
			"primitives":[
				{
					"attributes":{
						"POSITION":7,
						"NORMAL":8,
						"TEXCOORD_0":9
					},
					"indices":10,
					"material":1
				}
			]
		},
		{
			"name":"\u5186\u67f1.001",
			"primitives":[
				{
					"attributes":{
						"POSITION":11,
						"NORMAL":12,
						"TEXCOORD_0":13
					},
					"indices":10,
					"material":1
				}
			]
		},
		{
			"name":"\u5186\u67f1.004",
			"primitives":[
				{
					"attributes":{
						"POSITION":14,
						"NORMAL":15,
						"TEXCOORD_0":16
					},
					"indices":17,
					"material":1
				}
			]
		},
		{
			"name":"\u5186\u67f1.003",
			"primitives":[
				{
					"attributes":{
						"POSITION":18,
						"NORMAL":19,
						"TEXCOORD_0":20
					},
					"indices":17,
					"material":1
				}
			]
		},
		{
			"name":"\u7acb\u65b9\u4f53",
			"primitives":[
				{
					"attributes":{
						"POSITION":21,
						"NORMAL":22,
						"TEXCOORD_0":23
					},
					"indices":24
				}
			]
		}
	],
	"accessors":[
		{
			"bufferView":0,
			"componentType":5126,
			"count":329,
			"max":[
				0.9999997019767761,
				1,
				0.9999993443489075
			],
			"min":[
				-0.9999990463256836,
				-0.19509032368659973,
				-1
			],
			"type":"VEC3"
		},
		{
			"bufferView":1,
			"componentType":5126,
			"count":329,
			"type":"VEC3"
		},
		{
			"bufferView":2,
			"componentType":5126,
			"count":329,
			"type":"VEC2"
		},
		{
			"bufferView":3,
			"componentType":5123,
			"count":1632,
			"type":"SCALAR"
		},
		{
			"bufferView":4,
			"componentType":5126,
			"count":329,
			"max":[
				0.9999997019767761,
				1,
				0.9999993443489075
			],
			"min":[
				-0.9999990463256836,
				-0.19509032368659973,
				-1
			],
			"type":"VEC3"
		},
		{
			"bufferView":5,
			"componentType":5126,
			"count":329,
			"type":"VEC3"
		},
		{
			"bufferView":6,
			"componentType":5126,
			"count":329,
			"type":"VEC2"
		},
		{
			"bufferView":7,
			"componentType":5126,
			"count":130,
			"max":[
				1,
				1,
				1
			],
			"min":[
				-1,
				-1,
				-1
			],
			"type":"VEC3"
		},
		{
			"bufferView":8,
			"componentType":5126,
			"count":130,
			"type":"VEC3"
		},
		{
			"bufferView":9,
			"componentType":5126,
			"count":130,
			"type":"VEC2"
		},
		{
			"bufferView":10,
			"componentType":5123,
			"count":372,
			"type":"SCALAR"
		},
		{
			"bufferView":11,
			"componentType":5126,
			"count":130,
			"max":[
				1,
				1,
				1
			],
			"min":[
				-1,
				-1,
				-1
			],
			"type":"VEC3"
		},
		{
			"bufferView":12,
			"componentType":5126,
			"count":130,
			"type":"VEC3"
		},
		{
			"bufferView":13,
			"componentType":5126,
			"count":130,
			"type":"VEC2"
		},
		{
			"bufferView":14,
			"componentType":5126,
			"count":192,
			"max":[
				1,
				1,
				1
			],
			"min":[
				-1,
				-1,
				-1
			],
			"type":"VEC3"
		},
		{
			"bufferView":15,
			"componentType":5126,
			"count":192,
			"type":"VEC3"
		},
		{
			"bufferView":16,
			"componentType":5126,
			"count":192,
			"type":"VEC2"
		},
		{
			"bufferView":17,
			"componentType":5123,
			"count":372,
			"type":"SCALAR"
		},
		{
			"bufferView":18,
			"componentType":5126,
			"count":192,
			"max":[
				1,
				1,
				1
			],
			"min":[
				-1,
				-1,
				-1
			],
			"type":"VEC3"
		},
		{
			"bufferView":19,
			"componentType":5126,
			"count":192,
			"type":"VEC3"
		},
		{
			"bufferView":20,
			"componentType":5126,
			"count":192,
			"type":"VEC2"
		},
		{
			"bufferView":21,
			"componentType":5126,
			"count":24,
			"max":[
				1,
				1,
				1
			],
			"min":[
				-1,
				-1,
				-1
			],
			"type":"VEC3"
		},
		{
			"bufferView":22,
			"componentType":5126,
			"count":24,
			"type":"VEC3"
		},
		{
			"bufferView":23,
			"componentType":5126,
			"count":24,
			"type":"VEC2"
		},
		{
			"bufferView":24,
			"componentType":5123,
			"count":36,
			"type":"SCALAR"
		}
	],
	"bufferViews":[
		{
			"buffer":0,
			"byteLength":3948,
			"byteOffset":0,
			"target":34962
		},
		{
			"buffer":0,
			"byteLength":3948,
			"byteOffset":3948,
			"target":34962
		},
		{
			"buffer":0,
			"byteLength":2632,
			"byteOffset":7896,
			"target":34962
		},
		{
			"buffer":0,
			"byteLength":3264,
			"byteOffset":10528,
			"target":34963
		},
		{
			"buffer":0,
			"byteLength":3948,
			"byteOffset":13792,
			"target":34962
		},
		{
			"buffer":0,
			"byteLength":3948,
			"byteOffset":17740,
			"target":34962
		},
		{
			"buffer":0,
			"byteLength":2632,
			"byteOffset":21688,
			"target":34962
		},
		{
			"buffer":0,
			"byteLength":1560,
			"byteOffset":24320,
			"target":34962
		},
		{
			"buffer":0,
			"byteLength":1560,
			"byteOffset":25880,
			"target":34962
		},
		{
			"buffer":0,
			"byteLength":1040,
			"byteOffset":27440,
			"target":34962
		},
		{
			"buffer":0,
			"byteLength":744,
			"byteOffset":28480,
			"target":34963
		},
		{
			"buffer":0,
			"byteLength":1560,
			"byteOffset":29224,
			"target":34962
		},
		{
			"buffer":0,
			"byteLength":1560,
			"byteOffset":30784,
			"target":34962
		},
		{
			"buffer":0,
			"byteLength":1040,
			"byteOffset":32344,
			"target":34962
		},
		{
			"buffer":0,
			"byteLength":2304,
			"byteOffset":33384,
			"target":34962
		},
		{
			"buffer":0,
			"byteLength":2304,
			"byteOffset":35688,
			"target":34962
		},
		{
			"buffer":0,
			"byteLength":1536,
			"byteOffset":37992,
			"target":34962
		},
		{
			"buffer":0,
			"byteLength":744,
			"byteOffset":39528,
			"target":34963
		},
		{
			"buffer":0,
			"byteLength":2304,
			"byteOffset":40272,
			"target":34962
		},
		{
			"buffer":0,
			"byteLength":2304,
			"byteOffset":42576,
			"target":34962
		},
		{
			"buffer":0,
			"byteLength":1536,
			"byteOffset":44880,
			"target":34962
		},
		{
			"buffer":0,
			"byteLength":288,
			"byteOffset":46416,
			"target":34962
		},
		{
			"buffer":0,
			"byteLength":288,
			"byteOffset":46704,
			"target":34962
		},
		{
			"buffer":0,
			"byteLength":192,
			"byteOffset":46992,
			"target":34962
		},
		{
			"buffer":0,
			"byteLength":72,
			"byteOffset":47184,
			"target":34963
		}
	],
	"buffers":[
		{
			"byteLength":47256,
			"uri":"bell.bin"
		}
	]
}
