{
	"asset":{
		"generator":"Khronos glTF Blender I/O v4.1.62",
		"version":"2.0"
	},
	"scene":0,
	"scenes":[
		{
			"name":"Scene",
			"nodes":[
				0,
				1
			]
		}
	],
	"nodes":[
		{
			"mesh":0,
			"name":"COL",
			"scale":[
				2.5,
				0.8424887657165527,
				2.5
			],
			"translation":[
				0,
				-0.12579049170017242,
				0
			]
		},
		{
			"mesh":1,
			"name":"\u5186\u67f1",
			"scale":[
				2.5,
				1,
				2.5
			],
			"translation":[
				0,
				-0.2520185112953186,
				0
			]
		}
	],
	"materials":[
		{
			"doubleSided":true,
			"name":"kinoko",
			"pbrMetallicRoughness":{
				"baseColorTexture":{
					"index":0
				},
				"metallicFactor":0,
				"roughnessFactor":0.5
			}
		}
	],
	"meshes":[
		{
			"name":"\u7acb\u65b9\u4f53",
			"primitives":[
				{
					"attributes":{
						"POSITION":0,
						"NORMAL":1,
						"TEXCOORD_0":2
					},
					"indices":3
				}
			]
		},
		{
			"name":"\u5186\u67f1.001",
			"primitives":[
				{
					"attributes":{
						"POSITION":4,
						"NORMAL":5,
						"TEXCOORD_0":6
					},
					"indices":7,
					"material":0
				}
			]
		}
	],
	"textures":[
		{
			"sampler":0,
			"source":0
		}
	],
	"images":[
		{
			"mimeType":"image/png",
			"name":"kinoko",
			"uri":"kinoko.png"
		}
	],
	"accessors":[
		{
			"bufferView":0,
			"componentType":5126,
			"count":48,
			"max":[
				1,
				1,
				1
			],
			"min":[
				-1,
				-1,
				-1
			],
			"type":"VEC3"
		},
		{
			"bufferView":1,
			"componentType":5126,
			"count":48,
			"type":"VEC3"
		},
		{
			"bufferView":2,
			"componentType":5126,
			"count":48,
			"type":"VEC2"
		},
		{
			"bufferView":3,
			"componentType":5123,
			"count":84,
			"type":"SCALAR"
		},
		{
			"bufferView":4,
			"componentType":5126,
			"count":416,
			"max":[
				1,
				1,
				1
			],
			"min":[
				-1,
				-0.6849768161773682,
				-1
			],
			"type":"VEC3"
		},
		{
			"bufferView":5,
			"componentType":5126,
			"count":416,
			"type":"VEC3"
		},
		{
			"bufferView":6,
			"componentType":5126,
			"count":416,
			"type":"VEC2"
		},
		{
			"bufferView":7,
			"componentType":5123,
			"count":2292,
			"type":"SCALAR"
		}
	],
	"bufferViews":[
		{
			"buffer":0,
			"byteLength":576,
			"byteOffset":0,
			"target":34962
		},
		{
			"buffer":0,
			"byteLength":576,
			"byteOffset":576,
			"target":34962
		},
		{
			"buffer":0,
			"byteLength":384,
			"byteOffset":1152,
			"target":34962
		},
		{
			"buffer":0,
			"byteLength":168,
			"byteOffset":1536,
			"target":34963
		},
		{
			"buffer":0,
			"byteLength":4992,
			"byteOffset":1704,
			"target":34962
		},
		{
			"buffer":0,
			"byteLength":4992,
			"byteOffset":6696,
			"target":34962
		},
		{
			"buffer":0,
			"byteLength":3328,
			"byteOffset":11688,
			"target":34962
		},
		{
			"buffer":0,
			"byteLength":4584,
			"byteOffset":15016,
			"target":34963
		}
	],
	"samplers":[
		{
			"magFilter":9729,
			"minFilter":9987
		}
	],
	"buffers":[
		{
			"byteLength":19600,
			"uri":"boundGround.bin"
		}
	]
}
