{
	"asset":{
		"generator":"Khronos glTF Blender I/O v4.1.62",
		"version":"2.0"
	},
	"scene":0,
	"scenes":[
		{
			"name":"Scene",
			"nodes":[
				0,
				1
			]
		}
	],
	"nodes":[
		{
			"mesh":0,
			"name":"\u7acb\u65b9\u4f53.003",
			"scale":[
				0.25,
				0.25,
				0.25
			],
			"translation":[
				0,
				0,
				-2.125
			]
		},
		{
			"mesh":1,
			"name":"COL",
			"scale":[
				2.5,
				0.30000001192092896,
				2.5
			]
		}
	],
	"materials":[
		{
			"doubleSided":true,
			"name":"Material",
			"pbrMetallicRoughness":{
				"baseColorFactor":[
					0.800000011920929,
					0.5,
					0,
					1
				],
				"metallicFactor":0,
				"roughnessFactor":0.5
			}
		}
	],
	"meshes":[
		{
			"name":"\u7acb\u65b9\u4f53.003",
			"primitives":[
				{
					"attributes":{
						"POSITION":0,
						"NORMAL":1,
						"TEXCOORD_0":2,
						"TEXCOORD_1":3
					},
					"indices":4,
					"material":0
				}
			]
		},
		{
			"name":"\u7acb\u65b9\u4f53.020",
			"primitives":[
				{
					"attributes":{
						"POSITION":5,
						"NORMAL":6,
						"TEXCOORD_0":7
					},
					"indices":8
				}
			]
		}
	],
	"accessors":[
		{
			"bufferView":0,
			"componentType":5126,
			"count":456,
			"max":[
				10,
				1.5,
				18.5
			],
			"min":[
				-10,
				-1.5,
				-1.5
			],
			"type":"VEC3"
		},
		{
			"bufferView":1,
			"componentType":5126,
			"count":456,
			"type":"VEC3"
		},
		{
			"bufferView":2,
			"componentType":5126,
			"count":456,
			"type":"VEC2"
		},
		{
			"bufferView":3,
			"componentType":5126,
			"count":456,
			"type":"VEC2"
		},
		{
			"bufferView":4,
			"componentType":5123,
			"count":696,
			"type":"SCALAR"
		},
		{
			"bufferView":5,
			"componentType":5126,
			"count":24,
			"max":[
				1,
				1,
				1
			],
			"min":[
				-1,
				-1,
				-1
			],
			"type":"VEC3"
		},
		{
			"bufferView":6,
			"componentType":5126,
			"count":24,
			"type":"VEC3"
		},
		{
			"bufferView":7,
			"componentType":5126,
			"count":24,
			"type":"VEC2"
		},
		{
			"bufferView":8,
			"componentType":5123,
			"count":36,
			"type":"SCALAR"
		}
	],
	"bufferViews":[
		{
			"buffer":0,
			"byteLength":5472,
			"byteOffset":0,
			"target":34962
		},
		{
			"buffer":0,
			"byteLength":5472,
			"byteOffset":5472,
			"target":34962
		},
		{
			"buffer":0,
			"byteLength":3648,
			"byteOffset":10944,
			"target":34962
		},
		{
			"buffer":0,
			"byteLength":3648,
			"byteOffset":14592,
			"target":34962
		},
		{
			"buffer":0,
			"byteLength":1392,
			"byteOffset":18240,
			"target":34963
		},
		{
			"buffer":0,
			"byteLength":288,
			"byteOffset":19632,
			"target":34962
		},
		{
			"buffer":0,
			"byteLength":288,
			"byteOffset":19920,
			"target":34962
		},
		{
			"buffer":0,
			"byteLength":192,
			"byteOffset":20208,
			"target":34962
		},
		{
			"buffer":0,
			"byteLength":72,
			"byteOffset":20400,
			"target":34963
		}
	],
	"buffers":[
		{
			"byteLength":20472,
			"uri":"moveGround.bin"
		}
	]
}
