{
	"asset":{
		"generator":"Khronos glTF Blender I/O v4.1.62",
		"version":"2.0"
	},
	"scene":0,
	"scenes":[
		{
			"name":"Scene",
			"nodes":[
				0,
				1,
				2,
				3
			]
		}
	],
	"nodes":[
		{
			"mesh":0,
			"name":"\u5186\u67f1.001",
			"rotation":[
				0.7071068286895752,
				0,
				0,
				0.7071068286895752
			],
			"scale":[
				0.30000001192092896,
				5,
				0.30000001192092896
			],
			"translation":[
				0,
				1.5,
				0
			]
		},
		{
			"mesh":1,
			"name":"COL",
			"scale":[
				0.5,
				2,
				10.25
			],
			"translation":[
				0,
				2,
				-4.75
			]
		},
		{
			"mesh":2,
			"name":"\u5186\u67f1.002",
			"rotation":[
				0.7071068286895752,
				0,
				0,
				0.7071068286895752
			],
			"scale":[
				0.30000001192092896,
				10,
				0.30000001192092896
			],
			"translation":[
				0,
				1.5,
				-5
			]
		},
		{
			"mesh":3,
			"name":"\u5186\u67f1.003",
			"rotation":[
				0.7071068286895752,
				0,
				0,
				0.7071068286895752
			],
			"scale":[
				0.30000001192092896,
				10,
				0.30000001192092896
			],
			"translation":[
				0,
				1.5,
				-5
			]
		}
	],
	"materials":[
		{
			"doubleSided":true,
			"name":"\u30de\u30c6\u30ea\u30a2\u30eb",
			"pbrMetallicRoughness":{
				"baseColorFactor":[
					0.8999999761581421,
					0.6000000238418579,
					0.20000000298023224,
					1
				],
				"metallicFactor":0,
				"roughnessFactor":0.5
			}
		}
	],
	"meshes":[
		{
			"name":"\u5186\u67f1.001",
			"primitives":[
				{
					"attributes":{
						"POSITION":0,
						"NORMAL":1,
						"TEXCOORD_0":2
					},
					"indices":3,
					"material":0
				}
			]
		},
		{
			"name":"\u7acb\u65b9\u4f53",
			"primitives":[
				{
					"attributes":{
						"POSITION":4,
						"NORMAL":5,
						"TEXCOORD_0":6
					},
					"indices":7
				}
			]
		},
		{
			"name":"\u5186\u67f1.002",
			"primitives":[
				{
					"attributes":{
						"POSITION":8,
						"NORMAL":9,
						"TEXCOORD_0":10
					},
					"indices":11,
					"material":0
				}
			]
		},
		{
			"name":"\u5186\u67f1.003",
			"primitives":[
				{
					"attributes":{
						"POSITION":12,
						"NORMAL":13,
						"TEXCOORD_0":14
					},
					"indices":15,
					"material":0
				}
			]
		}
	],
	"accessors":[
		{
			"bufferView":0,
			"componentType":5126,
			"count":256,
			"max":[
				1.6666665077209473,
				1.100000023841858,
				4.999999046325684
			],
			"min":[
				-1.6666665077209473,
				0.8999999761581421,
				-8.333333015441895
			],
			"type":"VEC3"
		},
		{
			"bufferView":1,
			"componentType":5126,
			"count":256,
			"type":"VEC3"
		},
		{
			"bufferView":2,
			"componentType":5126,
			"count":256,
			"type":"VEC2"
		},
		{
			"bufferView":3,
			"componentType":5123,
			"count":552,
			"type":"SCALAR"
		},
		{
			"bufferView":4,
			"componentType":5126,
			"count":24,
			"max":[
				1,
				1,
				1
			],
			"min":[
				-1,
				-1,
				-1
			],
			"type":"VEC3"
		},
		{
			"bufferView":5,
			"componentType":5126,
			"count":24,
			"type":"VEC3"
		},
		{
			"bufferView":6,
			"componentType":5126,
			"count":24,
			"type":"VEC2"
		},
		{
			"bufferView":7,
			"componentType":5123,
			"count":36,
			"type":"SCALAR"
		},
		{
			"bufferView":8,
			"componentType":5126,
			"count":128,
			"max":[
				0.9999999403953552,
				1,
				-3.999999523162842
			],
			"min":[
				-0.9999999403953552,
				-1,
				-5.999999523162842
			],
			"type":"VEC3"
		},
		{
			"bufferView":9,
			"componentType":5126,
			"count":128,
			"type":"VEC3"
		},
		{
			"bufferView":10,
			"componentType":5126,
			"count":128,
			"type":"VEC2"
		},
		{
			"bufferView":11,
			"componentType":5123,
			"count":192,
			"type":"SCALAR"
		},
		{
			"bufferView":12,
			"componentType":5126,
			"count":128,
			"max":[
				1,
				1,
				1
			],
			"min":[
				-1,
				-1,
				-1
			],
			"type":"VEC3"
		},
		{
			"bufferView":13,
			"componentType":5126,
			"count":128,
			"type":"VEC3"
		},
		{
			"bufferView":14,
			"componentType":5126,
			"count":128,
			"type":"VEC2"
		},
		{
			"bufferView":15,
			"componentType":5123,
			"count":192,
			"type":"SCALAR"
		}
	],
	"bufferViews":[
		{
			"buffer":0,
			"byteLength":3072,
			"byteOffset":0,
			"target":34962
		},
		{
			"buffer":0,
			"byteLength":3072,
			"byteOffset":3072,
			"target":34962
		},
		{
			"buffer":0,
			"byteLength":2048,
			"byteOffset":6144,
			"target":34962
		},
		{
			"buffer":0,
			"byteLength":1104,
			"byteOffset":8192,
			"target":34963
		},
		{
			"buffer":0,
			"byteLength":288,
			"byteOffset":9296,
			"target":34962
		},
		{
			"buffer":0,
			"byteLength":288,
			"byteOffset":9584,
			"target":34962
		},
		{
			"buffer":0,
			"byteLength":192,
			"byteOffset":9872,
			"target":34962
		},
		{
			"buffer":0,
			"byteLength":72,
			"byteOffset":10064,
			"target":34963
		},
		{
			"buffer":0,
			"byteLength":1536,
			"byteOffset":10136,
			"target":34962
		},
		{
			"buffer":0,
			"byteLength":1536,
			"byteOffset":11672,
			"target":34962
		},
		{
			"buffer":0,
			"byteLength":1024,
			"byteOffset":13208,
			"target":34962
		},
		{
			"buffer":0,
			"byteLength":384,
			"byteOffset":14232,
			"target":34963
		},
		{
			"buffer":0,
			"byteLength":1536,
			"byteOffset":14616,
			"target":34962
		},
		{
			"buffer":0,
			"byteLength":1536,
			"byteOffset":16152,
			"target":34962
		},
		{
			"buffer":0,
			"byteLength":1024,
			"byteOffset":17688,
			"target":34962
		},
		{
			"buffer":0,
			"byteLength":384,
			"byteOffset":18712,
			"target":34963
		}
	],
	"buffers":[
		{
			"byteLength":19096,
			"uri":"halfFence.bin"
		}
	]
}
