{
	"asset":{
		"generator":"Khronos glTF Blender I/O v4.1.62",
		"version":"2.0"
	},
	"scene":0,
	"scenes":[
		{
			"name":"Scene",
			"nodes":[
				1,
				2
			]
		}
	],
	"nodes":[
		{
			"name":"NewPoint",
			"translation":[
				0.7853526473045349,
				0.8818635940551758,
				0
			]
		},
		{
			"children":[
				0
			],
			"mesh":0,
			"name":"\u5186\u67f1",
			"rotation":[
				0,
				0,
				-0.7071068286895752,
				0.7071067094802856
			],
			"scale":[
				4,
				2,
				4
			],
			"translation":[
				0,
				4.786102294921875,
				0
			]
		},
		{
			"mesh":1,
			"name":"COL",
			"scale":[
				2,
				4.300000190734863,
				3.799999952316284
			],
			"translation":[
				0,
				4.300000190734863,
				0
			]
		}
	],
	"materials":[
		{
			"doubleSided":true,
			"name":"\u30de\u30c6\u30ea\u30a2\u30eb.005",
			"pbrMetallicRoughness":{
				"baseColorFactor":[
					0.04577810317277908,
					0.0997714176774025,
					0.8002434968948364,
					1
				],
				"metallicFactor":0,
				"roughnessFactor":0.5
			}
		},
		{
			"doubleSided":true,
			"name":"Material.001",
			"pbrMetallicRoughness":{
				"baseColorFactor":[
					0.800000011920929,
					0.800000011920929,
					0.800000011920929,
					1
				],
				"metallicFactor":0,
				"roughnessFactor":0.5
			}
		}
	],
	"meshes":[
		{
			"name":"\u5186\u67f1",
			"primitives":[
				{
					"attributes":{
						"POSITION":0,
						"NORMAL":1,
						"TEXCOORD_0":2
					},
					"indices":3,
					"material":0
				},
				{
					"attributes":{
						"POSITION":4,
						"NORMAL":5,
						"TEXCOORD_0":6
					},
					"indices":7,
					"material":1
				}
			]
		},
		{
			"name":"\u7acb\u65b9\u4f53",
			"primitives":[
				{
					"attributes":{
						"POSITION":8,
						"NORMAL":9,
						"TEXCOORD_0":10
					},
					"indices":11
				}
			]
		}
	],
	"accessors":[
		{
			"bufferView":0,
			"componentType":5126,
			"count":260,
			"max":[
				1,
				1,
				1
			],
			"min":[
				-1,
				-1,
				-1
			],
			"type":"VEC3"
		},
		{
			"bufferView":1,
			"componentType":5126,
			"count":260,
			"type":"VEC3"
		},
		{
			"bufferView":2,
			"componentType":5126,
			"count":260,
			"type":"VEC2"
		},
		{
			"bufferView":3,
			"componentType":5123,
			"count":756,
			"type":"SCALAR"
		},
		{
			"bufferView":4,
			"componentType":5126,
			"count":120,
			"max":[
				1.2002067565917969,
				0.8000003099441528,
				0.691140353679657
			],
			"min":[
				0.7047910094261169,
				-0.7999998331069946,
				-0.7547652125358582
			],
			"type":"VEC3"
		},
		{
			"bufferView":5,
			"componentType":5126,
			"count":120,
			"type":"VEC3"
		},
		{
			"bufferView":6,
			"componentType":5126,
			"count":120,
			"type":"VEC2"
		},
		{
			"bufferView":7,
			"componentType":5123,
			"count":312,
			"type":"SCALAR"
		},
		{
			"bufferView":8,
			"componentType":5126,
			"count":24,
			"max":[
				1,
				1,
				1
			],
			"min":[
				-1,
				-1,
				-1
			],
			"type":"VEC3"
		},
		{
			"bufferView":9,
			"componentType":5126,
			"count":24,
			"type":"VEC3"
		},
		{
			"bufferView":10,
			"componentType":5126,
			"count":24,
			"type":"VEC2"
		},
		{
			"bufferView":11,
			"componentType":5123,
			"count":36,
			"type":"SCALAR"
		}
	],
	"bufferViews":[
		{
			"buffer":0,
			"byteLength":3120,
			"byteOffset":0,
			"target":34962
		},
		{
			"buffer":0,
			"byteLength":3120,
			"byteOffset":3120,
			"target":34962
		},
		{
			"buffer":0,
			"byteLength":2080,
			"byteOffset":6240,
			"target":34962
		},
		{
			"buffer":0,
			"byteLength":1512,
			"byteOffset":8320,
			"target":34963
		},
		{
			"buffer":0,
			"byteLength":1440,
			"byteOffset":9832,
			"target":34962
		},
		{
			"buffer":0,
			"byteLength":1440,
			"byteOffset":11272,
			"target":34962
		},
		{
			"buffer":0,
			"byteLength":960,
			"byteOffset":12712,
			"target":34962
		},
		{
			"buffer":0,
			"byteLength":624,
			"byteOffset":13672,
			"target":34963
		},
		{
			"buffer":0,
			"byteLength":288,
			"byteOffset":14296,
			"target":34962
		},
		{
			"buffer":0,
			"byteLength":288,
			"byteOffset":14584,
			"target":34962
		},
		{
			"buffer":0,
			"byteLength":192,
			"byteOffset":14872,
			"target":34962
		},
		{
			"buffer":0,
			"byteLength":72,
			"byteOffset":15064,
			"target":34963
		}
	],
	"buffers":[
		{
			"byteLength":15136,
			"uri":"body.bin"
		}
	]
}
