{
	"asset":{
		"generator":"Khronos glTF Blender I/O v4.1.62",
		"version":"2.0"
	},
	"scene":0,
	"scenes":[
		{
			"name":"Scene",
			"nodes":[
				0,
				1,
				2
			]
		}
	],
	"nodes":[
		{
			"mesh":0,
			"name":"\u7acb\u65b9\u4f53.001",
			"rotation":[
				-0.2164396047592163,
				0,
				0,
				0.9762960076332092
			],
			"scale":[
				1.600000023841858,
				1,
				0.19999997317790985
			],
			"translation":[
				-0.6692285537719727,
				-4.135615348815918,
				2.16068172454834
			]
		},
		{
			"mesh":1,
			"name":"\u7acb\u65b9\u4f53",
			"rotation":[
				0.2164396047592163,
				0,
				0,
				0.9762960076332092
			],
			"scale":[
				1.600000023841858,
				1,
				0.19999997317790985
			],
			"translation":[
				-0.6692285537719727,
				-4.135615348815918,
				-2.4151811599731445
			]
		},
		{
			"mesh":2,
			"name":"\u5186\u67f1",
			"rotation":[
				0,
				0,
				-0.7071068286895752,
				0.7071068286895752
			],
			"scale":[
				4,
				2,
				4
			],
			"translation":[
				0,
				-0.32561975717544556,
				0
			]
		}
	],
	"materials":[
		{
			"doubleSided":true,
			"name":"Material.001",
			"pbrMetallicRoughness":{
				"baseColorFactor":[
					0.800000011920929,
					0.800000011920929,
					0.800000011920929,
					1
				],
				"metallicFactor":0,
				"roughnessFactor":0.5
			}
		},
		{
			"doubleSided":true,
			"name":"\u30de\u30c6\u30ea\u30a2\u30eb.005",
			"pbrMetallicRoughness":{
				"baseColorFactor":[
					0.04577810317277908,
					0.0997714176774025,
					0.8002434968948364,
					1
				],
				"metallicFactor":0,
				"roughnessFactor":0.5
			}
		}
	],
	"meshes":[
		{
			"name":"\u7acb\u65b9\u4f53.005",
			"primitives":[
				{
					"attributes":{
						"POSITION":0,
						"NORMAL":1,
						"TEXCOORD_0":2
					},
					"indices":3,
					"material":0
				}
			]
		},
		{
			"name":"\u7acb\u65b9\u4f53.003",
			"primitives":[
				{
					"attributes":{
						"POSITION":4,
						"NORMAL":5,
						"TEXCOORD_0":6
					},
					"indices":3,
					"material":0
				}
			]
		},
		{
			"name":"\u5186\u67f1",
			"primitives":[
				{
					"attributes":{
						"POSITION":7,
						"NORMAL":8,
						"TEXCOORD_0":9
					},
					"indices":10,
					"material":1
				}
			]
		}
	],
	"accessors":[
		{
			"bufferView":0,
			"componentType":5126,
			"count":60,
			"max":[
				1,
				1,
				1
			],
			"min":[
				-1,
				-1,
				-1
			],
			"type":"VEC3"
		},
		{
			"bufferView":1,
			"componentType":5126,
			"count":60,
			"type":"VEC3"
		},
		{
			"bufferView":2,
			"componentType":5126,
			"count":60,
			"type":"VEC2"
		},
		{
			"bufferView":3,
			"componentType":5123,
			"count":156,
			"type":"SCALAR"
		},
		{
			"bufferView":4,
			"componentType":5126,
			"count":60,
			"max":[
				1,
				1,
				1
			],
			"min":[
				-1,
				-1,
				-1
			],
			"type":"VEC3"
		},
		{
			"bufferView":5,
			"componentType":5126,
			"count":60,
			"type":"VEC3"
		},
		{
			"bufferView":6,
			"componentType":5126,
			"count":60,
			"type":"VEC2"
		},
		{
			"bufferView":7,
			"componentType":5126,
			"count":260,
			"max":[
				1,
				1,
				1
			],
			"min":[
				-1,
				-1,
				-1
			],
			"type":"VEC3"
		},
		{
			"bufferView":8,
			"componentType":5126,
			"count":260,
			"type":"VEC3"
		},
		{
			"bufferView":9,
			"componentType":5126,
			"count":260,
			"type":"VEC2"
		},
		{
			"bufferView":10,
			"componentType":5123,
			"count":756,
			"type":"SCALAR"
		}
	],
	"bufferViews":[
		{
			"buffer":0,
			"byteLength":720,
			"byteOffset":0,
			"target":34962
		},
		{
			"buffer":0,
			"byteLength":720,
			"byteOffset":720,
			"target":34962
		},
		{
			"buffer":0,
			"byteLength":480,
			"byteOffset":1440,
			"target":34962
		},
		{
			"buffer":0,
			"byteLength":312,
			"byteOffset":1920,
			"target":34963
		},
		{
			"buffer":0,
			"byteLength":720,
			"byteOffset":2232,
			"target":34962
		},
		{
			"buffer":0,
			"byteLength":720,
			"byteOffset":2952,
			"target":34962
		},
		{
			"buffer":0,
			"byteLength":480,
			"byteOffset":3672,
			"target":34962
		},
		{
			"buffer":0,
			"byteLength":3120,
			"byteOffset":4152,
			"target":34962
		},
		{
			"buffer":0,
			"byteLength":3120,
			"byteOffset":7272,
			"target":34962
		},
		{
			"buffer":0,
			"byteLength":2080,
			"byteOffset":10392,
			"target":34962
		},
		{
			"buffer":0,
			"byteLength":1512,
			"byteOffset":12472,
			"target":34963
		}
	],
	"buffers":[
		{
			"byteLength":13984,
			"uri":"body.bin"
		}
	]
}
