{
	"asset":{
		"generator":"Khronos glTF Blender I/O v4.1.62",
		"version":"2.0"
	},
	"scene":0,
	"scenes":[
		{
			"name":"Scene",
			"nodes":[
				0
			]
		}
	],
	"nodes":[
		{
			"mesh":0,
			"name":"GRS_TB",
			"translation":[
				-0.9997862577438354,
				0,
				-1.1887931823730469
			]
		}
	],
	"materials":[
		{
			"doubleSided":true,
			"name":"\u30de\u30c6\u30ea\u30a2\u30eb",
			"pbrMetallicRoughness":{
				"baseColorTexture":{
					"index":0
				},
				"metallicFactor":0,
				"roughnessFactor":0.5
			}
		}
	],
	"meshes":[
		{
			"name":"Cube.027",
			"primitives":[
				{
					"attributes":{
						"POSITION":0,
						"NORMAL":1,
						"TEXCOORD_0":2
					},
					"indices":3,
					"material":0
				}
			]
		}
	],
	"textures":[
		{
			"sampler":0,
			"source":0
		}
	],
	"images":[
		{
			"mimeType":"image/png",
			"name":"grass_tiles",
			"uri":"grass_tiles.png"
		}
	],
	"accessors":[
		{
			"bufferView":0,
			"componentType":5126,
			"count":682,
			"max":[
				3,
				1,
				2
			],
			"min":[
				-1,
				-0.20000001788139343,
				-1
			],
			"type":"VEC3"
		},
		{
			"bufferView":1,
			"componentType":5126,
			"count":682,
			"type":"VEC3"
		},
		{
			"bufferView":2,
			"componentType":5126,
			"count":682,
			"type":"VEC2"
		},
		{
			"bufferView":3,
			"componentType":5123,
			"count":1224,
			"type":"SCALAR"
		}
	],
	"bufferViews":[
		{
			"buffer":0,
			"byteLength":8184,
			"byteOffset":0,
			"target":34962
		},
		{
			"buffer":0,
			"byteLength":8184,
			"byteOffset":8184,
			"target":34962
		},
		{
			"buffer":0,
			"byteLength":5456,
			"byteOffset":16368,
			"target":34962
		},
		{
			"buffer":0,
			"byteLength":2448,
			"byteOffset":21824,
			"target":34963
		}
	],
	"samplers":[
		{
			"magFilter":9729,
			"minFilter":9987
		}
	],
	"buffers":[
		{
			"byteLength":24272,
			"uri":"normalGround.bin"
		}
	]
}
