{
	"asset":{
		"generator":"Khronos glTF Blender I/O v4.1.62",
		"version":"2.0"
	},
	"scene":0,
	"scenes":[
		{
			"name":"Scene",
			"nodes":[
				0
			]
		}
	],
	"nodes":[
		{
			"mesh":0,
			"name":"Candy",
			"rotation":[
				0,
				0.3826834559440613,
				0,
				0.9238795638084412
			]
		}
	],
	"materials":[
		{
			"doubleSided":true,
			"name":"\u30de\u30c6\u30ea\u30a2\u30eb",
			"pbrMetallicRoughness":{
				"baseColorTexture":{
					"index":0
				},
				"metallicFactor":0,
				"roughnessFactor":0.5
			}
		}
	],
	"meshes":[
		{
			"name":"Cylinder.002",
			"primitives":[
				{
					"attributes":{
						"POSITION":0,
						"NORMAL":1,
						"TEXCOORD_0":2
					},
					"indices":3,
					"material":0
				}
			]
		}
	],
	"textures":[
		{
			"sampler":0,
			"source":0
		}
	],
	"images":[
		{
			"mimeType":"image/png",
			"name":"fruits",
			"uri":"fruits.png"
		}
	],
	"accessors":[
		{
			"bufferView":0,
			"componentType":5126,
			"count":395,
			"max":[
				0.5490884780883789,
				0.6763775944709778,
				0.6375017166137695
			],
			"min":[
				-0.5511748790740967,
				-0.6782016754150391,
				-0.6661657094955444
			],
			"type":"VEC3"
		},
		{
			"bufferView":1,
			"componentType":5126,
			"count":395,
			"type":"VEC3"
		},
		{
			"bufferView":2,
			"componentType":5126,
			"count":395,
			"type":"VEC2"
		},
		{
			"bufferView":3,
			"componentType":5123,
			"count":1500,
			"type":"SCALAR"
		}
	],
	"bufferViews":[
		{
			"buffer":0,
			"byteLength":4740,
			"byteOffset":0,
			"target":34962
		},
		{
			"buffer":0,
			"byteLength":4740,
			"byteOffset":4740,
			"target":34962
		},
		{
			"buffer":0,
			"byteLength":3160,
			"byteOffset":9480,
			"target":34962
		},
		{
			"buffer":0,
			"byteLength":3000,
			"byteOffset":12640,
			"target":34963
		}
	],
	"samplers":[
		{
			"magFilter":9729,
			"minFilter":9987
		}
	],
	"buffers":[
		{
			"byteLength":15640,
			"uri":"test2.bin"
		}
	]
}
