{
	"asset":{
		"generator":"Khronos glTF Blender I/O v4.1.62",
		"version":"2.0"
	},
	"scene":0,
	"scenes":[
		{
			"name":"Scene",
			"nodes":[
				0,
				1,
				2,
				3,
				4,
				5
			]
		}
	],
	"nodes":[
		{
			"name":"DoorPoint",
			"translation":[
				-2.919919967651367,
				1.4841200113296509,
				5.860159873962402
			]
		},
		{
			"mesh":0,
			"name":"house3",
			"scale":[
				5.572394847869873,
				5.572394847869873,
				3.8299403190612793
			],
			"translation":[
				-0.42195233702659607,
				8.692689895629883,
				2.7426881790161133
			]
		},
		{
			"mesh":1,
			"name":"house2",
			"scale":[
				5.572394847869873,
				5.572394847869873,
				3.8299403190612793
			],
			"translation":[
				-0.42195233702659607,
				8.692689895629883,
				2.7426881790161133
			]
		},
		{
			"mesh":2,
			"name":"house1",
			"scale":[
				5.572394847869873,
				5.572394847869873,
				3.8299403190612793
			],
			"translation":[
				-0.42195233702659607,
				8.692689895629883,
				2.7426881790161133
			]
		},
		{
			"mesh":3,
			"name":"\u7acb\u65b9\u4f53",
			"scale":[
				1.2999999523162842,
				1,
				0.10000000149011612
			],
			"translation":[
				2.5214099884033203,
				3.570068836212158,
				9.25055980682373
			]
		},
		{
			"mesh":4,
			"name":"\u5e73\u9762.002",
			"rotation":[
				0.7071068286895752,
				0,
				0,
				0.7071068286895752
			],
			"scale":[
				1.2375373840332031,
				1,
				0.8523476123809814
			],
			"translation":[
				1.2836120128631592,
				4.426181316375732,
				9.307073593139648
			]
		}
	],
	"materials":[
		{
			"doubleSided":true,
			"name":"red",
			"pbrMetallicRoughness":{
				"baseColorFactor":[
					0.800315260887146,
					0.26506853103637695,
					0.19326269626617432,
					1
				],
				"metallicFactor":0,
				"roughnessFactor":0.5
			}
		},
		{
			"doubleSided":true,
			"name":"white",
			"pbrMetallicRoughness":{
				"metallicFactor":0,
				"roughnessFactor":0.5
			}
		},
		{
			"doubleSided":true,
			"name":"yellow",
			"pbrMetallicRoughness":{
				"baseColorFactor":[
					0.8002121448516846,
					0.5999026894569397,
					0.18852373957633972,
					1
				],
				"metallicFactor":0,
				"roughnessFactor":0.5
			}
		},
		{
			"doubleSided":true,
			"name":"gray",
			"pbrMetallicRoughness":{
				"baseColorFactor":[
					0.5102542638778687,
					0.5102542638778687,
					0.5102542638778687,
					1
				],
				"metallicFactor":0,
				"roughnessFactor":0.5
			}
		},
		{
			"doubleSided":true,
			"name":"skyblue",
			"pbrMetallicRoughness":{
				"baseColorFactor":[
					0.31947144865989685,
					0.6871473789215088,
					0.8002588152885437,
					1
				],
				"metallicFactor":0,
				"roughnessFactor":0.5
			}
		}
	],
	"meshes":[
		{
			"name":"Plane.006",
			"primitives":[
				{
					"attributes":{
						"POSITION":0,
						"NORMAL":1
					},
					"indices":2,
					"material":0
				},
				{
					"attributes":{
						"POSITION":3,
						"NORMAL":4
					},
					"indices":5,
					"material":1
				}
			]
		},
		{
			"name":"Plane.005",
			"primitives":[
				{
					"attributes":{
						"POSITION":6,
						"NORMAL":7
					},
					"indices":8,
					"material":1
				},
				{
					"attributes":{
						"POSITION":9,
						"NORMAL":10
					},
					"indices":11,
					"material":0
				}
			]
		},
		{
			"name":"Plane.003",
			"primitives":[
				{
					"attributes":{
						"POSITION":12,
						"NORMAL":13,
						"TEXCOORD_0":14
					},
					"indices":15,
					"material":0
				},
				{
					"attributes":{
						"POSITION":16,
						"NORMAL":17,
						"TEXCOORD_0":18
					},
					"indices":19,
					"material":1
				},
				{
					"attributes":{
						"POSITION":20,
						"NORMAL":21,
						"TEXCOORD_0":22
					},
					"indices":23,
					"material":2
				}
			]
		},
		{
			"name":"\u7acb\u65b9\u4f53",
			"primitives":[
				{
					"attributes":{
						"POSITION":24,
						"NORMAL":25,
						"TEXCOORD_0":26
					},
					"indices":27,
					"material":3
				}
			]
		},
		{
			"name":"\u5e73\u9762.002",
			"primitives":[
				{
					"attributes":{
						"POSITION":28,
						"NORMAL":29,
						"TEXCOORD_0":30
					},
					"indices":31,
					"material":4
				}
			]
		}
	],
	"accessors":[
		{
			"bufferView":0,
			"componentType":5126,
			"count":46,
			"max":[
				1.2422208786010742,
				1.103738784790039,
				1.6095805168151855
			],
			"min":[
				-0.19628626108169556,
				-0.2926175594329834,
				-1.4821603298187256
			],
			"type":"VEC3"
		},
		{
			"bufferView":1,
			"componentType":5126,
			"count":46,
			"type":"VEC3"
		},
		{
			"bufferView":2,
			"componentType":5123,
			"count":66,
			"type":"SCALAR"
		},
		{
			"bufferView":3,
			"componentType":5126,
			"count":16,
			"max":[
				0.9133971929550171,
				0.028900116682052612,
				1.5483297109603882
			],
			"min":[
				0.08516725897789001,
				-0.2769842743873596,
				-1.4209095239639282
			],
			"type":"VEC3"
		},
		{
			"bufferView":4,
			"componentType":5126,
			"count":16,
			"type":"VEC3"
		},
		{
			"bufferView":5,
			"componentType":5123,
			"count":24,
			"type":"SCALAR"
		},
		{
			"bufferView":6,
			"componentType":5126,
			"count":32,
			"max":[
				-0.30341023206710815,
				0.267103374004364,
				1.065994381904602
			],
			"min":[
				-0.9259045124053955,
				-0.06648656725883484,
				-0.880603551864624
			],
			"type":"VEC3"
		},
		{
			"bufferView":7,
			"componentType":5126,
			"count":32,
			"type":"VEC3"
		},
		{
			"bufferView":8,
			"componentType":5123,
			"count":48,
			"type":"SCALAR"
		},
		{
			"bufferView":9,
			"componentType":5126,
			"count":22,
			"max":[
				-0.30341023206710815,
				0.6693404912948608,
				1.065994381904602
			],
			"min":[
				-0.9259045124053955,
				0.22043238580226898,
				-0.880603551864624
			],
			"type":"VEC3"
		},
		{
			"bufferView":10,
			"componentType":5126,
			"count":22,
			"type":"VEC3"
		},
		{
			"bufferView":11,
			"componentType":5123,
			"count":42,
			"type":"SCALAR"
		},
		{
			"bufferView":12,
			"componentType":5126,
			"count":100,
			"max":[
				1.3387421369552612,
				0.6234124898910522,
				1.6993507146835327
			],
			"min":[
				-1.2709630727767944,
				-1.559868574142456,
				-1.3937501907348633
			],
			"type":"VEC3"
		},
		{
			"bufferView":13,
			"componentType":5126,
			"count":100,
			"type":"VEC3"
		},
		{
			"bufferView":14,
			"componentType":5126,
			"count":100,
			"type":"VEC2"
		},
		{
			"bufferView":15,
			"componentType":5123,
			"count":147,
			"type":"SCALAR"
		},
		{
			"bufferView":16,
			"componentType":5126,
			"count":64,
			"max":[
				1.0999106168746948,
				-0.14580507576465607,
				1.6993507146835327
			],
			"min":[
				-1.0689646005630493,
				-1.5600839853286743,
				-1.3937501907348633
			],
			"type":"VEC3"
		},
		{
			"bufferView":17,
			"componentType":5126,
			"count":64,
			"type":"VEC3"
		},
		{
			"bufferView":18,
			"componentType":5126,
			"count":64,
			"type":"VEC2"
		},
		{
			"bufferView":19,
			"componentType":5123,
			"count":138,
			"type":"SCALAR"
		},
		{
			"bufferView":20,
			"componentType":5126,
			"count":208,
			"max":[
				-0.553472101688385,
				-0.5249461531639099,
				1.454378604888916
			],
			"min":[
				-1.0693552494049072,
				-1.5611073970794678,
				0.8085490465164185
			],
			"type":"VEC3"
		},
		{
			"bufferView":21,
			"componentType":5126,
			"count":208,
			"type":"VEC3"
		},
		{
			"bufferView":22,
			"componentType":5126,
			"count":208,
			"type":"VEC2"
		},
		{
			"bufferView":23,
			"componentType":5123,
			"count":312,
			"type":"SCALAR"
		},
		{
			"bufferView":24,
			"componentType":5126,
			"count":120,
			"max":[
				0.9999995231628418,
				1,
				1
			],
			"min":[
				-1.0000004768371582,
				-1,
				-1
			],
			"type":"VEC3"
		},
		{
			"bufferView":25,
			"componentType":5126,
			"count":120,
			"type":"VEC3"
		},
		{
			"bufferView":26,
			"componentType":5126,
			"count":120,
			"type":"VEC2"
		},
		{
			"bufferView":27,
			"componentType":5123,
			"count":276,
			"type":"SCALAR"
		},
		{
			"bufferView":28,
			"componentType":5126,
			"count":4,
			"max":[
				2,
				0,
				2
			],
			"min":[
				0,
				0,
				-5.960464477539063e-08
			],
			"type":"VEC3"
		},
		{
			"bufferView":29,
			"componentType":5126,
			"count":4,
			"type":"VEC3"
		},
		{
			"bufferView":30,
			"componentType":5126,
			"count":4,
			"type":"VEC2"
		},
		{
			"bufferView":31,
			"componentType":5123,
			"count":6,
			"type":"SCALAR"
		}
	],
	"bufferViews":[
		{
			"buffer":0,
			"byteLength":552,
			"byteOffset":0,
			"target":34962
		},
		{
			"buffer":0,
			"byteLength":552,
			"byteOffset":552,
			"target":34962
		},
		{
			"buffer":0,
			"byteLength":132,
			"byteOffset":1104,
			"target":34963
		},
		{
			"buffer":0,
			"byteLength":192,
			"byteOffset":1236,
			"target":34962
		},
		{
			"buffer":0,
			"byteLength":192,
			"byteOffset":1428,
			"target":34962
		},
		{
			"buffer":0,
			"byteLength":48,
			"byteOffset":1620,
			"target":34963
		},
		{
			"buffer":0,
			"byteLength":384,
			"byteOffset":1668,
			"target":34962
		},
		{
			"buffer":0,
			"byteLength":384,
			"byteOffset":2052,
			"target":34962
		},
		{
			"buffer":0,
			"byteLength":96,
			"byteOffset":2436,
			"target":34963
		},
		{
			"buffer":0,
			"byteLength":264,
			"byteOffset":2532,
			"target":34962
		},
		{
			"buffer":0,
			"byteLength":264,
			"byteOffset":2796,
			"target":34962
		},
		{
			"buffer":0,
			"byteLength":84,
			"byteOffset":3060,
			"target":34963
		},
		{
			"buffer":0,
			"byteLength":1200,
			"byteOffset":3144,
			"target":34962
		},
		{
			"buffer":0,
			"byteLength":1200,
			"byteOffset":4344,
			"target":34962
		},
		{
			"buffer":0,
			"byteLength":800,
			"byteOffset":5544,
			"target":34962
		},
		{
			"buffer":0,
			"byteLength":294,
			"byteOffset":6344,
			"target":34963
		},
		{
			"buffer":0,
			"byteLength":768,
			"byteOffset":6640,
			"target":34962
		},
		{
			"buffer":0,
			"byteLength":768,
			"byteOffset":7408,
			"target":34962
		},
		{
			"buffer":0,
			"byteLength":512,
			"byteOffset":8176,
			"target":34962
		},
		{
			"buffer":0,
			"byteLength":276,
			"byteOffset":8688,
			"target":34963
		},
		{
			"buffer":0,
			"byteLength":2496,
			"byteOffset":8964,
			"target":34962
		},
		{
			"buffer":0,
			"byteLength":2496,
			"byteOffset":11460,
			"target":34962
		},
		{
			"buffer":0,
			"byteLength":1664,
			"byteOffset":13956,
			"target":34962
		},
		{
			"buffer":0,
			"byteLength":624,
			"byteOffset":15620,
			"target":34963
		},
		{
			"buffer":0,
			"byteLength":1440,
			"byteOffset":16244,
			"target":34962
		},
		{
			"buffer":0,
			"byteLength":1440,
			"byteOffset":17684,
			"target":34962
		},
		{
			"buffer":0,
			"byteLength":960,
			"byteOffset":19124,
			"target":34962
		},
		{
			"buffer":0,
			"byteLength":552,
			"byteOffset":20084,
			"target":34963
		},
		{
			"buffer":0,
			"byteLength":48,
			"byteOffset":20636,
			"target":34962
		},
		{
			"buffer":0,
			"byteLength":48,
			"byteOffset":20684,
			"target":34962
		},
		{
			"buffer":0,
			"byteLength":32,
			"byteOffset":20732,
			"target":34962
		},
		{
			"buffer":0,
			"byteLength":12,
			"byteOffset":20764,
			"target":34963
		}
	],
	"buffers":[
		{
			"byteLength":20776,
			"uri":"house.bin"
		}
	]
}
