{
	"asset":{
		"generator":"Khronos glTF Blender I/O v4.1.62",
		"version":"2.0"
	},
	"scene":0,
	"scenes":[
		{
			"name":"Scene",
			"nodes":[
				0,
				1,
				2,
				3
			]
		}
	],
	"nodes":[
		{
			"mesh":0,
			"name":"mushroom",
			"rotation":[
				0,
				-1,
				0,
				4.371138828673793e-08
			],
			"scale":[
				0.05000000074505806,
				0.05000000074505806,
				0.05000000074505806
			]
		},
		{
			"mesh":1,
			"name":"COL",
			"scale":[
				2.5,
				2.25,
				2.5
			],
			"translation":[
				0,
				2.25,
				0
			]
		},
		{
			"name":"RightWing",
			"translation":[
				0.5250409841537476,
				1.1246399879455566,
				0.9734259843826294
			]
		},
		{
			"name":"LeftWing",
			"translation":[
				-0.5250409841537476,
				1.1246399879455566,
				0.9734259843826294
			]
		}
	],
	"materials":[
		{
			"doubleSided":true,
			"name":"lambert1",
			"pbrMetallicRoughness":{
				"baseColorTexture":{
					"index":0
				},
				"metallicFactor":0,
				"roughnessFactor":0.5527864098548889
			}
		}
	],
	"meshes":[
		{
			"name":"\u30e1\u30c3\u30b7\u30e5",
			"primitives":[
				{
					"attributes":{
						"POSITION":0,
						"NORMAL":1,
						"TEXCOORD_0":2
					},
					"indices":3,
					"material":0
				}
			]
		},
		{
			"name":"\u7acb\u65b9\u4f53",
			"primitives":[
				{
					"attributes":{
						"POSITION":4,
						"NORMAL":5,
						"TEXCOORD_0":6
					},
					"indices":7
				}
			]
		}
	],
	"textures":[
		{
			"sampler":0,
			"source":0
		}
	],
	"images":[
		{
			"mimeType":"image/png",
			"name":"Albedo",
			"uri":"Albedo.png"
		}
	],
	"accessors":[
		{
			"bufferView":0,
			"componentType":5126,
			"count":807,
			"max":[
				56.773170471191406,
				93.19898986816406,
				56.77519989013672
			],
			"min":[
				-56.773170471191406,
				-0.002937626326456666,
				-56.77519989013672
			],
			"type":"VEC3"
		},
		{
			"bufferView":1,
			"componentType":5126,
			"count":807,
			"type":"VEC3"
		},
		{
			"bufferView":2,
			"componentType":5126,
			"count":807,
			"type":"VEC2"
		},
		{
			"bufferView":3,
			"componentType":5123,
			"count":3819,
			"type":"SCALAR"
		},
		{
			"bufferView":4,
			"componentType":5126,
			"count":24,
			"max":[
				1,
				1,
				1
			],
			"min":[
				-1,
				-1,
				-1
			],
			"type":"VEC3"
		},
		{
			"bufferView":5,
			"componentType":5126,
			"count":24,
			"type":"VEC3"
		},
		{
			"bufferView":6,
			"componentType":5126,
			"count":24,
			"type":"VEC2"
		},
		{
			"bufferView":7,
			"componentType":5123,
			"count":36,
			"type":"SCALAR"
		}
	],
	"bufferViews":[
		{
			"buffer":0,
			"byteLength":9684,
			"byteOffset":0,
			"target":34962
		},
		{
			"buffer":0,
			"byteLength":9684,
			"byteOffset":9684,
			"target":34962
		},
		{
			"buffer":0,
			"byteLength":6456,
			"byteOffset":19368,
			"target":34962
		},
		{
			"buffer":0,
			"byteLength":7638,
			"byteOffset":25824,
			"target":34963
		},
		{
			"buffer":0,
			"byteLength":288,
			"byteOffset":33464,
			"target":34962
		},
		{
			"buffer":0,
			"byteLength":288,
			"byteOffset":33752,
			"target":34962
		},
		{
			"buffer":0,
			"byteLength":192,
			"byteOffset":34040,
			"target":34962
		},
		{
			"buffer":0,
			"byteLength":72,
			"byteOffset":34232,
			"target":34963
		}
	],
	"samplers":[
		{
			"magFilter":9729,
			"minFilter":9987
		}
	],
	"buffers":[
		{
			"byteLength":34304,
			"uri":"normalEnemy.bin"
		}
	]
}
