{
	"asset":{
		"generator":"Khronos glTF Blender I/O v4.1.62",
		"version":"2.0"
	},
	"scene":0,
	"scenes":[
		{
			"name":"Scene",
			"nodes":[
				0,
				8
			]
		}
	],
	"nodes":[
		{
			"mesh":0,
			"name":"COL",
			"scale":[
				2.5,
				2.25,
				2.5
			],
			"translation":[
				0,
				2.25,
				0
			]
		},
		{
			"name":"Right",
			"rotation":[
				0.6231814026832581,
				0.3341313898563385,
				-0.33413299918174744,
				0.6231823563575745
			],
			"scale":[
				0.9999998807907104,
				0.9999998211860657,
				0.9999999403953552
			],
			"translation":[
				0.17221206426620483,
				1,
				1.0617215633392334
			]
		},
		{
			"name":"Left",
			"rotation":[
				0.6266478300094604,
				-0.3275867998600006,
				0.3275858461856842,
				0.6266473531723022
			],
			"scale":[
				0.9999999403953552,
				0.9999999403953552,
				1
			],
			"translation":[
				-0.13672909140586853,
				1,
				1.0391409397125244
			]
		},
		{
			"children":[
				1,
				2
			],
			"name":"Base"
		},
		{
			"name":"neutral_bone",
			"rotation":[
				-0.7071067690849304,
				0,
				0,
				0.7071067690849304
			]
		},
		{
			"mesh":1,
			"name":"Cube.001",
			"skin":0
		},
		{
			"mesh":2,
			"name":"Cube.002",
			"skin":0
		},
		{
			"mesh":3,
			"name":"mushroom",
			"rotation":[
				0,
				0.7071068286895752,
				0,
				0.7071068286895752
			],
			"scale":[
				0.2199999988079071,
				0.2199999988079071,
				0.2199999988079071
			]
		},
		{
			"children":[
				5,
				6,
				7,
				3,
				4
			],
			"name":"\u30a2\u30fc\u30de\u30c1\u30e5\u30a2"
		}
	],
	"animations":[
		{
			"channels":[
				{
					"sampler":0,
					"target":{
						"node":3,
						"path":"translation"
					}
				},
				{
					"sampler":1,
					"target":{
						"node":3,
						"path":"rotation"
					}
				},
				{
					"sampler":2,
					"target":{
						"node":3,
						"path":"scale"
					}
				},
				{
					"sampler":3,
					"target":{
						"node":1,
						"path":"translation"
					}
				},
				{
					"sampler":4,
					"target":{
						"node":1,
						"path":"rotation"
					}
				},
				{
					"sampler":5,
					"target":{
						"node":1,
						"path":"scale"
					}
				},
				{
					"sampler":6,
					"target":{
						"node":2,
						"path":"translation"
					}
				},
				{
					"sampler":7,
					"target":{
						"node":2,
						"path":"rotation"
					}
				},
				{
					"sampler":8,
					"target":{
						"node":2,
						"path":"scale"
					}
				}
			],
			"name":"Fly",
			"samplers":[
				{
					"input":23,
					"interpolation":"STEP",
					"output":24
				},
				{
					"input":23,
					"interpolation":"STEP",
					"output":25
				},
				{
					"input":23,
					"interpolation":"STEP",
					"output":26
				},
				{
					"input":23,
					"interpolation":"STEP",
					"output":27
				},
				{
					"input":28,
					"interpolation":"LINEAR",
					"output":29
				},
				{
					"input":23,
					"interpolation":"STEP",
					"output":30
				},
				{
					"input":23,
					"interpolation":"STEP",
					"output":31
				},
				{
					"input":28,
					"interpolation":"LINEAR",
					"output":32
				},
				{
					"input":23,
					"interpolation":"STEP",
					"output":33
				}
			]
		}
	],
	"materials":[
		{
			"alphaMode":"BLEND",
			"doubleSided":true,
			"name":"Material.002",
			"pbrMetallicRoughness":{
				"baseColorTexture":{
					"index":0
				},
				"metallicFactor":0
			}
		},
		{
			"doubleSided":true,
			"name":"lambert1",
			"pbrMetallicRoughness":{
				"baseColorTexture":{
					"index":1
				},
				"metallicFactor":0,
				"roughnessFactor":0.5527864098548889
			}
		}
	],
	"meshes":[
		{
			"name":"\u7acb\u65b9\u4f53",
			"primitives":[
				{
					"attributes":{
						"POSITION":0,
						"NORMAL":1,
						"TEXCOORD_0":2
					},
					"indices":3
				}
			]
		},
		{
			"name":"Cube.002",
			"primitives":[
				{
					"attributes":{
						"POSITION":4,
						"NORMAL":5,
						"TEXCOORD_0":6,
						"JOINTS_0":7,
						"WEIGHTS_0":8
					},
					"indices":9,
					"material":0
				}
			]
		},
		{
			"name":"Cube.003",
			"primitives":[
				{
					"attributes":{
						"POSITION":11,
						"NORMAL":12,
						"TEXCOORD_0":13,
						"JOINTS_0":14,
						"WEIGHTS_0":15
					},
					"indices":16,
					"material":0
				}
			]
		},
		{
			"name":"\u30e1\u30c3\u30b7\u30e5",
			"primitives":[
				{
					"attributes":{
						"POSITION":17,
						"NORMAL":18,
						"TEXCOORD_0":19,
						"JOINTS_0":20,
						"WEIGHTS_0":21
					},
					"indices":22,
					"material":1
				}
			]
		}
	],
	"textures":[
		{
			"sampler":0,
			"source":0
		},
		{
			"sampler":0,
			"source":1
		}
	],
	"images":[
		{
			"mimeType":"image/png",
			"name":"texture",
			"uri":"texture.png"
		},
		{
			"mimeType":"image/png",
			"name":"Albedo",
			"uri":"Albedo.png"
		}
	],
	"skins":[
		{
			"inverseBindMatrices":10,
			"joints":[
				3,
				1,
				2,
				4
			],
			"name":"\u30a2\u30fc\u30de\u30c1\u30e5\u30a2"
		}
	],
	"accessors":[
		{
			"bufferView":0,
			"componentType":5126,
			"count":24,
			"max":[
				1,
				1,
				1
			],
			"min":[
				-1,
				-1,
				-1
			],
			"type":"VEC3"
		},
		{
			"bufferView":1,
			"componentType":5126,
			"count":24,
			"type":"VEC3"
		},
		{
			"bufferView":2,
			"componentType":5126,
			"count":24,
			"type":"VEC2"
		},
		{
			"bufferView":3,
			"componentType":5123,
			"count":36,
			"type":"SCALAR"
		},
		{
			"bufferView":4,
			"componentType":5126,
			"count":546,
			"max":[
				2.8086395263671875,
				2.5676496028900146,
				2.6639490127563477
			],
			"min":[
				0.0538264699280262,
				0.3355185389518738,
				0.9642878770828247
			],
			"type":"VEC3"
		},
		{
			"bufferView":5,
			"componentType":5126,
			"count":546,
			"type":"VEC3"
		},
		{
			"bufferView":6,
			"componentType":5126,
			"count":546,
			"type":"VEC2"
		},
		{
			"bufferView":7,
			"componentType":5121,
			"count":546,
			"type":"VEC4"
		},
		{
			"bufferView":8,
			"componentType":5126,
			"count":546,
			"type":"VEC4"
		},
		{
			"bufferView":9,
			"componentType":5123,
			"count":1290,
			"type":"SCALAR"
		},
		{
			"bufferView":10,
			"componentType":5126,
			"count":4,
			"type":"MAT4"
		},
		{
			"bufferView":11,
			"componentType":5126,
			"count":546,
			"max":[
				-0.0538264699280262,
				2.5676496028900146,
				2.6639490127563477
			],
			"min":[
				-2.8086395263671875,
				0.33551836013793945,
				0.9642878770828247
			],
			"type":"VEC3"
		},
		{
			"bufferView":12,
			"componentType":5126,
			"count":546,
			"type":"VEC3"
		},
		{
			"bufferView":13,
			"componentType":5126,
			"count":546,
			"type":"VEC2"
		},
		{
			"bufferView":14,
			"componentType":5121,
			"count":546,
			"type":"VEC4"
		},
		{
			"bufferView":15,
			"componentType":5126,
			"count":546,
			"type":"VEC4"
		},
		{
			"bufferView":16,
			"componentType":5123,
			"count":1290,
			"type":"SCALAR"
		},
		{
			"bufferView":17,
			"componentType":5126,
			"count":2628,
			"max":[
				12.490544319152832,
				20.5037784576416,
				12.490097045898438
			],
			"min":[
				-12.490544319152832,
				-0.0006462777964770794,
				-12.490097045898438
			],
			"type":"VEC3"
		},
		{
			"bufferView":18,
			"componentType":5126,
			"count":2628,
			"type":"VEC3"
		},
		{
			"bufferView":19,
			"componentType":5126,
			"count":2628,
			"type":"VEC2"
		},
		{
			"bufferView":20,
			"componentType":5121,
			"count":2628,
			"type":"VEC4"
		},
		{
			"bufferView":21,
			"componentType":5126,
			"count":2628,
			"type":"VEC4"
		},
		{
			"bufferView":22,
			"componentType":5123,
			"count":3819,
			"type":"SCALAR"
		},
		{
			"bufferView":23,
			"componentType":5126,
			"count":2,
			"max":[
				2.5
			],
			"min":[
				0.041666666666666664
			],
			"type":"SCALAR"
		},
		{
			"bufferView":24,
			"componentType":5126,
			"count":2,
			"type":"VEC3"
		},
		{
			"bufferView":25,
			"componentType":5126,
			"count":2,
			"type":"VEC4"
		},
		{
			"bufferView":26,
			"componentType":5126,
			"count":2,
			"type":"VEC3"
		},
		{
			"bufferView":27,
			"componentType":5126,
			"count":2,
			"type":"VEC3"
		},
		{
			"bufferView":28,
			"componentType":5126,
			"count":60,
			"max":[
				2.5
			],
			"min":[
				0.041666666666666664
			],
			"type":"SCALAR"
		},
		{
			"bufferView":29,
			"componentType":5126,
			"count":60,
			"type":"VEC4"
		},
		{
			"bufferView":30,
			"componentType":5126,
			"count":2,
			"type":"VEC3"
		},
		{
			"bufferView":31,
			"componentType":5126,
			"count":2,
			"type":"VEC3"
		},
		{
			"bufferView":32,
			"componentType":5126,
			"count":60,
			"type":"VEC4"
		},
		{
			"bufferView":33,
			"componentType":5126,
			"count":2,
			"type":"VEC3"
		}
	],
	"bufferViews":[
		{
			"buffer":0,
			"byteLength":288,
			"byteOffset":0,
			"target":34962
		},
		{
			"buffer":0,
			"byteLength":288,
			"byteOffset":288,
			"target":34962
		},
		{
			"buffer":0,
			"byteLength":192,
			"byteOffset":576,
			"target":34962
		},
		{
			"buffer":0,
			"byteLength":72,
			"byteOffset":768,
			"target":34963
		},
		{
			"buffer":0,
			"byteLength":6552,
			"byteOffset":840,
			"target":34962
		},
		{
			"buffer":0,
			"byteLength":6552,
			"byteOffset":7392,
			"target":34962
		},
		{
			"buffer":0,
			"byteLength":4368,
			"byteOffset":13944,
			"target":34962
		},
		{
			"buffer":0,
			"byteLength":2184,
			"byteOffset":18312,
			"target":34962
		},
		{
			"buffer":0,
			"byteLength":8736,
			"byteOffset":20496,
			"target":34962
		},
		{
			"buffer":0,
			"byteLength":2580,
			"byteOffset":29232,
			"target":34963
		},
		{
			"buffer":0,
			"byteLength":256,
			"byteOffset":31812
		},
		{
			"buffer":0,
			"byteLength":6552,
			"byteOffset":32068,
			"target":34962
		},
		{
			"buffer":0,
			"byteLength":6552,
			"byteOffset":38620,
			"target":34962
		},
		{
			"buffer":0,
			"byteLength":4368,
			"byteOffset":45172,
			"target":34962
		},
		{
			"buffer":0,
			"byteLength":2184,
			"byteOffset":49540,
			"target":34962
		},
		{
			"buffer":0,
			"byteLength":8736,
			"byteOffset":51724,
			"target":34962
		},
		{
			"buffer":0,
			"byteLength":2580,
			"byteOffset":60460,
			"target":34963
		},
		{
			"buffer":0,
			"byteLength":31536,
			"byteOffset":63040,
			"target":34962
		},
		{
			"buffer":0,
			"byteLength":31536,
			"byteOffset":94576,
			"target":34962
		},
		{
			"buffer":0,
			"byteLength":21024,
			"byteOffset":126112,
			"target":34962
		},
		{
			"buffer":0,
			"byteLength":10512,
			"byteOffset":147136,
			"target":34962
		},
		{
			"buffer":0,
			"byteLength":42048,
			"byteOffset":157648,
			"target":34962
		},
		{
			"buffer":0,
			"byteLength":7638,
			"byteOffset":199696,
			"target":34963
		},
		{
			"buffer":0,
			"byteLength":8,
			"byteOffset":207336
		},
		{
			"buffer":0,
			"byteLength":24,
			"byteOffset":207344
		},
		{
			"buffer":0,
			"byteLength":32,
			"byteOffset":207368
		},
		{
			"buffer":0,
			"byteLength":24,
			"byteOffset":207400
		},
		{
			"buffer":0,
			"byteLength":24,
			"byteOffset":207424
		},
		{
			"buffer":0,
			"byteLength":240,
			"byteOffset":207448
		},
		{
			"buffer":0,
			"byteLength":960,
			"byteOffset":207688
		},
		{
			"buffer":0,
			"byteLength":24,
			"byteOffset":208648
		},
		{
			"buffer":0,
			"byteLength":24,
			"byteOffset":208672
		},
		{
			"buffer":0,
			"byteLength":960,
			"byteOffset":208696
		},
		{
			"buffer":0,
			"byteLength":24,
			"byteOffset":209656
		}
	],
	"samplers":[
		{
			"magFilter":9729,
			"minFilter":9987
		}
	],
	"buffers":[
		{
			"byteLength":209680,
			"uri":"flyEnemy.bin"
		}
	]
}
