{
	"asset":{
		"generator":"Khronos glTF Blender I/O v4.1.62",
		"version":"2.0"
	},
	"scene":0,
	"scenes":[
		{
			"name":"Scene",
			"nodes":[
				0,
				9
			]
		}
	],
	"nodes":[
		{
			"mesh":0,
			"name":"COL"
		},
		{
			"name":"LeftWing",
			"rotation":[
				0.6918110251426697,
				-0.15366138517856598,
				0.15242528915405273,
				0.6888774633407593
			],
			"scale":[
				0.9999999403953552,
				1,
				0.9999999403953552
			],
			"translation":[
				0,
				0.5,
				0
			]
		},
		{
			"name":"RightWing",
			"rotation":[
				0.6918947696685791,
				0.15205252170562744,
				-0.1520526111125946,
				0.6892327070236206
			],
			"scale":[
				1,
				1,
				0.9999999403953552
			],
			"translation":[
				0,
				0.5,
				0
			]
		},
		{
			"children":[
				1,
				2
			],
			"name":"Body"
		},
		{
			"name":"neutral_bone",
			"rotation":[
				-0.7071067690849304,
				0,
				0,
				0.7071067690849304
			]
		},
		{
			"mesh":1,
			"name":"Cube",
			"skin":0
		},
		{
			"mesh":2,
			"name":"Cube.001",
			"skin":0
		},
		{
			"mesh":3,
			"name":"\u5186\u67f1"
		},
		{
			"mesh":4,
			"name":"\u7403"
		},
		{
			"children":[
				5,
				6,
				7,
				8,
				3,
				4
			],
			"name":"\u30a2\u30fc\u30de\u30c1\u30e5\u30a2"
		}
	],
	"animations":[
		{
			"channels":[
				{
					"sampler":0,
					"target":{
						"node":3,
						"path":"translation"
					}
				},
				{
					"sampler":1,
					"target":{
						"node":3,
						"path":"rotation"
					}
				},
				{
					"sampler":2,
					"target":{
						"node":3,
						"path":"scale"
					}
				},
				{
					"sampler":3,
					"target":{
						"node":1,
						"path":"translation"
					}
				},
				{
					"sampler":4,
					"target":{
						"node":1,
						"path":"rotation"
					}
				},
				{
					"sampler":5,
					"target":{
						"node":1,
						"path":"scale"
					}
				},
				{
					"sampler":6,
					"target":{
						"node":2,
						"path":"translation"
					}
				},
				{
					"sampler":7,
					"target":{
						"node":2,
						"path":"rotation"
					}
				},
				{
					"sampler":8,
					"target":{
						"node":2,
						"path":"scale"
					}
				}
			],
			"name":"Fly",
			"samplers":[
				{
					"input":35,
					"interpolation":"STEP",
					"output":36
				},
				{
					"input":35,
					"interpolation":"STEP",
					"output":37
				},
				{
					"input":35,
					"interpolation":"STEP",
					"output":38
				},
				{
					"input":35,
					"interpolation":"STEP",
					"output":39
				},
				{
					"input":40,
					"interpolation":"LINEAR",
					"output":41
				},
				{
					"input":35,
					"interpolation":"STEP",
					"output":42
				},
				{
					"input":35,
					"interpolation":"STEP",
					"output":43
				},
				{
					"input":40,
					"interpolation":"LINEAR",
					"output":44
				},
				{
					"input":35,
					"interpolation":"STEP",
					"output":45
				}
			]
		}
	],
	"materials":[
		{
			"alphaMode":"BLEND",
			"doubleSided":true,
			"name":"Material.002",
			"pbrMetallicRoughness":{
				"baseColorTexture":{
					"index":0
				},
				"metallicFactor":0
			}
		},
		{
			"doubleSided":true,
			"name":"\u30de\u30c6\u30ea\u30a2\u30eb.001",
			"pbrMetallicRoughness":{
				"baseColorTexture":{
					"index":1
				},
				"metallicFactor":0,
				"roughnessFactor":0.5
			}
		},
		{
			"doubleSided":true,
			"name":"\u30de\u30c6\u30ea\u30a2\u30eb",
			"pbrMetallicRoughness":{
				"baseColorTexture":{
					"index":2
				},
				"metallicFactor":0,
				"roughnessFactor":0.5
			}
		},
		{
			"doubleSided":true,
			"name":"Material.001",
			"pbrMetallicRoughness":{
				"baseColorFactor":[
					0.800000011920929,
					0.800000011920929,
					0.800000011920929,
					1
				],
				"metallicFactor":0,
				"roughnessFactor":0.5
			}
		}
	],
	"meshes":[
		{
			"name":"\u7acb\u65b9\u4f53",
			"primitives":[
				{
					"attributes":{
						"POSITION":0,
						"NORMAL":1,
						"TEXCOORD_0":2
					},
					"indices":3
				}
			]
		},
		{
			"name":"Cube.001",
			"primitives":[
				{
					"attributes":{
						"POSITION":4,
						"NORMAL":5,
						"TEXCOORD_0":6,
						"JOINTS_0":7,
						"WEIGHTS_0":8
					},
					"indices":9,
					"material":0
				}
			]
		},
		{
			"name":"Cube.002",
			"primitives":[
				{
					"attributes":{
						"POSITION":11,
						"NORMAL":12,
						"TEXCOORD_0":13,
						"JOINTS_0":14,
						"WEIGHTS_0":15
					},
					"indices":16,
					"material":0
				}
			]
		},
		{
			"name":"\u5186\u67f1.002",
			"primitives":[
				{
					"attributes":{
						"POSITION":17,
						"NORMAL":18,
						"TEXCOORD_0":19,
						"JOINTS_0":20,
						"WEIGHTS_0":21
					},
					"indices":22,
					"material":1
				}
			]
		},
		{
			"name":"\u7403",
			"primitives":[
				{
					"attributes":{
						"POSITION":23,
						"NORMAL":24,
						"TEXCOORD_0":25,
						"JOINTS_0":26,
						"WEIGHTS_0":27
					},
					"indices":28,
					"material":2
				},
				{
					"attributes":{
						"POSITION":29,
						"NORMAL":30,
						"TEXCOORD_0":31,
						"JOINTS_0":32,
						"WEIGHTS_0":33
					},
					"indices":34,
					"material":3
				}
			]
		}
	],
	"textures":[
		{
			"sampler":0,
			"source":0
		},
		{
			"sampler":0,
			"source":1
		},
		{
			"sampler":0,
			"source":2
		}
	],
	"images":[
		{
			"mimeType":"image/png",
			"name":"texture",
			"uri":"texture.png"
		},
		{
			"mimeType":"image/png",
			"name":"face",
			"uri":"face.png"
		},
		{
			"mimeType":"image/png",
			"name":"kinoko",
			"uri":"kinoko.png"
		}
	],
	"skins":[
		{
			"inverseBindMatrices":10,
			"joints":[
				3,
				1,
				2,
				4
			],
			"name":"\u30a2\u30fc\u30de\u30c1\u30e5\u30a2"
		}
	],
	"accessors":[
		{
			"bufferView":0,
			"componentType":5126,
			"count":24,
			"max":[
				1.2000000476837158,
				2.799999952316284,
				1.2000000476837158
			],
			"min":[
				-1.2000000476837158,
				0,
				-1.2000000476837158
			],
			"type":"VEC3"
		},
		{
			"bufferView":1,
			"componentType":5126,
			"count":24,
			"type":"VEC3"
		},
		{
			"bufferView":2,
			"componentType":5126,
			"count":24,
			"type":"VEC2"
		},
		{
			"bufferView":3,
			"componentType":5123,
			"count":36,
			"type":"SCALAR"
		},
		{
			"bufferView":4,
			"componentType":5126,
			"count":546,
			"max":[
				-0.09260840713977814,
				1.5577926635742188,
				2.302034616470337
			],
			"min":[
				-1.1553168296813965,
				0.06970566511154175,
				0.4356886148452759
			],
			"type":"VEC3"
		},
		{
			"bufferView":5,
			"componentType":5126,
			"count":546,
			"type":"VEC3"
		},
		{
			"bufferView":6,
			"componentType":5126,
			"count":546,
			"type":"VEC2"
		},
		{
			"bufferView":7,
			"componentType":5121,
			"count":546,
			"type":"VEC4"
		},
		{
			"bufferView":8,
			"componentType":5126,
			"count":546,
			"type":"VEC4"
		},
		{
			"bufferView":9,
			"componentType":5123,
			"count":1290,
			"type":"SCALAR"
		},
		{
			"bufferView":10,
			"componentType":5126,
			"count":4,
			"type":"MAT4"
		},
		{
			"bufferView":11,
			"componentType":5126,
			"count":546,
			"max":[
				1.1554763317108154,
				1.5577399730682373,
				2.301969051361084
			],
			"min":[
				0.09276819229125977,
				0.06965306401252747,
				0.43562304973602295
			],
			"type":"VEC3"
		},
		{
			"bufferView":12,
			"componentType":5126,
			"count":546,
			"type":"VEC3"
		},
		{
			"bufferView":13,
			"componentType":5126,
			"count":546,
			"type":"VEC2"
		},
		{
			"bufferView":14,
			"componentType":5121,
			"count":546,
			"type":"VEC4"
		},
		{
			"bufferView":15,
			"componentType":5126,
			"count":546,
			"type":"VEC4"
		},
		{
			"bufferView":16,
			"componentType":5123,
			"count":1290,
			"type":"SCALAR"
		},
		{
			"bufferView":17,
			"componentType":5126,
			"count":97,
			"max":[
				0.5,
				2,
				0.5
			],
			"min":[
				-0.5,
				0,
				-0.5
			],
			"type":"VEC3"
		},
		{
			"bufferView":18,
			"componentType":5126,
			"count":97,
			"type":"VEC3"
		},
		{
			"bufferView":19,
			"componentType":5126,
			"count":97,
			"type":"VEC2"
		},
		{
			"bufferView":20,
			"componentType":5121,
			"count":97,
			"type":"VEC4"
		},
		{
			"bufferView":21,
			"componentType":5126,
			"count":97,
			"type":"VEC4"
		},
		{
			"bufferView":22,
			"componentType":5123,
			"count":276,
			"type":"SCALAR"
		},
		{
			"bufferView":23,
			"componentType":5126,
			"count":240,
			"max":[
				1.5,
				2.8533356189727783,
				1.5
			],
			"min":[
				-1.4999998807907104,
				1.6533355712890625,
				-1.5
			],
			"type":"VEC3"
		},
		{
			"bufferView":24,
			"componentType":5126,
			"count":240,
			"type":"VEC3"
		},
		{
			"bufferView":25,
			"componentType":5126,
			"count":240,
			"type":"VEC2"
		},
		{
			"bufferView":26,
			"componentType":5121,
			"count":240,
			"type":"VEC4"
		},
		{
			"bufferView":27,
			"componentType":5126,
			"count":240,
			"type":"VEC4"
		},
		{
			"bufferView":28,
			"componentType":5123,
			"count":336,
			"type":"SCALAR"
		},
		{
			"bufferView":29,
			"componentType":5126,
			"count":16,
			"max":[
				1.5,
				1.6533355712890625,
				1.5
			],
			"min":[
				-1.4999998807907104,
				1.6533355712890625,
				-1.5
			],
			"type":"VEC3"
		},
		{
			"bufferView":30,
			"componentType":5126,
			"count":16,
			"type":"VEC3"
		},
		{
			"bufferView":31,
			"componentType":5126,
			"count":16,
			"type":"VEC2"
		},
		{
			"bufferView":32,
			"componentType":5121,
			"count":16,
			"type":"VEC4"
		},
		{
			"bufferView":33,
			"componentType":5126,
			"count":16,
			"type":"VEC4"
		},
		{
			"bufferView":34,
			"componentType":5123,
			"count":42,
			"type":"SCALAR"
		},
		{
			"bufferView":35,
			"componentType":5126,
			"count":2,
			"max":[
				2.5
			],
			"min":[
				0.041666666666666664
			],
			"type":"SCALAR"
		},
		{
			"bufferView":36,
			"componentType":5126,
			"count":2,
			"type":"VEC3"
		},
		{
			"bufferView":37,
			"componentType":5126,
			"count":2,
			"type":"VEC4"
		},
		{
			"bufferView":38,
			"componentType":5126,
			"count":2,
			"type":"VEC3"
		},
		{
			"bufferView":39,
			"componentType":5126,
			"count":2,
			"type":"VEC3"
		},
		{
			"bufferView":40,
			"componentType":5126,
			"count":60,
			"max":[
				2.5
			],
			"min":[
				0.041666666666666664
			],
			"type":"SCALAR"
		},
		{
			"bufferView":41,
			"componentType":5126,
			"count":60,
			"type":"VEC4"
		},
		{
			"bufferView":42,
			"componentType":5126,
			"count":2,
			"type":"VEC3"
		},
		{
			"bufferView":43,
			"componentType":5126,
			"count":2,
			"type":"VEC3"
		},
		{
			"bufferView":44,
			"componentType":5126,
			"count":60,
			"type":"VEC4"
		},
		{
			"bufferView":45,
			"componentType":5126,
			"count":2,
			"type":"VEC3"
		}
	],
	"bufferViews":[
		{
			"buffer":0,
			"byteLength":288,
			"byteOffset":0,
			"target":34962
		},
		{
			"buffer":0,
			"byteLength":288,
			"byteOffset":288,
			"target":34962
		},
		{
			"buffer":0,
			"byteLength":192,
			"byteOffset":576,
			"target":34962
		},
		{
			"buffer":0,
			"byteLength":72,
			"byteOffset":768,
			"target":34963
		},
		{
			"buffer":0,
			"byteLength":6552,
			"byteOffset":840,
			"target":34962
		},
		{
			"buffer":0,
			"byteLength":6552,
			"byteOffset":7392,
			"target":34962
		},
		{
			"buffer":0,
			"byteLength":4368,
			"byteOffset":13944,
			"target":34962
		},
		{
			"buffer":0,
			"byteLength":2184,
			"byteOffset":18312,
			"target":34962
		},
		{
			"buffer":0,
			"byteLength":8736,
			"byteOffset":20496,
			"target":34962
		},
		{
			"buffer":0,
			"byteLength":2580,
			"byteOffset":29232,
			"target":34963
		},
		{
			"buffer":0,
			"byteLength":256,
			"byteOffset":31812
		},
		{
			"buffer":0,
			"byteLength":6552,
			"byteOffset":32068,
			"target":34962
		},
		{
			"buffer":0,
			"byteLength":6552,
			"byteOffset":38620,
			"target":34962
		},
		{
			"buffer":0,
			"byteLength":4368,
			"byteOffset":45172,
			"target":34962
		},
		{
			"buffer":0,
			"byteLength":2184,
			"byteOffset":49540,
			"target":34962
		},
		{
			"buffer":0,
			"byteLength":8736,
			"byteOffset":51724,
			"target":34962
		},
		{
			"buffer":0,
			"byteLength":2580,
			"byteOffset":60460,
			"target":34963
		},
		{
			"buffer":0,
			"byteLength":1164,
			"byteOffset":63040,
			"target":34962
		},
		{
			"buffer":0,
			"byteLength":1164,
			"byteOffset":64204,
			"target":34962
		},
		{
			"buffer":0,
			"byteLength":776,
			"byteOffset":65368,
			"target":34962
		},
		{
			"buffer":0,
			"byteLength":388,
			"byteOffset":66144,
			"target":34962
		},
		{
			"buffer":0,
			"byteLength":1552,
			"byteOffset":66532,
			"target":34962
		},
		{
			"buffer":0,
			"byteLength":552,
			"byteOffset":68084,
			"target":34963
		},
		{
			"buffer":0,
			"byteLength":2880,
			"byteOffset":68636,
			"target":34962
		},
		{
			"buffer":0,
			"byteLength":2880,
			"byteOffset":71516,
			"target":34962
		},
		{
			"buffer":0,
			"byteLength":1920,
			"byteOffset":74396,
			"target":34962
		},
		{
			"buffer":0,
			"byteLength":960,
			"byteOffset":76316,
			"target":34962
		},
		{
			"buffer":0,
			"byteLength":3840,
			"byteOffset":77276,
			"target":34962
		},
		{
			"buffer":0,
			"byteLength":672,
			"byteOffset":81116,
			"target":34963
		},
		{
			"buffer":0,
			"byteLength":192,
			"byteOffset":81788,
			"target":34962
		},
		{
			"buffer":0,
			"byteLength":192,
			"byteOffset":81980,
			"target":34962
		},
		{
			"buffer":0,
			"byteLength":128,
			"byteOffset":82172,
			"target":34962
		},
		{
			"buffer":0,
			"byteLength":64,
			"byteOffset":82300,
			"target":34962
		},
		{
			"buffer":0,
			"byteLength":256,
			"byteOffset":82364,
			"target":34962
		},
		{
			"buffer":0,
			"byteLength":84,
			"byteOffset":82620,
			"target":34963
		},
		{
			"buffer":0,
			"byteLength":8,
			"byteOffset":82704
		},
		{
			"buffer":0,
			"byteLength":24,
			"byteOffset":82712
		},
		{
			"buffer":0,
			"byteLength":32,
			"byteOffset":82736
		},
		{
			"buffer":0,
			"byteLength":24,
			"byteOffset":82768
		},
		{
			"buffer":0,
			"byteLength":24,
			"byteOffset":82792
		},
		{
			"buffer":0,
			"byteLength":240,
			"byteOffset":82816
		},
		{
			"buffer":0,
			"byteLength":960,
			"byteOffset":83056
		},
		{
			"buffer":0,
			"byteLength":24,
			"byteOffset":84016
		},
		{
			"buffer":0,
			"byteLength":24,
			"byteOffset":84040
		},
		{
			"buffer":0,
			"byteLength":960,
			"byteOffset":84064
		},
		{
			"buffer":0,
			"byteLength":24,
			"byteOffset":85024
		}
	],
	"samplers":[
		{
			"magFilter":9729,
			"minFilter":9987
		}
	],
	"buffers":[
		{
			"byteLength":85048,
			"uri":"flyEnemy.bin"
		}
	]
}
