{
	"asset":{
		"generator":"Khronos glTF Blender I/O v4.1.62",
		"version":"2.0"
	},
	"scene":0,
	"scenes":[
		{
			"name":"Scene",
			"nodes":[
				0,
				1,
				2,
				3
			]
		}
	],
	"nodes":[
		{
			"mesh":0,
			"name":"mushroom",
			"rotation":[
				0,
				-1,
				0,
				4.371138828673793e-08
			],
			"scale":[
				0.05000000074505806,
				0.05000000074505806,
				0.05000000074505806
			]
		},
		{
			"mesh":1,
			"name":"COL",
			"scale":[
				2.5,
				2.25,
				2.5
			],
			"translation":[
				0,
				2.25,
				0
			]
		},
		{
			"mesh":2,
			"name":"LeftWing",
			"rotation":[
				-0.6830126643180847,
				0.1830126941204071,
				0.1830126941204071,
				0.6830127239227295
			],
			"scale":[
				-0.014999999664723873,
				-0.014999999664723873,
				-0.014999999664723873
			],
			"translation":[
				-0.20476600527763367,
				0.8820689916610718,
				1.0789599418640137
			]
		},
		{
			"mesh":3,
			"name":"Cube",
			"rotation":[
				0.6830127239227295,
				-0.1830126941204071,
				0.1830126941204071,
				0.6830126643180847
			],
			"scale":[
				0.014999999664723873,
				0.014999999664723873,
				0.014999999664723873
			],
			"translation":[
				0.20476600527763367,
				0.8820689916610718,
				1.0789599418640137
			]
		}
	],
	"animations":[
		{
			"channels":[
				{
					"sampler":0,
					"target":{
						"node":0,
						"path":"translation"
					}
				},
				{
					"sampler":1,
					"target":{
						"node":0,
						"path":"rotation"
					}
				},
				{
					"sampler":2,
					"target":{
						"node":0,
						"path":"scale"
					}
				},
				{
					"sampler":3,
					"target":{
						"node":2,
						"path":"translation"
					}
				},
				{
					"sampler":4,
					"target":{
						"node":2,
						"path":"rotation"
					}
				},
				{
					"sampler":5,
					"target":{
						"node":2,
						"path":"scale"
					}
				},
				{
					"sampler":6,
					"target":{
						"node":3,
						"path":"translation"
					}
				},
				{
					"sampler":7,
					"target":{
						"node":3,
						"path":"rotation"
					}
				},
				{
					"sampler":8,
					"target":{
						"node":3,
						"path":"scale"
					}
				}
			],
			"name":"Fly",
			"samplers":[
				{
					"input":15,
					"interpolation":"STEP",
					"output":16
				},
				{
					"input":15,
					"interpolation":"STEP",
					"output":17
				},
				{
					"input":15,
					"interpolation":"STEP",
					"output":18
				},
				{
					"input":15,
					"interpolation":"STEP",
					"output":19
				},
				{
					"input":20,
					"interpolation":"LINEAR",
					"output":21
				},
				{
					"input":15,
					"interpolation":"STEP",
					"output":22
				},
				{
					"input":15,
					"interpolation":"STEP",
					"output":23
				},
				{
					"input":20,
					"interpolation":"LINEAR",
					"output":24
				},
				{
					"input":15,
					"interpolation":"STEP",
					"output":25
				}
			]
		}
	],
	"materials":[
		{
			"doubleSided":true,
			"name":"lambert1",
			"pbrMetallicRoughness":{
				"baseColorTexture":{
					"index":0
				},
				"metallicFactor":0,
				"roughnessFactor":0.5527864098548889
			}
		},
		{
			"alphaMode":"BLEND",
			"doubleSided":true,
			"name":"Material.004",
			"pbrMetallicRoughness":{
				"baseColorTexture":{
					"index":1
				},
				"metallicFactor":0
			}
		},
		{
			"alphaMode":"BLEND",
			"doubleSided":true,
			"name":"Material.003",
			"pbrMetallicRoughness":{
				"baseColorTexture":{
					"index":2
				},
				"metallicFactor":0
			}
		}
	],
	"meshes":[
		{
			"name":"\u30e1\u30c3\u30b7\u30e5",
			"primitives":[
				{
					"attributes":{
						"POSITION":0,
						"NORMAL":1,
						"TEXCOORD_0":2
					},
					"indices":3,
					"material":0
				}
			]
		},
		{
			"name":"\u7acb\u65b9\u4f53",
			"primitives":[
				{
					"attributes":{
						"POSITION":4,
						"NORMAL":5,
						"TEXCOORD_0":6
					},
					"indices":7
				}
			]
		},
		{
			"name":"Cube.004",
			"primitives":[
				{
					"attributes":{
						"POSITION":8,
						"NORMAL":9,
						"TEXCOORD_0":10
					},
					"indices":11,
					"material":1
				}
			]
		},
		{
			"name":"Cube.003",
			"primitives":[
				{
					"attributes":{
						"POSITION":12,
						"NORMAL":13,
						"TEXCOORD_0":14
					},
					"indices":11,
					"material":2
				}
			]
		}
	],
	"textures":[
		{
			"sampler":0,
			"source":0
		},
		{
			"sampler":0,
			"source":1
		},
		{
			"sampler":0,
			"source":1
		}
	],
	"images":[
		{
			"mimeType":"image/png",
			"name":"Albedo",
			"uri":"Albedo.png"
		},
		{
			"mimeType":"image/png",
			"name":"texture",
			"uri":"texture.png"
		}
	],
	"accessors":[
		{
			"bufferView":0,
			"componentType":5126,
			"count":807,
			"max":[
				56.773170471191406,
				93.19898986816406,
				56.77519989013672
			],
			"min":[
				-56.773170471191406,
				-0.002937626326456666,
				-56.77519989013672
			],
			"type":"VEC3"
		},
		{
			"bufferView":1,
			"componentType":5126,
			"count":807,
			"type":"VEC3"
		},
		{
			"bufferView":2,
			"componentType":5126,
			"count":807,
			"type":"VEC2"
		},
		{
			"bufferView":3,
			"componentType":5123,
			"count":3819,
			"type":"SCALAR"
		},
		{
			"bufferView":4,
			"componentType":5126,
			"count":24,
			"max":[
				1,
				1,
				1
			],
			"min":[
				-1,
				-1,
				-1
			],
			"type":"VEC3"
		},
		{
			"bufferView":5,
			"componentType":5126,
			"count":24,
			"type":"VEC3"
		},
		{
			"bufferView":6,
			"componentType":5126,
			"count":24,
			"type":"VEC2"
		},
		{
			"bufferView":7,
			"componentType":5123,
			"count":36,
			"type":"SCALAR"
		},
		{
			"bufferView":8,
			"componentType":5126,
			"count":546,
			"max":[
				183.59732055664062,
				112.31352996826172,
				47.051761627197266
			],
			"min":[
				-0.056903839111328125,
				-0.9972038269042969,
				-101.75694274902344
			],
			"type":"VEC3"
		},
		{
			"bufferView":9,
			"componentType":5126,
			"count":546,
			"type":"VEC3"
		},
		{
			"bufferView":10,
			"componentType":5126,
			"count":546,
			"type":"VEC2"
		},
		{
			"bufferView":11,
			"componentType":5123,
			"count":1290,
			"type":"SCALAR"
		},
		{
			"bufferView":12,
			"componentType":5126,
			"count":546,
			"max":[
				183.59732055664062,
				112.31352996826172,
				47.051761627197266
			],
			"min":[
				-0.056903839111328125,
				-0.9972038269042969,
				-101.75694274902344
			],
			"type":"VEC3"
		},
		{
			"bufferView":13,
			"componentType":5126,
			"count":546,
			"type":"VEC3"
		},
		{
			"bufferView":14,
			"componentType":5126,
			"count":546,
			"type":"VEC2"
		},
		{
			"bufferView":15,
			"componentType":5126,
			"count":2,
			"max":[
				2
			],
			"min":[
				0.03333333333333333
			],
			"type":"SCALAR"
		},
		{
			"bufferView":16,
			"componentType":5126,
			"count":2,
			"type":"VEC3"
		},
		{
			"bufferView":17,
			"componentType":5126,
			"count":2,
			"type":"VEC4"
		},
		{
			"bufferView":18,
			"componentType":5126,
			"count":2,
			"type":"VEC3"
		},
		{
			"bufferView":19,
			"componentType":5126,
			"count":2,
			"type":"VEC3"
		},
		{
			"bufferView":20,
			"componentType":5126,
			"count":60,
			"max":[
				2
			],
			"min":[
				0.03333333333333333
			],
			"type":"SCALAR"
		},
		{
			"bufferView":21,
			"componentType":5126,
			"count":60,
			"type":"VEC4"
		},
		{
			"bufferView":22,
			"componentType":5126,
			"count":2,
			"type":"VEC3"
		},
		{
			"bufferView":23,
			"componentType":5126,
			"count":2,
			"type":"VEC3"
		},
		{
			"bufferView":24,
			"componentType":5126,
			"count":60,
			"type":"VEC4"
		},
		{
			"bufferView":25,
			"componentType":5126,
			"count":2,
			"type":"VEC3"
		}
	],
	"bufferViews":[
		{
			"buffer":0,
			"byteLength":9684,
			"byteOffset":0,
			"target":34962
		},
		{
			"buffer":0,
			"byteLength":9684,
			"byteOffset":9684,
			"target":34962
		},
		{
			"buffer":0,
			"byteLength":6456,
			"byteOffset":19368,
			"target":34962
		},
		{
			"buffer":0,
			"byteLength":7638,
			"byteOffset":25824,
			"target":34963
		},
		{
			"buffer":0,
			"byteLength":288,
			"byteOffset":33464,
			"target":34962
		},
		{
			"buffer":0,
			"byteLength":288,
			"byteOffset":33752,
			"target":34962
		},
		{
			"buffer":0,
			"byteLength":192,
			"byteOffset":34040,
			"target":34962
		},
		{
			"buffer":0,
			"byteLength":72,
			"byteOffset":34232,
			"target":34963
		},
		{
			"buffer":0,
			"byteLength":6552,
			"byteOffset":34304,
			"target":34962
		},
		{
			"buffer":0,
			"byteLength":6552,
			"byteOffset":40856,
			"target":34962
		},
		{
			"buffer":0,
			"byteLength":4368,
			"byteOffset":47408,
			"target":34962
		},
		{
			"buffer":0,
			"byteLength":2580,
			"byteOffset":51776,
			"target":34963
		},
		{
			"buffer":0,
			"byteLength":6552,
			"byteOffset":54356,
			"target":34962
		},
		{
			"buffer":0,
			"byteLength":6552,
			"byteOffset":60908,
			"target":34962
		},
		{
			"buffer":0,
			"byteLength":4368,
			"byteOffset":67460,
			"target":34962
		},
		{
			"buffer":0,
			"byteLength":8,
			"byteOffset":71828
		},
		{
			"buffer":0,
			"byteLength":24,
			"byteOffset":71836
		},
		{
			"buffer":0,
			"byteLength":32,
			"byteOffset":71860
		},
		{
			"buffer":0,
			"byteLength":24,
			"byteOffset":71892
		},
		{
			"buffer":0,
			"byteLength":24,
			"byteOffset":71916
		},
		{
			"buffer":0,
			"byteLength":240,
			"byteOffset":71940
		},
		{
			"buffer":0,
			"byteLength":960,
			"byteOffset":72180
		},
		{
			"buffer":0,
			"byteLength":24,
			"byteOffset":73140
		},
		{
			"buffer":0,
			"byteLength":24,
			"byteOffset":73164
		},
		{
			"buffer":0,
			"byteLength":960,
			"byteOffset":73188
		},
		{
			"buffer":0,
			"byteLength":24,
			"byteOffset":74148
		}
	],
	"samplers":[
		{
			"magFilter":9729,
			"minFilter":9987
		}
	],
	"buffers":[
		{
			"byteLength":74172,
			"uri":"flyEnemy.bin"
		}
	]
}
