{
	"asset":{
		"generator":"Khronos glTF Blender I/O v4.1.62",
		"version":"2.0"
	},
	"scene":0,
	"scenes":[
		{
			"name":"Scene",
			"nodes":[
				19
			]
		}
	],
	"nodes":[
		{
			"name":"cactus_headDeco",
			"rotation":[
				-0.07229213416576385,
				0.7034016251564026,
				0.07229215651750565,
				0.7034016847610474
			],
			"scale":[
				1,
				1,
				0.9999998807907104
			],
			"translation":[
				15.109071731567383,
				1.4081597328186035e-06,
				-6.693780960631557e-07
			]
		},
		{
			"name":"cactus_rightEye",
			"rotation":[
				-0.07229213416576385,
				0.7034016251564026,
				0.07229214161634445,
				0.7034016847610474
			],
			"scale":[
				1,
				1,
				0.9999998807907104
			],
			"translation":[
				-4.832334995269775,
				-22.709434509277344,
				19.988399505615234
			]
		},
		{
			"name":"cactus_leftEye",
			"rotation":[
				-0.07229213416576385,
				0.7034016251564026,
				0.07229214161634445,
				0.7034016847610474
			],
			"scale":[
				1,
				1,
				0.9999998807907104
			],
			"translation":[
				-4.832292556762695,
				-22.70937728881836,
				-19.98843002319336
			]
		},
		{
			"name":"cactus_mouth",
			"rotation":[
				-0.07229212671518326,
				0.7034016251564026,
				0.07229214906692505,
				0.7034016847610474
			],
			"scale":[
				1,
				1,
				0.9999998807907104
			],
			"translation":[
				-16.670291900634766,
				-30.084697723388672,
				7.385450544461492e-07
			]
		},
		{
			"children":[
				0,
				1,
				2,
				3
			],
			"name":"cactus_head",
			"rotation":[
				-4.78631889677672e-09,
				7.770931120809621e-10,
				-0.10616303235292435,
				0.9943487644195557
			],
			"scale":[
				1,
				0.9999998807907104,
				1
			],
			"translation":[
				14.39798641204834,
				-1.0728836059570312e-06,
				-6.603794417969766e-07
			]
		},
		{
			"children":[
				4
			],
			"name":"cactus_neck",
			"rotation":[
				5.793900470507651e-09,
				6.976470512398691e-10,
				0.12441487610340118,
				0.9922302961349487
			],
			"scale":[
				0.9999999403953552,
				0.9999999403953552,
				0.9999998807907104
			],
			"translation":[
				8.460667610168457,
				1.1920928955078125e-06,
				-3.9995492784328235e-07
			]
		},
		{
			"name":"cactus_leftHandTip",
			"rotation":[
				7.057207201281913e-19,
				-1.069181737231844e-15,
				4.817205411210764e-17,
				1
			],
			"scale":[
				1,
				0.9999999403953552,
				1
			],
			"translation":[
				10.643302917480469,
				-0.680504322052002,
				0.1646459549665451
			]
		},
		{
			"children":[
				6
			],
			"name":"cactus_leftHand",
			"rotation":[
				3.2196356691827077e-10,
				5.005086123333058e-09,
				0.044921182096004486,
				0.998990535736084
			],
			"scale":[
				0.9999999403953552,
				0.9999999403953552,
				1
			],
			"translation":[
				29.131919860839844,
				1.456021436752053e-06,
				-9.804042520045186e-07
			]
		},
		{
			"children":[
				7
			],
			"name":"cactus_leftLowerArm",
			"rotation":[
				2.923123254561233e-08,
				1.7611599290034974e-08,
				-0.09060566872358322,
				0.9958868622779846
			],
			"scale":[
				1.0000001192092896,
				1.0000001192092896,
				1
			],
			"translation":[
				31.110157012939453,
				-1.0062245792141766e-06,
				-5.808938112750184e-06
			]
		},
		{
			"children":[
				8
			],
			"name":"cactus_leftUpperArm",
			"rotation":[
				-0.05298072099685669,
				0.7051191926002502,
				0.11724855750799179,
				0.6973182559013367
			],
			"scale":[
				1,
				0.9999998807907104,
				0.9999998807907104
			],
			"translation":[
				-0.4978863596916199,
				0.28288382291793823,
				-21.342397689819336
			]
		},
		{
			"name":"cactus_rightHandTip",
			"rotation":[
				1.6157922151275412e-15,
				5.081948728502539e-08,
				-4.47048691398777e-08,
				1
			],
			"scale":[
				1,
				1,
				1.0000001192092896
			],
			"translation":[
				-10.643331527709961,
				-0.6804999709129333,
				0.16464237868785858
			]
		},
		{
			"children":[
				10
			],
			"name":"cactus_rightHand",
			"rotation":[
				-0.04492117092013359,
				0.998990535736084,
				-6.00309348897099e-08,
				4.366727424098826e-08
			],
			"scale":[
				0.9999998211860657,
				0.9999998211860657,
				0.9999999403953552
			],
			"translation":[
				29.131874084472656,
				-5.86700161875342e-06,
				-7.558205197710777e-06
			]
		},
		{
			"children":[
				11
			],
			"name":"cactus_rightLowerArm",
			"rotation":[
				8.793553440966662e-09,
				-1.212896361124649e-08,
				-0.09060557931661606,
				0.9958868622779846
			],
			"scale":[
				1,
				1.0000001192092896,
				0.9999999403953552
			],
			"translation":[
				31.110198974609375,
				2.2802071271144086e-06,
				3.6105034268985037e-06
			]
		},
		{
			"children":[
				12
			],
			"name":"cactus_rightUpperArm",
			"rotation":[
				0.05298081785440445,
				-0.7051191926002502,
				0.1172485202550888,
				0.6973182559013367
			],
			"scale":[
				0.9999999403953552,
				0.9999999403953552,
				0.9999999403953552
			],
			"translation":[
				-0.4978732466697693,
				0.2828872799873352,
				21.342397689819336
			]
		},
		{
			"children":[
				5,
				9,
				13
			],
			"name":"cactus_spine03",
			"rotation":[
				-1.2466164100999322e-08,
				4.82226147902054e-10,
				-0.2609521448612213,
				0.9653517007827759
			],
			"translation":[
				19.102014541625977,
				-1.430511474609375e-06,
				-9.220805168297375e-07
			]
		},
		{
			"children":[
				14
			],
			"name":"cactus_spine02",
			"rotation":[
				3.295401063141412e-09,
				-1.3613041804916293e-09,
				0.07025431841611862,
				0.997529149055481
			],
			"scale":[
				0.9999998807907104,
				1,
				1
			],
			"translation":[
				17.82213020324707,
				4.202127456665039e-06,
				-8.116561502902186e-07
			]
		},
		{
			"children":[
				15
			],
			"name":"cactus_spine01",
			"rotation":[
				7.042769922804837e-09,
				-9.038475523581724e-10,
				0.1578151285648346,
				0.9874686598777771
			],
			"scale":[
				1.0000001192092896,
				1.0000001192092896,
				1
			],
			"translation":[
				16.87691879272461,
				-3.814697265625e-06,
				-7.377134352282155e-07
			]
		},
		{
			"children":[
				16
			],
			"name":"cactus_root",
			"rotation":[
				-0.4554368853569031,
				-0.5409041047096252,
				0.45543691515922546,
				0.54090416431427
			],
			"scale":[
				0.9999998807907104,
				0.9999997615814209,
				1
			],
			"translation":[
				3.0814879110195774e-33,
				1.8196526765823364,
				0.18817342817783356
			]
		},
		{
			"mesh":0,
			"name":"Cactus",
			"skin":0
		},
		{
			"children":[
				18,
				17
			],
			"name":"Armature",
			"scale":[
				0.009999999776482582,
				0.009999999776482582,
				0.009999999776482582
			]
		}
	],
	"materials":[
		{
			"doubleSided":true,
			"name":"lambert1",
			"pbrMetallicRoughness":{
				"baseColorTexture":{
					"index":0
				},
				"metallicFactor":0,
				"roughnessFactor":0.5527864098548889
			}
		}
	],
	"meshes":[
		{
			"name":"\u30e1\u30c3\u30b7\u30e5",
			"primitives":[
				{
					"attributes":{
						"POSITION":0,
						"NORMAL":1,
						"TEXCOORD_0":2,
						"JOINTS_0":3,
						"WEIGHTS_0":4
					},
					"indices":5,
					"material":0
				}
			]
		}
	],
	"textures":[
		{
			"sampler":0,
			"source":0
		}
	],
	"images":[
		{
			"mimeType":"image/png",
			"name":"Albedo",
			"uri":"Albedo.png"
		}
	],
	"skins":[
		{
			"inverseBindMatrices":6,
			"joints":[
				17,
				16,
				15,
				14,
				5,
				4,
				0,
				1,
				2,
				3,
				9,
				8,
				7,
				6,
				13,
				12,
				11,
				10
			],
			"name":"Armature"
		}
	],
	"accessors":[
		{
			"bufferView":0,
			"componentType":5126,
			"count":5768,
			"max":[
				0.9540747404098511,
				1.1975435018539429,
				0.3261404037475586
			],
			"min":[
				-0.9540746212005615,
				-1.222866075067941e-08,
				-0.3261404037475586
			],
			"type":"VEC3"
		},
		{
			"bufferView":1,
			"componentType":5126,
			"count":5768,
			"type":"VEC3"
		},
		{
			"bufferView":2,
			"componentType":5126,
			"count":5768,
			"type":"VEC2"
		},
		{
			"bufferView":3,
			"componentType":5121,
			"count":5768,
			"type":"VEC4"
		},
		{
			"bufferView":4,
			"componentType":5126,
			"count":5768,
			"type":"VEC4"
		},
		{
			"bufferView":5,
			"componentType":5123,
			"count":8418,
			"type":"SCALAR"
		},
		{
			"bufferView":6,
			"componentType":5126,
			"count":18,
			"type":"MAT4"
		}
	],
	"bufferViews":[
		{
			"buffer":0,
			"byteLength":69216,
			"byteOffset":0,
			"target":34962
		},
		{
			"buffer":0,
			"byteLength":69216,
			"byteOffset":69216,
			"target":34962
		},
		{
			"buffer":0,
			"byteLength":46144,
			"byteOffset":138432,
			"target":34962
		},
		{
			"buffer":0,
			"byteLength":23072,
			"byteOffset":184576,
			"target":34962
		},
		{
			"buffer":0,
			"byteLength":92288,
			"byteOffset":207648,
			"target":34962
		},
		{
			"buffer":0,
			"byteLength":16836,
			"byteOffset":299936,
			"target":34963
		},
		{
			"buffer":0,
			"byteLength":1152,
			"byteOffset":316772
		}
	],
	"samplers":[
		{
			"magFilter":9729,
			"minFilter":9987
		}
	],
	"buffers":[
		{
			"byteLength":317924,
			"uri":"saboten.bin"
		}
	]
}
