{
	"asset":{
		"generator":"Khronos glTF Blender I/O v4.1.62",
		"version":"2.0"
	},
	"scene":0,
	"scenes":[
		{
			"name":"Scene",
			"nodes":[
				0,
				1,
				2,
				3,
				4
			]
		}
	],
	"nodes":[
		{
			"mesh":0,
			"name":"\u5186\u67f1.001",
			"rotation":[
				0.5,
				-0.5,
				-0.5,
				0.5
			],
			"scale":[
				0.9599999785423279,
				0.0011999999405816197,
				0.9599999785423279
			],
			"translation":[
				0.009161114692687988,
				2.463778018951416,
				-0.009571671485900879
			]
		},
		{
			"mesh":1,
			"name":"\u30c6\u30ad\u30b9\u30c8.003",
			"rotation":[
				0.7071068286895752,
				0,
				0,
				0.7071068286895752
			],
			"scale":[
				0.6000001430511475,
				0.6000001430511475,
				0.6000001430511475
			],
			"translation":[
				-0.8776501417160034,
				2.2384848594665527,
				0.025577783584594727
			]
		},
		{
			"mesh":2,
			"name":"\u30c6\u30ad\u30b9\u30c8.002",
			"rotation":[
				0.7071068286895752,
				0,
				0,
				0.7071068286895752
			],
			"scale":[
				0.6000001430511475,
				0.6000001430511475,
				0.6000001430511475
			],
			"translation":[
				-0.16665983200073242,
				1.5629245042800903,
				0.025577783584594727
			]
		},
		{
			"mesh":3,
			"name":"\u30c6\u30ad\u30b9\u30c8.001",
			"rotation":[
				0.7071068286895752,
				0,
				0,
				0.7071068286895752
			],
			"scale":[
				0.6000001430511475,
				0.6000001430511475,
				0.6000001430511475
			],
			"translation":[
				0.626367449760437,
				2.2248117923736572,
				0.025577783584594727
			]
		},
		{
			"mesh":4,
			"name":"\u30c6\u30ad\u30b9\u30c8",
			"rotation":[
				0.7071068286895752,
				0,
				0,
				0.7071068286895752
			],
			"scale":[
				0.6000001430511475,
				0.6000001430511475,
				0.6000001430511475
			],
			"translation":[
				-0.31706148386001587,
				2.880082130432129,
				0.025577783584594727
			]
		}
	],
	"materials":[
		{
			"doubleSided":true,
			"name":"Material.007",
			"pbrMetallicRoughness":{
				"baseColorFactor":[
					0.800000011920929,
					0.800000011920929,
					0.800000011920929,
					1
				],
				"metallicFactor":0,
				"roughnessFactor":0.5
			}
		},
		{
			"doubleSided":true,
			"name":"\u30de\u30c6\u30ea\u30a2\u30eb.006",
			"pbrMetallicRoughness":{
				"baseColorFactor":[
					0,
					0,
					0,
					1
				],
				"metallicFactor":0,
				"roughnessFactor":0.5
			}
		},
		{
			"doubleSided":true,
			"name":"\u30de\u30c6\u30ea\u30a2\u30eb.007",
			"pbrMetallicRoughness":{
				"baseColorFactor":[
					0,
					0,
					0,
					1
				],
				"metallicFactor":0,
				"roughnessFactor":0.5
			}
		},
		{
			"doubleSided":true,
			"name":"\u30de\u30c6\u30ea\u30a2\u30eb.008",
			"pbrMetallicRoughness":{
				"baseColorFactor":[
					0.4499104619026184,
					0.4499104619026184,
					0.4499104619026184,
					1
				],
				"metallicFactor":0,
				"roughnessFactor":0.5
			}
		},
		{
			"doubleSided":true,
			"name":"\u30de\u30c6\u30ea\u30a2\u30eb.009",
			"pbrMetallicRoughness":{
				"baseColorFactor":[
					0,
					0,
					0,
					1
				],
				"metallicFactor":0,
				"roughnessFactor":0.5
			}
		},
		{
			"doubleSided":true,
			"name":"\u30de\u30c6\u30ea\u30a2\u30eb.010",
			"pbrMetallicRoughness":{
				"baseColorFactor":[
					0,
					0,
					0,
					1
				],
				"metallicFactor":0,
				"roughnessFactor":0.5
			}
		},
		{
			"doubleSided":true,
			"name":"\u30de\u30c6\u30ea\u30a2\u30eb.011",
			"pbrMetallicRoughness":{
				"baseColorFactor":[
					0,
					0,
					0,
					1
				],
				"metallicFactor":0,
				"roughnessFactor":0.5
			}
		}
	],
	"meshes":[
		{
			"name":"\u5186\u67f1.002",
			"primitives":[
				{
					"attributes":{
						"POSITION":0,
						"NORMAL":1,
						"TEXCOORD_0":2
					},
					"indices":3,
					"material":0
				},
				{
					"attributes":{
						"POSITION":4,
						"NORMAL":5,
						"TEXCOORD_0":6
					},
					"indices":7,
					"material":1
				},
				{
					"attributes":{
						"POSITION":8,
						"NORMAL":9,
						"TEXCOORD_0":10
					},
					"indices":7,
					"material":2
				},
				{
					"attributes":{
						"POSITION":11,
						"NORMAL":12,
						"TEXCOORD_0":13
					},
					"indices":14,
					"material":3
				}
			]
		},
		{
			"name":"\u30c6\u30ad\u30b9\u30c8.004",
			"primitives":[
				{
					"attributes":{
						"POSITION":15,
						"NORMAL":16,
						"TEXCOORD_0":17
					},
					"indices":18,
					"material":4
				}
			]
		},
		{
			"name":"\u30c6\u30ad\u30b9\u30c8.003",
			"primitives":[
				{
					"attributes":{
						"POSITION":19,
						"NORMAL":20,
						"TEXCOORD_0":21
					},
					"indices":22,
					"material":5
				}
			]
		},
		{
			"name":"\u30c6\u30ad\u30b9\u30c8.002",
			"primitives":[
				{
					"attributes":{
						"POSITION":23,
						"NORMAL":24,
						"TEXCOORD_0":25
					},
					"indices":26,
					"material":6
				}
			]
		},
		{
			"name":"\u30c6\u30ad\u30b9\u30c8.001",
			"primitives":[
				{
					"attributes":{
						"POSITION":27,
						"NORMAL":28,
						"TEXCOORD_0":29
					},
					"indices":30,
					"material":1
				}
			]
		}
	],
	"accessors":[
		{
			"bufferView":0,
			"componentType":5126,
			"count":192,
			"max":[
				1,
				1,
				1
			],
			"min":[
				-1,
				-1,
				-1
			],
			"type":"VEC3"
		},
		{
			"bufferView":1,
			"componentType":5126,
			"count":192,
			"type":"VEC3"
		},
		{
			"bufferView":2,
			"componentType":5126,
			"count":192,
			"type":"VEC2"
		},
		{
			"bufferView":3,
			"componentType":5123,
			"count":372,
			"type":"SCALAR"
		},
		{
			"bufferView":4,
			"componentType":5126,
			"count":24,
			"max":[
				0.4488370418548584,
				40.76468276977539,
				0.03749999403953552
			],
			"min":[
				-0.05116294324398041,
				20.764667510986328,
				-0.03749999403953552
			],
			"type":"VEC3"
		},
		{
			"bufferView":5,
			"componentType":5126,
			"count":24,
			"type":"VEC3"
		},
		{
			"bufferView":6,
			"componentType":5126,
			"count":24,
			"type":"VEC2"
		},
		{
			"bufferView":7,
			"componentType":5123,
			"count":36,
			"type":"SCALAR"
		},
		{
			"bufferView":8,
			"componentType":5126,
			"count":24,
			"max":[
				0.20472225546836853,
				64.94195556640625,
				0.02499999664723873
			],
			"min":[
				-0.5452777147293091,
				44.94192886352539,
				-0.02499999664723873
			],
			"type":"VEC3"
		},
		{
			"bufferView":9,
			"componentType":5126,
			"count":24,
			"type":"VEC3"
		},
		{
			"bufferView":10,
			"componentType":5126,
			"count":24,
			"type":"VEC2"
		},
		{
			"bufferView":11,
			"componentType":5126,
			"count":192,
			"max":[
				0.01874999701976776,
				84.39189147949219,
				0.01874999701976776
			],
			"min":[
				-0.01874999701976776,
				-115.60809326171875,
				-0.01874999701976776
			],
			"type":"VEC3"
		},
		{
			"bufferView":12,
			"componentType":5126,
			"count":192,
			"type":"VEC3"
		},
		{
			"bufferView":13,
			"componentType":5126,
			"count":192,
			"type":"VEC2"
		},
		{
			"bufferView":14,
			"componentType":5123,
			"count":372,
			"type":"SCALAR"
		},
		{
			"bufferView":15,
			"componentType":5126,
			"count":133,
			"max":[
				0.4610000252723694,
				0,
				0.009000000543892384
			],
			"min":[
				0.036000002175569534,
				0,
				-0.6910000443458557
			],
			"type":"VEC3"
		},
		{
			"bufferView":16,
			"componentType":5126,
			"count":133,
			"type":"VEC3"
		},
		{
			"bufferView":17,
			"componentType":5126,
			"count":133,
			"type":"VEC2"
		},
		{
			"bufferView":18,
			"componentType":5123,
			"count":399,
			"type":"SCALAR"
		},
		{
			"bufferView":19,
			"componentType":5126,
			"count":121,
			"max":[
				0.4650000333786011,
				0,
				0.009000000543892384
			],
			"min":[
				0.04400000348687172,
				0,
				-0.6910000443458557
			],
			"type":"VEC3"
		},
		{
			"bufferView":20,
			"componentType":5126,
			"count":121,
			"type":"VEC3"
		},
		{
			"bufferView":21,
			"componentType":5126,
			"count":121,
			"type":"VEC2"
		},
		{
			"bufferView":22,
			"componentType":5123,
			"count":363,
			"type":"SCALAR"
		},
		{
			"bufferView":23,
			"componentType":5126,
			"count":147,
			"max":[
				0.4240000247955322,
				0,
				0.009000000543892384
			],
			"min":[
				0.06400000303983688,
				0,
				-0.6910000443458557
			],
			"type":"VEC3"
		},
		{
			"bufferView":24,
			"componentType":5126,
			"count":147,
			"type":"VEC3"
		},
		{
			"bufferView":25,
			"componentType":5126,
			"count":147,
			"type":"VEC2"
		},
		{
			"bufferView":26,
			"componentType":5123,
			"count":435,
			"type":"SCALAR"
		},
		{
			"bufferView":27,
			"componentType":5126,
			"count":93,
			"max":[
				0.9660000205039978,
				0,
				0
			],
			"min":[
				0.20200000703334808,
				0,
				-0.6910000443458557
			],
			"type":"VEC3"
		},
		{
			"bufferView":28,
			"componentType":5126,
			"count":93,
			"type":"VEC3"
		},
		{
			"bufferView":29,
			"componentType":5126,
			"count":93,
			"type":"VEC2"
		},
		{
			"bufferView":30,
			"componentType":5123,
			"count":267,
			"type":"SCALAR"
		}
	],
	"bufferViews":[
		{
			"buffer":0,
			"byteLength":2304,
			"byteOffset":0,
			"target":34962
		},
		{
			"buffer":0,
			"byteLength":2304,
			"byteOffset":2304,
			"target":34962
		},
		{
			"buffer":0,
			"byteLength":1536,
			"byteOffset":4608,
			"target":34962
		},
		{
			"buffer":0,
			"byteLength":744,
			"byteOffset":6144,
			"target":34963
		},
		{
			"buffer":0,
			"byteLength":288,
			"byteOffset":6888,
			"target":34962
		},
		{
			"buffer":0,
			"byteLength":288,
			"byteOffset":7176,
			"target":34962
		},
		{
			"buffer":0,
			"byteLength":192,
			"byteOffset":7464,
			"target":34962
		},
		{
			"buffer":0,
			"byteLength":72,
			"byteOffset":7656,
			"target":34963
		},
		{
			"buffer":0,
			"byteLength":288,
			"byteOffset":7728,
			"target":34962
		},
		{
			"buffer":0,
			"byteLength":288,
			"byteOffset":8016,
			"target":34962
		},
		{
			"buffer":0,
			"byteLength":192,
			"byteOffset":8304,
			"target":34962
		},
		{
			"buffer":0,
			"byteLength":2304,
			"byteOffset":8496,
			"target":34962
		},
		{
			"buffer":0,
			"byteLength":2304,
			"byteOffset":10800,
			"target":34962
		},
		{
			"buffer":0,
			"byteLength":1536,
			"byteOffset":13104,
			"target":34962
		},
		{
			"buffer":0,
			"byteLength":744,
			"byteOffset":14640,
			"target":34963
		},
		{
			"buffer":0,
			"byteLength":1596,
			"byteOffset":15384,
			"target":34962
		},
		{
			"buffer":0,
			"byteLength":1596,
			"byteOffset":16980,
			"target":34962
		},
		{
			"buffer":0,
			"byteLength":1064,
			"byteOffset":18576,
			"target":34962
		},
		{
			"buffer":0,
			"byteLength":798,
			"byteOffset":19640,
			"target":34963
		},
		{
			"buffer":0,
			"byteLength":1452,
			"byteOffset":20440,
			"target":34962
		},
		{
			"buffer":0,
			"byteLength":1452,
			"byteOffset":21892,
			"target":34962
		},
		{
			"buffer":0,
			"byteLength":968,
			"byteOffset":23344,
			"target":34962
		},
		{
			"buffer":0,
			"byteLength":726,
			"byteOffset":24312,
			"target":34963
		},
		{
			"buffer":0,
			"byteLength":1764,
			"byteOffset":25040,
			"target":34962
		},
		{
			"buffer":0,
			"byteLength":1764,
			"byteOffset":26804,
			"target":34962
		},
		{
			"buffer":0,
			"byteLength":1176,
			"byteOffset":28568,
			"target":34962
		},
		{
			"buffer":0,
			"byteLength":870,
			"byteOffset":29744,
			"target":34963
		},
		{
			"buffer":0,
			"byteLength":1116,
			"byteOffset":30616,
			"target":34962
		},
		{
			"buffer":0,
			"byteLength":1116,
			"byteOffset":31732,
			"target":34962
		},
		{
			"buffer":0,
			"byteLength":744,
			"byteOffset":32848,
			"target":34962
		},
		{
			"buffer":0,
			"byteLength":534,
			"byteOffset":33592,
			"target":34963
		}
	],
	"buffers":[
		{
			"byteLength":34128,
			"uri":"clockParts.bin"
		}
	]
}
